<?xml version="1.0" encoding="utf-8"?>
<!-- Generator: Adobe Illustrator 16.0.0, SVG Export Plug-In . SVG Version: 6.00 Build 0)  -->
<!DOCTYPE svg PUBLIC "-//W3C//DTD SVG 1.1//EN" "http://www.w3.org/Graphics/SVG/1.1/DTD/svg11.dtd">
<svg version="1.1" id="Layer_1" xmlns="http://www.w3.org/2000/svg" xmlns:xlink="http://www.w3.org/1999/xlink" x="0px" y="0px"
	 width="159px" height="49.435px" viewBox="0 0 159 49.435" enable-background="new 0 0 159 49.435" xml:space="preserve">
<path fill="#9F76B4" d="M133.123,49.435H27.543c-14.232,0-25.876-11.122-25.876-24.718l0,0C1.667,11.123,13.311,0,27.543,0h105.58
	C147.354,0,159,11.123,159,24.717l0,0C159,38.313,147.354,49.435,133.123,49.435z"/>
<ellipse fill="#FFFFFF" cx="28.244" cy="24.717" rx="19.756" ry="18.996"/>
<g>
	<path fill="#FFFFFF" d="M69.273,25.573c-0.096-1.692-0.211-3.727-0.191-5.239h-0.058c-0.441,1.423-0.978,2.935-1.629,4.609
		l-2.281,5.888h-1.265l-2.089-5.779c-0.613-1.711-1.131-3.277-1.495-4.718h-0.038c-0.038,1.513-0.134,3.547-0.249,5.366
		l-0.345,5.203h-1.59l0.9-12.136h2.127l2.204,5.87c0.537,1.494,0.977,2.826,1.303,4.087h0.058c0.326-1.225,0.786-2.557,1.36-4.087
		l2.3-5.87h2.127l0.805,12.136h-1.629L69.273,25.573z"/>
	<path fill="#FFFFFF" d="M75.462,18.767v7.185c0,2.719,1.284,3.871,3.009,3.871c1.917,0,3.143-1.188,3.143-3.871v-7.185H83.3v7.076
		c0,3.728-2.089,5.258-4.887,5.258c-2.645,0-4.638-1.423-4.638-5.186v-7.148H75.462z"/>
	<path fill="#FFFFFF" d="M87.631,27.085l-1.342,3.817h-1.725l4.389-12.136h2.012l4.408,12.136h-1.782l-1.38-3.817H87.631z
		 M91.867,25.862l-1.265-3.494c-0.288-0.792-0.479-1.512-0.671-2.214h-0.039c-0.191,0.72-0.402,1.458-0.651,2.196l-1.265,3.512
		H91.867z"/>
	<path fill="#FFFFFF" d="M101.333,30.903V18.767h1.82l4.14,6.14c0.958,1.423,1.706,2.701,2.319,3.943l0.038-0.018
		c-0.153-1.621-0.192-3.098-0.192-4.988v-5.078h1.572v12.136h-1.687l-4.102-6.158c-0.9-1.351-1.763-2.737-2.415-4.051l-0.058,0.018
		c0.097,1.53,0.135,2.989,0.135,5.005v5.186H101.333z"/>
	<path fill="#FFFFFF" d="M123.773,30.363c-0.747,0.252-2.223,0.666-3.967,0.666c-1.955,0-3.565-0.468-4.83-1.603
		c-1.111-1.008-1.802-2.629-1.802-4.52c0.02-3.619,2.664-6.266,6.996-6.266c1.494,0,2.664,0.306,3.22,0.558l-0.403,1.278
		c-0.689-0.288-1.552-0.522-2.855-0.522c-3.143,0-5.193,1.836-5.193,4.879c0,3.079,1.974,4.898,4.982,4.898
		c1.093,0,1.84-0.145,2.224-0.324V25.79h-2.626v-1.261h4.255V30.363z"/>
	<path fill="#FFFFFF" d="M128.411,27.085l-1.342,3.817h-1.725l4.389-12.136h2.012l4.408,12.136h-1.782l-1.38-3.817H128.411z
		 M132.646,25.862l-1.265-3.494c-0.288-0.792-0.479-1.512-0.671-2.214h-0.039c-0.191,0.72-0.402,1.458-0.651,2.196l-1.265,3.512
		H132.646z"/>
	<path fill="#FFFFFF" d="M139.41,30.903v-5.149l-4.082-6.986h1.897l1.82,3.349c0.499,0.918,0.882,1.657,1.284,2.503h0.038
		c0.364-0.792,0.806-1.584,1.304-2.503l1.859-3.349h1.897l-4.332,6.968v5.168H139.41z"/>
</g>
<g>
	<g id="Icons_38_">
		<path fill="#9E75B4" d="M40.805,19.33c-0.395-0.549-1.044-0.877-1.739-0.877H25.95c-0.49,0-0.887,0.383-0.887,0.854
			c0,0.472,0.397,0.854,0.887,0.854h13.116c0.112,0,0.218,0.054,0.281,0.144c0.064,0.088,0.079,0.202,0.04,0.303l-2.458,6.37
			c-0.05,0.13-0.18,0.215-0.322,0.215H22.825l-2.195-9.021c-0.273-1.119-1.298-1.902-2.494-1.902h-2.444
			c-0.736,0-1.331,0.574-1.331,1.281c0,0.708,0.595,1.282,1.331,1.282h2.365l2.956,12.146c0.267,1.097,1.26,1.868,2.424,1.897
			c-0.685,0.479-1.133,1.248-1.133,2.126c0,1.455,1.224,2.635,2.735,2.635c1.511,0,2.735-1.18,2.735-2.635
			c0-0.873-0.447-1.643-1.126-2.122h5.104c-0.681,0.479-1.127,1.249-1.127,2.122c0,1.455,1.225,2.635,2.734,2.635
			c1.512,0,2.737-1.18,2.737-2.635c0-0.873-0.447-1.643-1.127-2.122h1.24c0.735,0,1.331-0.572,1.331-1.281
			c0-0.706-0.596-1.279-1.331-1.279H23.586l-0.345-1.418h13.367c0.879,0,1.678-0.534,1.984-1.329l2.458-6.372
			C41.291,20.576,41.2,19.875,40.805,19.33z"/>
	</g>
</g>
</svg>
