<?xml version="1.0" encoding="utf-8"?>
<!-- Generator: Adobe Illustrator 16.0.0, SVG Export Plug-In . SVG Version: 6.00 Build 0)  -->
<!DOCTYPE svg PUBLIC "-//W3C//DTD SVG 1.1//EN" "http://www.w3.org/Graphics/SVG/1.1/DTD/svg11.dtd">
<svg version="1.1" xmlns="http://www.w3.org/2000/svg" xmlns:xlink="http://www.w3.org/1999/xlink" x="0px" y="0px" width="257px"
	 height="298px" viewBox="0 0 257 298" enable-background="new 0 0 257 298" xml:space="preserve">
<g id="Layer_3">
	<rect x="0.983" y="239" fill="none" width="257.643" height="152"/>
	<text transform="matrix(1 0 0 1 63.3066 284.8633)" font-family="'Amazone'" font-size="72">Mộc</text>
</g>
<g id="Layer_4">
	<g>
		<g>
			<path fill-rule="evenodd" clip-rule="evenodd" fill="#9CCA3C" d="M95.777,222.607c-31.164-4.623-57.23-42.73-62.777-79.445
				c26.935,28.641,62.858,17.769,84.16,34.65c9.797,7.758,12.481,17.964,10.07,26.71c-3.173-0.816-60.693-16.011-90.393-53.997
				c28.542,40.006,82.306,62.215,85.286,63.425C116.479,220.393,107.176,224.294,95.777,222.607z"/>
			<path fill-rule="evenodd" clip-rule="evenodd" fill="#9CCA3C" d="M103.398,160.841c-23.811-3.535-43.731-32.646-47.964-60.699
				c20.579,21.881,48.018,13.574,64.299,26.477c7.487,5.926,9.534,13.718,7.69,20.406c-2.422-0.622-46.367-12.237-69.058-41.255
				c21.801,30.566,62.879,47.536,65.157,48.458C119.213,159.149,112.107,162.135,103.398,160.841z"/>
			<path fill-rule="evenodd" clip-rule="evenodd" fill="#9CCA3C" d="M111.013,113.005c-16.458-2.447-30.22-22.569-33.151-41.959
				c14.223,15.128,33.194,9.384,44.443,18.302c5.171,4.096,6.592,9.484,5.316,14.101c-1.678-0.427-32.048-8.451-47.734-28.513
				c15.07,21.127,43.463,32.853,45.039,33.491C121.946,111.835,117.032,113.894,111.013,113.005z"/>
			<path fill-rule="evenodd" clip-rule="evenodd" fill="#9CCA3C" d="M166.566,222.607c31.164-4.623,57.231-42.73,62.777-79.445
				c-26.936,28.641-62.857,17.769-84.16,34.65c-9.797,7.758-12.482,17.964-10.07,26.71c3.173-0.816,60.692-16.011,90.393-53.997
				c-28.543,40.006-82.306,62.215-85.285,63.425C145.864,220.393,155.168,224.294,166.566,222.607z"/>
			<path fill-rule="evenodd" clip-rule="evenodd" fill="#9CCA3C" d="M158.945,160.841c23.812-3.535,43.73-32.646,47.965-60.699
				c-20.578,21.881-48.019,13.574-64.299,26.477c-7.486,5.926-9.539,13.718-7.696,20.406c2.429-0.622,46.373-12.237,69.063-41.255
				c-21.807,30.566-62.885,47.536-65.156,48.458C143.131,159.149,150.236,162.135,158.945,160.841z"/>
			<path fill-rule="evenodd" clip-rule="evenodd" fill="#9CCA3C" d="M151.331,113.005c16.457-2.447,30.22-22.569,33.151-41.959
				c-14.224,15.128-33.195,9.384-44.443,18.302c-5.172,4.096-6.592,9.484-5.316,14.101c1.678-0.427,32.048-8.451,47.734-28.513
				c-15.076,21.127-43.463,32.853-45.039,33.491C140.398,111.835,145.313,113.894,151.331,113.005z"/>
		</g>
		<path fill-rule="evenodd" clip-rule="evenodd" fill="#9CCA3C" d="M146.7,67.794c6.243-20.172-7.856-46.771-27.005-60.555
			c8.516,24.434-7.824,43.086-4.346,60.777c1.592,8.13,6.586,12.653,12.213,13.673c0.44-2.147,8.199-41.271-4.802-70.034
			c14.47,28.63,11.736,67.476,11.569,69.624C139.572,79.698,144.418,75.175,146.7,67.794z"/>
	</g>
</g>
</svg>
