<?xml version="1.0" encoding="utf-8"?>
<!-- Generator: Adobe Illustrator 16.0.0, SVG Export Plug-In . SVG Version: 6.00 Build 0)  -->
<!DOCTYPE svg PUBLIC "-//W3C//DTD SVG 1.1//EN" "http://www.w3.org/Graphics/SVG/1.1/DTD/svg11.dtd">
<svg version="1.1" id="Layer_1" xmlns="http://www.w3.org/2000/svg" xmlns:xlink="http://www.w3.org/1999/xlink" x="0px" y="0px"
	 width="257px" height="298px" viewBox="0 0 257 298" enable-background="new 0 0 257 298" xml:space="preserve">
<path fill="#FDC20F" d="M83.939,209.24l-6.82-28.476c-0.378-2-1.895-3.498-3.41-3.498H21.417c-1.516,0-3.031,1.498-3.41,3.498
	l-7.2,29.477c-0.378,1.499,0,2.997,0.379,3.995c0.758,0.999,1.895,1.999,3.031,1.999h66.311l0,0c1.895,0,3.411-1.999,3.411-4.496
	C84.318,210.739,84.318,210.241,83.939,209.24z"/>
<path fill="#FCB017" d="M10.808,210.241c-0.378,1.499,0,2.997,0.379,3.995c0.758,0.999,1.895,1.999,3.031,1.999h66.311l0,0
	c1.895,0,3.411-1.999,3.411-4.496c0-1.001,0-1.499-0.379-2.5l-6.82-28.476"/>
<path fill="#F8971D" d="M10.808,210.241c-0.378,1.499,0,2.997,0.379,3.995c0.758,0.999,1.895,1.999,3.031,1.999h66.311l0,0
	c1.895,0,3.411-1.999,3.411-4.496c0-1.001,0-1.499-0.379-2.5"/>
<path fill="#FEDA00" d="M77.119,181.265c-0.378-2-1.895-3.498-3.41-3.498H21.417c-1.516,0-3.031,1.498-3.41,3.498"/>
<g>
	<path fill="#FDC20F" d="M164.648,209.24l-6.822-28.476c-0.378-2-1.894-3.498-3.409-3.498h-52.291c-1.515,0-3.031,1.498-3.41,3.498
		l-7.2,28.976c-0.378,1.499,0,2.997,0.379,3.995c0.757,1,1.894,1.999,3.031,1.999h66.311l0,0c1.893,0,3.41-1.999,3.41-4.495
		C165.025,210.739,165.025,210.241,164.648,209.24z"/>
</g>
<path fill="#FCB017" d="M91.517,210.241c-0.378,1.499,0,2.997,0.379,3.995c0.757,0.999,1.894,1.999,3.031,1.999h66.311l0,0
	c1.893,0,3.41-1.999,3.41-4.496c0-1.001,0-1.499-0.38-2.5l-6.82-28.476"/>
<path fill="#F8971D" d="M91.517,210.241c-0.378,1.499,0,2.997,0.379,3.995c0.757,0.999,1.894,1.999,3.031,1.999h66.311l0,0
	c1.893,0,3.41-1.999,3.41-4.496c0-1.001,0-1.499-0.38-2.5"/>
<path fill="#FEDA00" d="M157.826,181.265c-0.378-2-1.894-3.498-3.409-3.498h-52.291c-1.515,0-3.031,1.498-3.41,3.498"/>
<g>
	<path fill="#FDC20F" d="M245.357,209.24l-6.821-28.476c-0.377-2-1.895-3.498-3.41-3.498h-52.289c-1.518,0-3.033,1.498-3.412,3.498
		l-7.199,28.976c-0.378,1.499,0,2.997,0.38,3.995c0.757,1,1.895,1.999,3.032,1.999h66.31l0,0c1.896,0,3.41-1.999,3.41-4.495
		C245.737,210.739,245.737,210.241,245.357,209.24z"/>
</g>
<path fill="#FCB017" d="M172.226,210.241c-0.378,1.499,0,2.997,0.38,3.995c0.757,0.999,1.895,1.999,3.032,1.999h66.31l0,0
	c1.896,0,3.41-1.999,3.41-4.496c0-1.001,0-1.499-0.379-2.5l-6.819-28.476"/>
<path fill="#F8971D" d="M172.226,210.241c-0.378,1.499,0,2.997,0.38,3.995c0.757,0.999,1.895,1.999,3.032,1.999h66.31l0,0
	c1.896,0,3.41-1.999,3.41-4.496c0-1.001,0-1.499-0.379-2.5"/>
<path fill="#FEDA00" d="M238.536,181.265c-0.377-2-1.895-3.498-3.41-3.498h-52.289c-1.518,0-3.033,1.498-3.412,3.498"/>
<g>
	<path fill="#FDC20F" d="M124.483,157.784l-6.82-28.476c-0.379-2-1.895-3.498-3.411-3.498H61.583c-1.516,0-3.031,1.498-3.41,3.498
		l-6.82,29.475c-0.379,1.499,0,2.996,0.378,3.996c0.757,1.001,1.895,1.998,3.031,1.998h66.31l0,0c1.895,0,3.411-1.998,3.411-4.495
		C124.861,159.283,124.483,158.783,124.483,157.784z"/>
</g>
<path fill="#FCB017" d="M51.353,158.783c-0.379,1.499,0,2.996,0.378,3.996c0.757,1.001,1.895,1.998,3.031,1.998h66.31l0,0
	c1.895,0,3.411-1.998,3.411-4.495c0-0.998,0-1.499-0.379-2.498l-6.82-28.476"/>
<path fill="#F8971D" d="M51.353,158.783c-0.379,1.499,0,2.996,0.378,3.996c0.757,1.001,1.895,1.998,3.031,1.998h66.31l0,0
	c1.895,0,3.411-1.998,3.411-4.495c0-0.998,0-1.499-0.379-2.498"/>
<path fill="#FEDA00" d="M117.284,129.806c-0.379-1.996-1.895-3.498-3.411-3.498h-52.29c-1.516,0-3.031,1.501-3.41,3.498"/>
<g>
	<path fill="#FDC20F" d="M204.813,157.784l-6.82-28.476c-0.379-2-1.894-3.498-3.409-3.498h-52.292c-1.515,0-3.03,1.498-3.41,3.498
		l-6.819,29.475c-0.38,1.499,0,2.996,0.379,3.996c0.758,1.001,1.895,1.998,3.031,1.998h66.31l0,0c1.895,0,3.41-1.998,3.41-4.495
		C205.571,159.283,205.191,158.783,204.813,157.784z"/>
</g>
<path fill="#FCB017" d="M132.062,158.783c-0.38,1.499,0,2.996,0.379,3.996c0.758,1.001,1.895,1.998,3.031,1.998h66.31l0,0
	c1.895,0,3.41-1.998,3.41-4.495c0-0.998,0-1.499-0.379-2.498l-6.82-28.476"/>
<path fill="#F8971D" d="M132.062,158.783c-0.38,1.499,0,2.996,0.379,3.996c0.758,1.001,1.895,1.998,3.031,1.998h66.31l0,0
	c1.895,0,3.41-1.998,3.41-4.495c0-0.998,0-1.499-0.379-2.498"/>
<path fill="#FEDA00" d="M197.992,129.806c-0.379-1.996-1.894-3.498-3.409-3.498h-52.292c-1.515,0-3.03,1.501-3.41,3.498"/>
<g>
	<path fill="#FDC20F" d="M164.648,107.824l-6.822-28.475c-0.378-1.999-1.894-3.497-3.409-3.497h-52.291
		c-1.515,0-3.031,1.498-3.41,3.497l-7.2,29.475c-0.378,1.499,0,2.999,0.379,3.997c0.757,1,1.894,2,3.031,2h66.311l0,0
		c1.893,0,3.41-2,3.41-4.497C165.025,109.324,165.025,108.824,164.648,107.824z"/>
</g>
<path fill="#FCB017" d="M91.517,108.824c-0.378,1.499,0,2.999,0.379,3.997c0.757,1,1.894,2,3.031,2h66.311l0,0
	c1.893,0,3.41-2,3.41-4.497c0-0.999,0-1.499-0.38-2.499l-6.82-28.475"/>
<path fill="#F8971D" d="M91.517,108.824c-0.378,1.499,0,2.999,0.379,3.997c0.757,1,1.894,2,3.031,2h66.311l0,0
	c1.893,0,3.41-2,3.41-4.497c0-0.999,0-1.499-0.38-2.499"/>
<path fill="#FEDA00" d="M157.826,79.349c-0.378-1.999-1.894-3.497-3.409-3.497h-52.291c-1.515,0-3.031,1.498-3.41,3.497"/>
<g>
	<path fill="#FEDA00" d="M80.528,46.876c0,19.484-0.757,35.47-1.516,35.47c-0.757,0-1.515-15.986-1.515-35.47
		s0.757-35.471,1.515-35.471C80.149,11.405,80.528,27.392,80.528,46.876z"/>
	<path fill="#FEDA00" d="M79.392,48.375c-14.777,0-26.903-1-26.903-1.998c0-1,12.126-1.999,26.903-1.999
		c14.778,0,26.904,0.999,26.904,1.999C106.295,47.875,94.17,48.375,79.392,48.375z"/>
</g>
<g>
	<path fill="#FCB017" d="M170.318,23.653c5.644-7.387,10.458-13.057,10.755-12.665c0.293,0.392-4.042,6.697-9.687,14.084
		c-5.645,7.386-10.458,13.056-10.754,12.664C160.339,37.345,164.674,31.04,170.318,23.653z"/>
	<path fill="#FCB017" d="M170.331,25.394c-5.683-7.494-9.851-13.489-9.472-13.988s4.926,5.496,10.608,12.49
		c5.685,7.494,9.852,13.489,9.474,13.988C180.563,38.383,176.015,32.887,170.331,25.394z"/>
</g>
<g>
	<ellipse fill="#F8971D" cx="205.191" cy="106.326" rx="0.38" ry="13.988"/>
	<path fill="#F8971D" d="M205.191,107.326c-5.684,0-10.608-0.5-10.608-0.5c0-0.499,4.925-0.499,10.608-0.499
		c5.685,0,10.61,0.499,10.61,0.499S211.255,107.326,205.191,107.326z"/>
</g>
<rect x="-12" y="238" fill="none" width="257.643" height="152"/>
<text transform="matrix(1 0 0 1 34.0063 288.1113)"><tspan x="0" y="0" font-family="'Antique'" font-size="72"> </tspan><tspan x="33.407" y="0" font-family="'Amazone'" font-size="72">Kim</tspan></text>
</svg>
