<?xml version="1.0" encoding="utf-8"?>
<!-- Generator: Adobe Illustrator 16.0.0, SVG Export Plug-In . SVG Version: 6.00 Build 0)  -->
<!DOCTYPE svg PUBLIC "-//W3C//DTD SVG 1.1//EN" "http://www.w3.org/Graphics/SVG/1.1/DTD/svg11.dtd">
<svg version="1.1" xmlns="http://www.w3.org/2000/svg" xmlns:xlink="http://www.w3.org/1999/xlink" x="0px" y="0px" width="257px"
	 height="298px" viewBox="0 0 257 298" enable-background="new 0 0 257 298" xml:space="preserve">
<g id="Layer_2">
	<g>
		<g>
			<path fill="#E93128" d="M82.012,57.318c4.009,1.614,2.828,23.779,2.408,27.61c-0.755,6.883-2.902,13.102-6.323,19.151
				c-9.26,16.373-23.688,30.942-27.035,49.965c-2.951,16.751,2.981,36.03,16.042,47.687c14.694,13.112,35.148,20.041,54.905,20.261
				c17.807,0.199,36.991-1.583,52.061-11.675c9.725-6.521,20.824-17.901,25.963-28.357c7.409-15.084,10.096-31.432,9.036-48.035
				c-0.746-11.693-2.973-25.238-8.447-35.714c-5.764-11.022-10.051-19.597-24.329-29.449c4.124,2.846-0.181,17.245-1.531,21.063
				c-2.664,7.546-8.866,14.506-16.883,16.848c7.326-15.018,4.881-29.619-0.077-45.03c-7.736-24.06-23.32-45.396-50.581-49.632
				c26.554,18.469,26.918,67.877-1.095,83.26C108.137,67.84,82.021,57.325,82.012,57.318z"/>
			<path fill="#F37D22" d="M159.369,120.129c-2.479,0.998-1.75,14.712-1.491,17.082c0.47,4.258,1.798,8.103,3.911,11.846
				c5.729,10.128,14.656,19.14,16.728,30.911c1.827,10.363-1.849,22.286-9.929,29.495c-9.091,8.113-21.741,12.402-33.962,12.534
				c-11.014,0.127-22.88-0.977-32.203-7.22c-6.021-4.034-12.887-11.076-16.063-17.543c-4.585-9.334-6.245-19.44-5.591-29.715
				c0.461-7.233,1.839-15.613,5.224-22.09c3.57-6.823,6.22-12.13,15.049-18.221c-2.544,1.763,0.116,10.671,0.946,13.031
				c1.649,4.667,5.49,8.975,10.447,10.423c-4.531-9.288-3.017-18.325,0.049-27.857c4.788-14.882,14.425-28.083,31.292-30.704
				c-16.428,11.426-16.654,41.993,0.677,51.508C143.207,126.64,159.361,120.129,159.369,120.129z"/>
			<path fill="#FCC317" d="M112.548,162.548c1.451,0.582,1.022,8.582,0.87,9.969c-0.272,2.487-1.048,4.729-2.28,6.914
				c-3.347,5.912-8.553,11.168-9.763,18.04c-1.064,6.045,1.074,13.006,5.791,17.217c5.31,4.732,12.687,7.234,19.823,7.312
				c6.429,0.075,13.358-0.567,18.796-4.214c3.511-2.353,7.518-6.46,9.374-10.235c2.679-5.445,3.646-11.349,3.261-17.344
				c-0.27-4.221-1.074-9.11-3.051-12.892c-2.081-3.98-3.631-7.078-8.777-10.631c1.484,1.024-0.068,6.222-0.553,7.602
				c-0.961,2.725-3.206,5.236-6.1,6.081c2.649-5.421,1.762-10.689-0.029-16.252c-2.787-8.688-8.421-16.39-18.258-17.923
				c9.589,6.67,9.721,24.508-0.399,30.06C121.982,166.344,112.551,162.548,112.548,162.548z"/>
		</g>
	</g>
</g>
<g id="Layer_3">
	<rect x="0.983" y="239" fill="none" width="257.643" height="152"/>
	<text transform="matrix(1 0 0 1 63.4824 284.8633)" font-family="'Amazone'" font-size="72">Hỏa</text>
</g>
</svg>
