<?xml version="1.0" encoding="utf-8"?>
<!-- Generator: Adobe Illustrator 16.0.0, SVG Export Plug-In . SVG Version: 6.00 Build 0)  -->
<!DOCTYPE svg PUBLIC "-//W3C//DTD SVG 1.1//EN" "http://www.w3.org/Graphics/SVG/1.1/DTD/svg11.dtd">
<svg version="1.1" xmlns="http://www.w3.org/2000/svg" xmlns:xlink="http://www.w3.org/1999/xlink" x="0px" y="0px" width="257px"
	 height="298px" viewBox="0 0 257 298" enable-background="new 0 0 257 298" xml:space="preserve">
<g id="Layer_3">
	<rect x="0.983" y="230" fill="none" width="257.643" height="152"/>
	<text transform="matrix(1 0 0 1 52.3379 275.8633)" font-family="'Amazone'" font-size="72">Thủy</text>
</g>
<g id="Layer_5">
	<g>
		
			<radialGradient id="SVGID_1_" cx="485.7227" cy="-3153.9961" r="248.3864" gradientTransform="matrix(0.4394 0 0 0.1891 -83.8085 723.8385)" gradientUnits="userSpaceOnUse">
			<stop  offset="0.3636" style="stop-color:#FFFFFF"/>
			<stop  offset="0.4232" style="stop-color:#C6E8F9"/>
			<stop  offset="0.5329" style="stop-color:#28C3F3"/>
			<stop  offset="0.5643" style="stop-color:#ADE0F9"/>
			<stop  offset="0.6991" style="stop-color:#2AACE3"/>
			<stop  offset="0.7273" style="stop-color:#C6E8F9"/>
			<stop  offset="0.7618" style="stop-color:#C6E8F9"/>
			<stop  offset="0.8056" style="stop-color:#29ABE2"/>
			<stop  offset="0.8558" style="stop-color:#29ABE2"/>
			<stop  offset="0.8715" style="stop-color:#A0DDF9"/>
			<stop  offset="0.9185" style="stop-color:#56C9F4"/>
			<stop  offset="0.9373" style="stop-color:#0BA3DD"/>
			<stop  offset="1" style="stop-color:#A0DDF9"/>
		</radialGradient>
		<path fill="url(#SVGID_1_)" d="M251.092,131.874c0,28.442-54.642,51.505-122.046,51.505S7,160.316,7,131.874
			c0-28.442,54.642-51.503,122.046-51.503S251.092,103.432,251.092,131.874z"/>
		<linearGradient id="SVGID_2_" gradientUnits="userSpaceOnUse" x1="9.6216" y1="191.1758" x2="159.1635" y2="191.1758">
			<stop  offset="0" style="stop-color:#C6E8F9"/>
			<stop  offset="0.3059" style="stop-color:#2AAEE4"/>
			<stop  offset="1" style="stop-color:#2E368F"/>
		</linearGradient>
		<path fill="url(#SVGID_2_)" d="M22.016,172.352c0,0,10.976,45.576,129.421,36.438C151.437,208.789,47.18,213.232,22.016,172.352z"
			/>
		<path fill="#FFFFFF" d="M88.388,63.694c0,0,73.421-7.811,121.35,10.938C209.738,74.633,161.47,48.851,88.388,63.694z"/>
		<path fill="#FFFFFF" d="M50.731,87.169c0,0,68.067-21.156,113.354-12.767C164.085,74.402,118.23,59.529,50.731,87.169z"/>
		<linearGradient id="SVGID_3_" gradientUnits="userSpaceOnUse" x1="13.9209" y1="161.3501" x2="122.3845" y2="161.3501">
			<stop  offset="0" style="stop-color:#C6E8F9"/>
			<stop  offset="0.2472" style="stop-color:#2AAEE4"/>
			<stop  offset="0.573" style="stop-color:#0A67B2"/>
			<stop  offset="0.5797" style="stop-color:#126AB3"/>
			<stop  offset="0.6662" style="stop-color:#4489C8"/>
			<stop  offset="0.7471" style="stop-color:#61A7DB"/>
			<stop  offset="0.82" style="stop-color:#76BEE9"/>
			<stop  offset="0.8824" style="stop-color:#84CEF2"/>
			<stop  offset="0.927" style="stop-color:#89D5F7"/>
		</linearGradient>
		<path fill="url(#SVGID_3_)" d="M8.447,125.641c0,0,9.805,68.144,108.677,71.419C117.124,197.06,24.478,187.726,8.447,125.641z"/>
		<path fill="#FFFFFF" d="M237.896,104.724c0,0-4.777-28.979-103.38-38.1C134.516,66.624,225.979,67.087,237.896,104.724z"/>
		<path fill="#FFFFFF" d="M14.485,107.625c0,0,23.271-34.807,97.148-40.75c0,0-41.371-1.7-66.859,13.585
			C19.287,95.739,14.485,107.625,14.485,107.625z"/>
		<linearGradient id="SVGID_4_" gradientUnits="userSpaceOnUse" x1="250.6455" y1="183.061" x2="136.9159" y2="183.061">
			<stop  offset="0" style="stop-color:#FFFFFF"/>
			<stop  offset="0.6067" style="stop-color:#2AAEE4"/>
			<stop  offset="1" style="stop-color:#2E368F"/>
		</linearGradient>
		<path fill="url(#SVGID_4_)" d="M248.386,157.02c0,0-24.656,39.625-104.633,52.083c0,0,44.869-1.529,72.246-20.17
			C243.375,170.294,248.386,157.02,248.386,157.02z"/>
		<linearGradient id="SVGID_5_" gradientUnits="userSpaceOnUse" x1="141.8047" y1="173.251" x2="234.0842" y2="173.251">
			<stop  offset="0" style="stop-color:#C6E8F9"/>
			<stop  offset="0.2472" style="stop-color:#2AAEE4"/>
			<stop  offset="0.573" style="stop-color:#0A67B2"/>
			<stop  offset="0.5797" style="stop-color:#126AB3"/>
			<stop  offset="0.6662" style="stop-color:#4489C8"/>
			<stop  offset="0.7471" style="stop-color:#61A7DB"/>
			<stop  offset="0.82" style="stop-color:#76BEE9"/>
			<stop  offset="0.8824" style="stop-color:#84CEF2"/>
			<stop  offset="0.927" style="stop-color:#89D5F7"/>
		</linearGradient>
		<path fill="url(#SVGID_5_)" d="M233.035,150.064c0,0-22.63,40.138-89.106,46.341c0,0,30.394,1.637,61.851-17.991
			C228.914,163.978,233.035,150.064,233.035,150.064z"/>
		<linearGradient id="SVGID_6_" gradientUnits="userSpaceOnUse" x1="69.4082" y1="175.8931" x2="198.9503" y2="175.8931">
			<stop  offset="0" style="stop-color:#C6E8F9"/>
			<stop  offset="0.1966" style="stop-color:#2AAEE4"/>
			<stop  offset="0.4775" style="stop-color:#1281C5"/>
			<stop  offset="0.7921" style="stop-color:#2AACE3"/>
			<stop  offset="1" style="stop-color:#C6E8F9"/>
		</linearGradient>
		<path fill="url(#SVGID_6_)" d="M69.676,173.698c0,0,61.688,17.829,128.546-5.943C198.222,167.755,130.625,200.017,69.676,173.698z
			"/>
		
			<linearGradient id="SVGID_7_" gradientUnits="userSpaceOnUse" x1="62.0308" y1="161.9453" x2="187.2813" y2="161.9453" gradientTransform="matrix(0.9999 0.0168 -0.0168 0.9999 7.7447 -2.2623)">
			<stop  offset="0" style="stop-color:#28B1E6"/>
			<stop  offset="0.5643" style="stop-color:#FFFFFF"/>
			<stop  offset="1" style="stop-color:#23B7EB"/>
		</linearGradient>
		<path fill="url(#SVGID_7_)" d="M67.125,156.21c0,0,59.957,22.998,125.307-2.038C192.432,154.172,126.29,189.028,67.125,156.21z"/>
		
			<linearGradient id="SVGID_8_" gradientUnits="userSpaceOnUse" x1="75.1401" y1="155.0435" x2="171.0146" y2="155.0435" gradientTransform="matrix(0.9999 0.0168 -0.0168 0.9999 7.7447 -2.2623)">
			<stop  offset="0" style="stop-color:#28B1E6"/>
			<stop  offset="0.5643" style="stop-color:#FFFFFF"/>
			<stop  offset="1" style="stop-color:#23B7EB"/>
		</linearGradient>
		<path fill="url(#SVGID_8_)" d="M80.331,150.585c0,0,45.896,17.605,95.918-1.561C176.249,149.024,125.619,175.705,80.331,150.585z"
			/>
		<g>
			<linearGradient id="SVGID_9_" gradientUnits="userSpaceOnUse" x1="129.0039" y1="69.0913" x2="126.4036" y2="177.0325">
				<stop  offset="0.0031" style="stop-color:#7DD2F5"/>
				<stop  offset="0.1191" style="stop-color:#E7F6FC"/>
				<stop  offset="0.3026" style="stop-color:#FFFFFF"/>
				<stop  offset="0.3257" style="stop-color:#C6E8F9"/>
				<stop  offset="0.3421" style="stop-color:#ADE0F9"/>
				<stop  offset="0.3947" style="stop-color:#E2F4FD"/>
				<stop  offset="0.5691" style="stop-color:#E2F4FD"/>
				<stop  offset="0.6382" style="stop-color:#C1E7FA"/>
				<stop  offset="0.7204" style="stop-color:#C9EAFB"/>
				<stop  offset="0.8257" style="stop-color:#83D2F6"/>
				<stop  offset="0.852" style="stop-color:#78CFF5"/>
				<stop  offset="0.9342" style="stop-color:#C6E8F9"/>
			</linearGradient>
			<ellipse fill="url(#SVGID_9_)" cx="127.659" cy="124.903" rx="93.965" ry="46.901"/>
			
				<radialGradient id="SVGID_10_" cx="486.8574" cy="-519.0645" r="76.4275" gradientTransform="matrix(0.4394 0 0 0.3048 -83.8085 285.0142)" gradientUnits="userSpaceOnUse">
				<stop  offset="0.7492" style="stop-color:#0C6DB6"/>
				<stop  offset="0.8783" style="stop-color:#28AFE5"/>
				<stop  offset="0.9539" style="stop-color:#C6E8F9"/>
			</radialGradient>
			<path fill="url(#SVGID_10_)" d="M144.894,113.77c4.09,2.285,6.658,5.577,6.658,9.232c0,6.907-9.158,12.506-20.455,12.506
				c-11.296,0-20.454-5.599-20.454-12.506c0-3.655,2.568-6.947,6.66-9.232c-11.651,2.968-19.764,9.569-19.764,17.246
				c0,10.447,15.025,18.916,33.559,18.916c18.535,0,33.559-8.469,33.559-18.916C164.655,123.338,156.543,116.737,144.894,113.77z"/>
			<g>
				<path fill="#FFFFFF" d="M99.125,127.63c0-0.332,0.026-0.666,0.066-0.994c-0.158-0.646-0.25-1.303-0.25-1.974
					c0-2.376,1.04-4.626,2.887-6.628c-3.525,2.518-5.613,5.632-5.613,9.005c0,6.766,8.377,12.492,19.957,14.467
					C106.127,139.13,99.125,133.813,99.125,127.63z"/>
			</g>
			<g>
				<linearGradient id="SVGID_11_" gradientUnits="userSpaceOnUse" x1="143.3545" y1="132.7798" x2="143.0927" y2="115.8102">
					<stop  offset="0.4046" style="stop-color:#2E368F"/>
					<stop  offset="0.8059" style="stop-color:#28AFE5"/>
					<stop  offset="0.9868" style="stop-color:#C6E8F9"/>
				</linearGradient>
				<path fill="url(#SVGID_11_)" d="M147.407,124.313c0-0.184-0.018-0.37-0.04-0.556c0.093-0.361,0.146-0.731,0.146-1.103
					c0-1.333-0.607-2.594-1.685-3.717c2.058,1.411,3.276,3.157,3.276,5.044c0,3.795-4.891,7.004-11.647,8.111
					C143.319,130.76,147.407,127.778,147.407,124.313z"/>
			</g>
			<linearGradient id="SVGID_12_" gradientUnits="userSpaceOnUse" x1="143.0088" y1="150.8843" x2="156.3895" y2="180.8791">
				<stop  offset="0" style="stop-color:#C6E8F9"/>
				<stop  offset="0.7434" style="stop-color:#2AACE3"/>
				<stop  offset="1" style="stop-color:#127DC2"/>
			</linearGradient>
			<path fill="url(#SVGID_12_)" d="M209.791,102.105c7.535,6.748,11.833,14.521,11.833,22.797c0,25.903-42.068,46.901-93.965,46.901
				c-33.347,0-62.634-8.669-79.312-21.74c16.053,14.381,46.814,24.107,82.133,24.107c51.896,0,93.965-21.002,93.965-46.905
				C224.445,118.007,219.069,109.376,209.791,102.105z"/>
			<linearGradient id="SVGID_13_" gradientUnits="userSpaceOnUse" x1="211.8369" y1="111.5308" x2="35.2952" y2="113.9657">
				<stop  offset="0" style="stop-color:#C6E8F9"/>
				<stop  offset="0.2978" style="stop-color:#FFFFFF"/>
				<stop  offset="0.8539" style="stop-color:#C6E8F9"/>
				<stop  offset="1" style="stop-color:#2AACE3"/>
			</linearGradient>
			<path fill="url(#SVGID_13_)" d="M35.457,126.477c0-25.904,42.07-46.903,93.965-46.903c34.64,0,64.896,9.355,81.192,23.283
				C194.805,88.065,163.589,78,127.659,78c-51.895,0-93.965,21-93.965,46.903c0,8.613,4.657,16.681,12.774,23.619
				C39.443,141.953,35.457,134.444,35.457,126.477z"/>
			<linearGradient id="SVGID_14_" gradientUnits="userSpaceOnUse" x1="76.0874" y1="131.6177" x2="201.1956" y2="135.5052">
				<stop  offset="0" style="stop-color:#C6E8F9"/>
				<stop  offset="0.232" style="stop-color:#2AACE3"/>
				<stop  offset="0.348" style="stop-color:#0C75BC"/>
				<stop  offset="0.6283" style="stop-color:#2E368F"/>
				<stop  offset="1" style="stop-color:#2AACE3"/>
			</linearGradient>
			<path fill="url(#SVGID_14_)" d="M132.949,158.405c-41.43,0-75.016-16.767-75.016-37.444c0-6.85,3.687-13.27,10.12-18.792
				c-9.663,6.304-15.409,14.183-15.409,22.734c0,20.678,33.585,37.445,75.015,37.445c27.708,0,51.904-7.503,64.895-18.656
				C178.845,152.634,157.249,158.405,132.949,158.405z"/>
			<linearGradient id="SVGID_15_" gradientUnits="userSpaceOnUse" x1="39.3359" y1="139.1602" x2="212.4248" y2="139.1602">
				<stop  offset="0.0056" style="stop-color:#29ABE2"/>
				<stop  offset="0.0084" style="stop-color:#2CABE2"/>
				<stop  offset="0.1388" style="stop-color:#68BBE8"/>
				<stop  offset="0.2732" style="stop-color:#8BC9EE"/>
				<stop  offset="0.4138" style="stop-color:#A5D6F2"/>
				<stop  offset="0.5612" style="stop-color:#B8DFF6"/>
				<stop  offset="0.7199" style="stop-color:#C3E6F8"/>
				<stop  offset="0.9101" style="stop-color:#C6E8F9"/>
			</linearGradient>
			<path fill="url(#SVGID_15_)" d="M129.775,165.836c-48.78,0-88.324-19.739-88.324-44.088c0-4.313,1.246-8.481,3.558-12.419
				c-3.664,4.845-5.673,10.091-5.673,15.574c0,24.348,39.543,44.088,88.323,44.088c40.141,0,74.023-13.368,84.766-31.669
				C199.819,153.984,167.573,165.836,129.775,165.836z"/>
			<linearGradient id="SVGID_16_" gradientUnits="userSpaceOnUse" x1="44.4092" y1="133.8096" x2="224.5009" y2="132.1097">
				<stop  offset="0" style="stop-color:#C6E8F9"/>
				<stop  offset="0.3059" style="stop-color:#2AAEE4"/>
				<stop  offset="0.4295" style="stop-color:#2AACE3"/>
				<stop  offset="0.5298" style="stop-color:#C6E8F9"/>
				<stop  offset="0.8427" style="stop-color:#2AACE3"/>
				<stop  offset="1" style="stop-color:#2E368F"/>
			</linearGradient>
			<path fill="url(#SVGID_16_)" d="M192.333,98.331c10.558,6.946,16.826,15.607,16.826,24.995c0,22.855-37.119,41.385-82.91,41.385
				c-24.778,0-47.013-5.427-62.206-14.03c15.14,9.96,39.105,16.393,66.084,16.393c45.79,0,82.911-18.529,82.911-41.383
				C213.038,115.203,205.216,105.626,192.333,98.331z"/>
			<linearGradient id="SVGID_17_" gradientUnits="userSpaceOnUse" x1="141.6221" y1="79.4478" x2="141.6221" y2="147.4348">
				<stop  offset="0" style="stop-color:#C6E8F9"/>
				<stop  offset="0.1404" style="stop-color:#95D7F7"/>
				<stop  offset="0.3146" style="stop-color:#66CBF4"/>
				<stop  offset="0.5618" style="stop-color:#FFFFFF"/>
				<stop  offset="0.7809" style="stop-color:#209FDA"/>
				<stop  offset="0.9326" style="stop-color:#C6E8F9"/>
			</linearGradient>
			<path fill="url(#SVGID_17_)" d="M139.852,95.337c-23.125,0-42.864,6.977-50.637,16.798c9.937-5.669,24.8-8.812,41.408-9.267
				c40.404-1.108,54.179,11.679,54.179,26.087c0,3.271-1.253,6.4-3.54,9.283c7.965-4.538,12.769-10.407,12.769-16.817
				C194.029,107.019,169.773,95.337,139.852,95.337z"/>
			<linearGradient id="SVGID_18_" gradientUnits="userSpaceOnUse" x1="121.6753" y1="83.5273" x2="121.6753" y2="148.7944">
				<stop  offset="0" style="stop-color:#C6E8F9"/>
				<stop  offset="0.3059" style="stop-color:#95D7F7"/>
				<stop  offset="0.427" style="stop-color:#6ECEF5"/>
				<stop  offset="0.5449" style="stop-color:#C6E8F9"/>
				<stop  offset="0.648" style="stop-color:#5FCAF4"/>
				<stop  offset="0.8276" style="stop-color:#1A8DCD"/>
				<stop  offset="0.8652" style="stop-color:#2AACE3"/>
				<stop  offset="0.9342" style="stop-color:#C6E8F9"/>
			</linearGradient>
			<path fill="url(#SVGID_18_)" d="M86.419,132.781c0-16.324,26.514-29.556,59.222-29.556c10.646,0,20.637,1.4,29.271,3.856
				c-10.814-7.13-27.954-11.742-47.254-11.742c-32.708,0-59.222,13.236-59.222,29.563c0,11.011,12.063,20.612,29.952,25.702
				C90.878,145.65,86.419,139.477,86.419,132.781z"/>
			<path fill="#FFFFFF" d="M82.453,130.814c0-16.328,26.514-29.565,59.223-29.565c10.554,0,20.462,1.385,29.044,3.798
				c-9.734-3.503-21.682-5.567-34.599-5.567c-32.708,0-59.222,13.235-59.222,29.562c0,11.012,12.063,20.614,29.952,25.702
				c-0.024-0.016-0.045-0.031-0.069-0.047C92.038,149.32,82.453,140.625,82.453,130.814z"/>
			<linearGradient id="SVGID_19_" gradientUnits="userSpaceOnUse" x1="56.0088" y1="122.6895" x2="173.0986" y2="122.6895">
				<stop  offset="0.0031" style="stop-color:#7DD2F5"/>
				<stop  offset="0.1191" style="stop-color:#E7F6FC"/>
				<stop  offset="0.3026" style="stop-color:#FFFFFF"/>
				<stop  offset="0.3257" style="stop-color:#C6E8F9"/>
				<stop  offset="0.3421" style="stop-color:#ADE0F9"/>
				<stop  offset="0.3947" style="stop-color:#E2F4FD"/>
				<stop  offset="0.5691" style="stop-color:#E2F4FD"/>
				<stop  offset="0.6382" style="stop-color:#C1E7FA"/>
				<stop  offset="0.7204" style="stop-color:#C9EAFB"/>
				<stop  offset="0.8257" style="stop-color:#83D2F6"/>
				<stop  offset="0.8933" style="stop-color:#6CBEEB"/>
				<stop  offset="1" style="stop-color:#C6E8F9"/>
			</linearGradient>
			<path fill="url(#SVGID_19_)" d="M62.939,126.75c0-17.895,33.091-32.398,73.912-32.398c13.174,0,25.539,1.514,36.248,4.16
				c-12.146-3.838-27.057-6.104-43.179-6.104c-40.821,0-73.911,14.504-73.911,32.396c0,12.068,15.055,22.593,37.38,28.167
				c-0.029-0.021-0.056-0.037-0.086-0.054C74.9,147.029,62.939,137.501,62.939,126.75z"/>
			<linearGradient id="SVGID_20_" gradientUnits="userSpaceOnUse" x1="54.0923" y1="113.4829" x2="207.4121" y2="113.4829">
				<stop  offset="0" style="stop-color:#C6E8F9"/>
				<stop  offset="0.7434" style="stop-color:#2AACE3"/>
				<stop  offset="1" style="stop-color:#2E368F"/>
			</linearGradient>
			<path fill="url(#SVGID_20_)" d="M127.659,85.092c-33.112,0-61.508,10.074-73.567,24.413
				c12.763-13.495,40.273-22.836,72.156-22.836c44.045,0,79.752,17.823,79.752,39.808c0,5.462-2.203,10.663-6.188,15.397
				c4.87-5.146,7.599-10.9,7.599-16.971C207.412,102.915,171.706,85.092,127.659,85.092z"/>
			<path fill="#E2F4FD" d="M126.759,86.216c-33.111,0-61.507,10.07-73.567,24.413c12.764-13.499,40.273-22.839,72.157-22.839
				c44.047,0,79.752,17.823,79.752,39.809c0,5.459-2.203,10.662-6.186,15.396c4.87-5.147,7.597-10.899,7.597-16.97
				C206.512,104.037,170.806,86.216,126.759,86.216z"/>
			<linearGradient id="SVGID_21_" gradientUnits="userSpaceOnUse" x1="142.0137" y1="151.5156" x2="142.0137" y2="99.845">
				<stop  offset="0.3158" style="stop-color:#C6E8F9"/>
				<stop  offset="0.625" style="stop-color:#2AACE3"/>
				<stop  offset="0.6741" style="stop-color:#2BAAE1"/>
				<stop  offset="0.7258" style="stop-color:#2BA2DA"/>
				<stop  offset="0.7787" style="stop-color:#2C95D0"/>
				<stop  offset="0.8325" style="stop-color:#2E84C3"/>
				<stop  offset="0.8868" style="stop-color:#2E6FB3"/>
				<stop  offset="0.9417" style="stop-color:#2E57A2"/>
				<stop  offset="0.9961" style="stop-color:#2E3990"/>
				<stop  offset="1" style="stop-color:#2E368F"/>
			</linearGradient>
			<path fill="url(#SVGID_21_)" d="M134.414,102.435c-12.507,0-23.885,2.52-32.376,6.641c6.479-1.726,13.815-2.697,21.586-2.697
				c26.276,0,47.577,11.114,47.577,24.832c0,7.181-5.852,13.656-15.196,18.191c15.423-4.104,25.987-12.476,25.987-22.136
				C181.991,113.552,160.69,102.435,134.414,102.435z"/>
			<path fill="#FFFFFF" d="M178.13,129.076c0-10.876-17.658-19.69-39.442-19.69c-9.021,0-17.331,1.514-23.975,4.056
				c5.188-1.251,11-1.962,17.149-1.962c21.782,0,39.44,8.817,39.44,19.689c0,5.696-4.851,10.828-12.6,14.423
				c3.121-0.794,5.999-1.788,8.572-2.952C174.001,139.108,178.13,134.333,178.13,129.076z"/>
			<linearGradient id="SVGID_22_" gradientUnits="userSpaceOnUse" x1="55.4204" y1="113.4858" x2="205.6406" y2="113.4858">
				<stop  offset="0" style="stop-color:#C6E8F9"/>
				<stop  offset="0.1348" style="stop-color:#12C0F1"/>
				<stop  offset="0.3146" style="stop-color:#FFFFFF"/>
				<stop  offset="0.6461" style="stop-color:#FFFFFF"/>
				<stop  offset="0.8539" style="stop-color:#43C6F2"/>
				<stop  offset="1" style="stop-color:#C6E8F9"/>
			</linearGradient>
			<path fill="url(#SVGID_22_)" d="M128.248,84.981c-33.243,0-61.752,10.115-73.858,24.511
				c12.813-13.55,40.433-22.928,72.442-22.928c44.22,0,80.07,17.895,80.07,39.968c0,5.48-2.213,10.704-6.212,15.458
				c4.89-5.168,7.628-10.944,7.628-17.04C208.317,102.877,172.47,84.981,128.248,84.981z"/>
			<path fill="#1C9DD8" d="M137.288,148.147c4.25,0,8.281-0.49,11.912-1.361c3.537-1.432,6.429-3.291,8.397-5.429
				c-5.249,3.759-13.692,6.196-23.219,6.196c-3.096,0-6.075-0.262-8.869-0.738C129.105,147.668,133.09,148.147,137.288,148.147z"/>
			<path fill="#FFFFFF" d="M131.438,143.605c4.251,0,8.281-0.484,11.912-1.357c3.537-1.438,6.429-3.29,8.396-5.427
				c-5.248,3.755-13.69,6.195-23.217,6.195c-3.096,0-6.075-0.259-8.87-0.739C123.257,143.127,127.242,143.605,131.438,143.605z"/>
			<g>
				<linearGradient id="SVGID_23_" gradientUnits="userSpaceOnUse" x1="126.9307" y1="101.0376" x2="137.5068" y2="101.0376">
					<stop  offset="0.3553" style="stop-color:#E2F4FD"/>
					<stop  offset="0.7237" style="stop-color:#ADE0F9"/>
				</linearGradient>
				<path fill="url(#SVGID_23_)" d="M126.931,120.007c0,0,1.397,4.884,4.633,4.492c3.233-0.389,5.943-3.908,5.943-3.908
					s-2.884-0.78-2.973-4.885c-0.166-7.795,0.747-15.222,0.847-23.015c0.074-5.592,0.285-14.201-3.031-15.09
					c-2.186-0.589-4.109,4.297-4.021,11.53c0.088,7.229,1.051,21.887,0.875,26.772S126.931,120.007,126.931,120.007z"/>
				<linearGradient id="SVGID_24_" gradientUnits="userSpaceOnUse" x1="133.9268" y1="120.3594" x2="130.8024" y2="74.46">
					<stop  offset="0" style="stop-color:#C6E8F9"/>
					<stop  offset="0.8092" style="stop-color:#6DCEF4"/>
					<stop  offset="1" style="stop-color:#29ABE2"/>
				</linearGradient>
				<path fill="url(#SVGID_24_)" d="M132.088,81.898c0.611-0.587,2.359-0.194,2.185,14.658c-0.233,19.939-0.351,19.735-1.661,19.933
					c-1.311,0.194-2.272-8.989-2.447-21.692C129.99,82.094,131.475,82.488,132.088,81.898z"/>
				<ellipse fill="#2E368F" cx="131.871" cy="120.601" rx="4.061" ry="2.569"/>
				<path fill="#2E368F" d="M128.066,120.395c0,0,1.224-1.37,1.486-4.299c0.262-2.931-0.176-19.149-0.525-24.23
					c-0.349-5.083-0.961-10.748,1.486-13.091c0,0-1.835,1.951-1.224,13.677c0.611,11.728,2.185,22.666,0.438,26.186
					C127.979,122.157,128.066,120.395,128.066,120.395z"/>
				<path fill="#0C72BA" d="M129.639,118.053c0,0-0.086,1.758,2.098,1.758c2.186,0,2.1-3.128,2.1-3.128s-0.789,2.149-2.1,1.758
					C130.427,118.053,129.639,118.053,129.639,118.053z"/>
				<linearGradient id="SVGID_25_" gradientUnits="userSpaceOnUse" x1="131.583" y1="109.2266" x2="131.9697" y2="117.1635">
					<stop  offset="0" style="stop-color:#C6E8F9"/>
					<stop  offset="1" style="stop-color:#29ABE2"/>
				</linearGradient>
				<path fill="url(#SVGID_25_)" d="M130.514,108.085c0,0,0.021,0.21,0.043,0.589c0.075,1.215,0.183,4.146-0.217,7.422
					c0,0,1.66,3.13,3.146-0.193c0,0-1.485,1.757-2.185-1.563C130.602,111.018,130.514,108.085,130.514,108.085z"/>
				<linearGradient id="SVGID_26_" gradientUnits="userSpaceOnUse" x1="131.5176" y1="81.1406" x2="132.5424" y2="102.1779">
					<stop  offset="0" style="stop-color:#C6E8F9"/>
					<stop  offset="1" style="stop-color:#29ABE2"/>
				</linearGradient>
				<path fill="url(#SVGID_26_)" d="M130.427,103.004c0,0-1.485-17.978-0.087-20.324c1.396-2.344,3.67-1.369,4.02,2.15
					c0,0,0.175-7.424-2.446-6.842C129.29,78.576,128.066,83.659,130.427,103.004z"/>
				<path fill="#E2F4FD" d="M132.752,90.925c0,0,0.262,19.152-0.262,23.45c0,0,0.839-0.98,0.961-17.391
					c0.07-9.624-0.088-11.924-0.088-11.924S133.539,91.513,132.752,90.925z"/>
				<ellipse fill="#FFFFFF" cx="131.476" cy="86.003" rx="1.442" ry="3.517"/>
				<linearGradient id="SVGID_27_" gradientUnits="userSpaceOnUse" x1="129.7275" y1="119.2344" x2="133.6689" y2="119.2344">
					<stop  offset="0" style="stop-color:#C6E8F9"/>
					<stop  offset="1" style="stop-color:#29ABE2"/>
				</linearGradient>
				<path fill="url(#SVGID_27_)" d="M129.728,118.638c0,0,2.447,2.735,3.934-0.781c0,0,0.224,2.512-1.79,2.745
					C130.252,120.788,129.728,118.638,129.728,118.638z"/>
			</g>
			<path fill="#1C9DD8" d="M134.599,82.684c-0.815-3.078-2.728-4.151-4.435-2.4c1.045-1.072,1.467-2.441,2.874-1.614
				C134.379,79.46,134.141,80.952,134.599,82.684z"/>
			<path fill="#2E368F" d="M134.709,98.9c0,0-1.224,10.356-0.525,16.218c0.699,5.863,1.137,4.888,1.137,4.888
				s-1.659-1.955-1.748-7.818C133.485,106.327,134.709,98.9,134.709,98.9z"/>
			<linearGradient id="SVGID_28_" gradientUnits="userSpaceOnUse" x1="130.2979" y1="133.0708" x2="130.0403" y2="116.3775">
				<stop  offset="0.4046" style="stop-color:#2E368F"/>
				<stop  offset="0.8059" style="stop-color:#28AFE5"/>
				<stop  offset="0.9868" style="stop-color:#C6E8F9"/>
			</linearGradient>
			<path fill="url(#SVGID_28_)" d="M125.955,118.671c-0.208,0.786-0.158,1.675,0.367,2.622c0.911,1.646,2.197,2.204,3.332,2.483
				c1.332,0.323,2.681,0.671,4.02,0.433c1.106-0.198,3.416-0.506,4.198-2.57c0.942-2.485-0.691-5.738-1.709-6.223
				c0.697,0.33,1.414,0.311,2.109,0.625c1.888,0.852,3.534,1.823,5.079,4.527c0.721,1.259,1.307,2.898,0.67,4.75
				c-1.169,3.401-3.363,4.009-5.148,4.364c-1.16,0.231-2.321,0.474-3.481,0.707c-1.758,0.356-3.521,0.532-5.287,0.365
				c-3.855-0.361-8.043-0.49-11.682-3.709c-0.825-0.729-2.155-1.742-2.391-3.938c-0.154-1.428,0.188-2.76,0.644-3.696
				c0.544-1.112,2.267-3.251,3.011-2.922c-0.729,0.879-1.633,1.303-2.253,2.601c-1.32,2.767,0.645,5.052,1.667,5.959
				c0.795,0.708,1.623,1.207,2.466,1.526c0.682,0.254,1.666,0.045,2.285,0.66c-1.41-0.771-3.572-1.689-4.69-3.853
				c-1.474-2.855,1.202-4.956,2.143-5.849c1.053-1.003,2.18-1.661,3.31-2.042c1.53-0.515,3.291-0.995,4.834-0.698
				C128.252,115.099,126.616,116.151,125.955,118.671z"/>
		</g>
		<path fill="#FFFFFF" d="M132.24,83.041c0.267,0.528,0.485,1.207,0.62,2.007c0.459,2.657-0.135,5.639-1.326,6.662
			c-0.673,0.575-1.394,0.396-1.973-0.349c0.622,1.238,1.525,1.676,2.355,0.962c1.19-1.022,1.784-3.998,1.328-6.661
			C133.048,84.508,132.684,83.61,132.24,83.041z"/>
		<linearGradient id="SVGID_29_" gradientUnits="userSpaceOnUse" x1="123.5645" y1="125.8164" x2="128.0176" y2="125.8164">
			<stop  offset="0" style="stop-color:#C6E8F9"/>
			<stop  offset="0.8092" style="stop-color:#6DCEF4"/>
			<stop  offset="1" style="stop-color:#29ABE2"/>
		</linearGradient>
		<path fill="url(#SVGID_29_)" d="M123.564,124.635c0,0,1.764,1.71,4.453,1.555c0,0-0.084,0.808-0.756,0.808
			C126.589,126.998,123.985,126.289,123.564,124.635z"/>
		
			<linearGradient id="SVGID_30_" gradientUnits="userSpaceOnUse" x1="123.2725" y1="-176.0449" x2="127.7183" y2="-176.0449" gradientTransform="matrix(-0.998 0.0626 0.0293 0.4676 266.3331 199.9836)">
			<stop  offset="0" style="stop-color:#C6E8F9"/>
			<stop  offset="0.8092" style="stop-color:#6DCEF4"/>
			<stop  offset="1" style="stop-color:#29ABE2"/>
		</linearGradient>
		<path fill="url(#SVGID_30_)" d="M138.08,124.27c0,0-1.691,1.647-4.336,1.893c0,0,0.102,0.655,0.762,0.562
			C135.166,126.631,137.706,125.688,138.08,124.27z"/>
		<linearGradient id="SVGID_31_" gradientUnits="userSpaceOnUse" x1="128.1426" y1="133.0146" x2="134.1436" y2="133.0146">
			<stop  offset="0" style="stop-color:#C6E8F9"/>
			<stop  offset="1" style="stop-color:#29ABE2"/>
		</linearGradient>
		<path fill="url(#SVGID_31_)" d="M128.41,130.925c0,0,0.535,2.602-0.268,4.275c0,0,2.016,0.966,6.001-0.337
			c-0.052,0.009-0.169-0.852-0.192-0.982c-0.193-1.049-0.146-2.333,0.027-3.396C133.979,130.485,131.572,132.524,128.41,130.925z"/>
		<linearGradient id="SVGID_32_" gradientUnits="userSpaceOnUse" x1="127.9614" y1="138.6621" x2="134.3184" y2="138.6621">
			<stop  offset="0" style="stop-color:#C6E8F9"/>
			<stop  offset="0.8092" style="stop-color:#6DCEF4"/>
			<stop  offset="1" style="stop-color:#29ABE2"/>
		</linearGradient>
		<path fill="url(#SVGID_32_)" d="M127.961,137.433c0,0,3.58,1.635,6.357,0c0,0-0.512,2.289-2.924,2.452
			C128.984,140.047,127.961,137.433,127.961,137.433z"/>
		<linearGradient id="SVGID_33_" gradientUnits="userSpaceOnUse" x1="127.0117" y1="141.7705" x2="134.9756" y2="141.7705">
			<stop  offset="0" style="stop-color:#C6E8F9"/>
			<stop  offset="1" style="stop-color:#29ABE2"/>
		</linearGradient>
		<path fill="url(#SVGID_33_)" d="M127.012,141.189c0,0,3.287,2.614,7.964,0C134.976,141.189,128.107,141.68,127.012,141.189z"/>
		<linearGradient id="SVGID_34_" gradientUnits="userSpaceOnUse" x1="127.7427" y1="146.0107" x2="134.1709" y2="146.0107">
			<stop  offset="0" style="stop-color:#C6E8F9"/>
			<stop  offset="0.8092" style="stop-color:#6DCEF4"/>
			<stop  offset="1" style="stop-color:#29ABE2"/>
		</linearGradient>
		<path fill="url(#SVGID_34_)" d="M127.743,144.945c0,0,1.168,2.29,3.434,2.124c2.782-0.2,2.994-2.124,2.994-2.124
			S131.395,145.928,127.743,144.945z"/>
		<linearGradient id="SVGID_35_" gradientUnits="userSpaceOnUse" x1="129.1885" y1="153.6846" x2="134.2943" y2="153.2468">
			<stop  offset="0" style="stop-color:#C6E8F9"/>
			<stop  offset="1" style="stop-color:#29ABE2"/>
		</linearGradient>
		<path fill="url(#SVGID_35_)" d="M127.996,150.537c0,0,2.473,3.252,6.256,0.651c0,0,0.729,4.878-2.764,5.53
			C127.562,157.45,127.996,150.537,127.996,150.537z"/>
		<linearGradient id="SVGID_36_" gradientUnits="userSpaceOnUse" x1="94.9868" y1="130.7803" x2="117.6568" y2="129.4976">
			<stop  offset="0.3158" style="stop-color:#C6E8F9"/>
			<stop  offset="0.8119" style="stop-color:#2AACE3"/>
		</linearGradient>
		<path fill="url(#SVGID_36_)" d="M105.239,122.152c0,0-3.2,13.015,14.259,15.29c0,0-11.205,0.823-16.732-5.53
			C97.673,126.053,105.239,122.152,105.239,122.152z"/>
		<g>
			<g>
				<linearGradient id="SVGID_37_" gradientUnits="userSpaceOnUse" x1="132.2676" y1="34.8584" x2="125.237" y2="30.1093">
					<stop  offset="0" style="stop-color:#C6E8F9"/>
					<stop  offset="0.7434" style="stop-color:#2AACE3"/>
					<stop  offset="1" style="stop-color:#2E368F"/>
				</linearGradient>
				<ellipse fill="url(#SVGID_37_)" cx="131.502" cy="34.341" rx="5.168" ry="11.553"/>
				
					<radialGradient id="SVGID_38_" cx="495.2188" cy="-206.2983" r="16.6388" gradientTransform="matrix(0.4394 0 0 0.9825 -83.8085 234.5702)" gradientUnits="userSpaceOnUse">
					<stop  offset="0.4934" style="stop-color:#C6E8F9"/>
					<stop  offset="0.773" style="stop-color:#2AACE3"/>
					<stop  offset="1" style="stop-color:#2E368F"/>
				</radialGradient>
				<ellipse fill="url(#SVGID_38_)" cx="131.686" cy="34.369" rx="4.984" ry="11.358"/>
				<linearGradient id="SVGID_39_" gradientUnits="userSpaceOnUse" x1="126.7026" y1="28.875" x2="136.6699" y2="28.875">
					<stop  offset="0" style="stop-color:#C6E8F9"/>
					<stop  offset="0.7434" style="stop-color:#2AACE3"/>
					<stop  offset="1" style="stop-color:#2E368F"/>
				</linearGradient>
				<path fill="url(#SVGID_39_)" d="M131.687,23.74c2.699,0,4.892,4.893,4.976,10.997c0.002-0.125,0.008-0.243,0.008-0.368
					c0-6.271-2.23-11.355-4.983-11.355c-2.752,0-4.984,5.085-4.984,11.355c0,0.125,0.007,0.243,0.008,0.368
					C126.795,28.633,128.988,23.74,131.687,23.74z"/>
				<path fill="#0B74BC" d="M136.258,29.85c0.232,1.313,0.362,2.739,0.362,4.239c0,6.273-2.231,11.361-4.983,11.361
					c-2.047,0-3.805-2.819-4.571-6.839c0.738,4.169,2.527,7.116,4.621,7.116c2.753,0,4.983-5.085,4.983-11.358
					C136.67,32.762,136.521,31.234,136.258,29.85z"/>
				
					<radialGradient id="SVGID_40_" cx="489.3975" cy="-212.3242" r="18.6316" gradientTransform="matrix(0.4394 0 0 0.9825 -83.8085 234.5702)" gradientUnits="userSpaceOnUse">
					<stop  offset="0.602" style="stop-color:#C6E8F9"/>
					<stop  offset="0.6913" style="stop-color:#C3E6F8"/>
					<stop  offset="0.7608" style="stop-color:#B9E0F6"/>
					<stop  offset="0.8236" style="stop-color:#A7D7F2"/>
					<stop  offset="0.8825" style="stop-color:#8ECBEE"/>
					<stop  offset="0.9387" style="stop-color:#6CBDE9"/>
					<stop  offset="0.992" style="stop-color:#37ADE3"/>
					<stop  offset="1" style="stop-color:#29ABE2"/>
				</radialGradient>
				<ellipse fill="url(#SVGID_40_)" cx="131.889" cy="35.931" rx="4.134" ry="9.244"/>
				<linearGradient id="SVGID_41_" gradientUnits="userSpaceOnUse" x1="130.9512" y1="32.8081" x2="127.789" y2="34.6261">
					<stop  offset="0" style="stop-color:#C6E8F9"/>
					<stop  offset="1" style="stop-color:#29ABE2"/>
				</linearGradient>
				<path fill="url(#SVGID_41_)" d="M127.83,36.26c0-5.104,1.85-9.244,4.135-9.244c1.541,0,2.875,1.909,3.586,4.71
					c0.004,0.012,0.008,0.024,0.012,0.033c-0.67-3.096-2.081-5.237-3.723-5.237c-2.282,0-4.133,4.134-4.133,9.241
					c0,1.704,0.21,3.291,0.57,4.66C127.993,39.172,127.83,37.762,127.83,36.26z"/>
				
					<linearGradient id="SVGID_42_" gradientUnits="userSpaceOnUse" x1="846.4844" y1="-600.1685" x2="854.5178" y2="-596.4481" gradientTransform="matrix(0.8303 -0.5574 0.5574 0.8303 -240.4369 1006.1436)">
					<stop  offset="0" style="stop-color:#C6E8F9"/>
					<stop  offset="1" style="stop-color:#29ABE2"/>
				</linearGradient>
				<path fill="url(#SVGID_42_)" d="M129.395,41.585c-1.273-4.235-0.769-9.978,1.129-12.824c1.137-1.706,2.518-1.976,3.713-1.007
					c-1.326-1.739-3.033-1.753-4.395,0.292c-1.896,2.846-2.401,8.588-1.128,12.826c0.508,1.691,1.225,2.88,2.022,3.525
					C130.215,43.717,129.753,42.78,129.395,41.585z"/>
				<path fill="#FFFFFF" d="M133.416,32.782c0.251,0.5,0.457,1.138,0.584,1.892c0.432,2.501-0.127,5.309-1.25,6.271
					c-0.632,0.545-1.312,0.376-1.857-0.326c0.586,1.167,1.437,1.578,2.219,0.907c1.121-0.963,1.68-3.768,1.25-6.273
					C134.176,34.166,133.834,33.32,133.416,32.782z"/>
				<path fill="#C6E8F9" d="M135.066,31.046c0.266,1.144,0.418,2.44,0.418,3.823c0,4.593-1.665,8.314-3.72,8.314
					c-1.163,0-2.202-1.196-2.885-3.07c0.618,2.668,1.863,4.493,3.3,4.493c2.055,0,3.72-3.722,3.72-8.313
					C135.899,34.3,135.588,32.478,135.066,31.046z"/>
				<g>
					<path fill="#FFFFFF" d="M129.256,32.315c-0.251,1.568-0.883,2.179-1.246,0.667c-0.292-1.55-0.137-2.652,0.072-3.35
						c0.195-0.809,1.029-2.028,1.493-1.204C129.994,29.291,129.529,30.892,129.256,32.315z"/>
				</g>
				<g>
					<path fill="#FFFFFF" d="M132.928,36.387c0.169-1.039,0.589-1.449,0.83-0.443c0.192,1.03,0.092,1.764-0.049,2.227
						c-0.129,0.539-0.683,1.349-0.992,0.802C132.439,38.396,132.747,37.332,132.928,36.387z"/>
				</g>
				<g>
					<path fill="#FFFFFF" d="M135.455,34.288c-0.037,0.799,0.112,4.242-1.396,7.979c-1.844,3.148,0.891-0.989,0.905-7.946
						c-0.029-6.932-2.707-10.968-0.923-7.936C135.52,29.984,135.416,33.495,135.455,34.288z"/>
				</g>
			</g>
			<linearGradient id="SVGID_43_" gradientUnits="userSpaceOnUse" x1="130.0293" y1="40.7017" x2="134.0187" y2="41.2868">
				<stop  offset="0" style="stop-color:#C6E8F9"/>
				<stop  offset="1" style="stop-color:#29ABE2"/>
			</linearGradient>
			<path fill="url(#SVGID_43_)" d="M128.121,38.711c0,0,4.557,8.161,7.217-0.184C135.338,38.527,132.831,50.577,128.121,38.711z"/>
		</g>
		<path fill="#FFFFFF" d="M99.785,206.435c0,0,16.43,2.579,40.531,1.572c30.139-1.258,47.795-9.835,47.795-9.835
			s-22.229,8.263-48.002,8.891C114.545,207.688,99.785,206.435,99.785,206.435z"/>
		<path fill="#FFFFFF" d="M133.984,193.411c-34.792,1.316-68.555-10.539-68.555-10.539s24.615,12.908,68.686,12.223
			c32.73-0.509,58.769-13.184,58.769-13.184S165.867,192.203,133.984,193.411z"/>
		<path fill="#FFFFFF" d="M93.625,178.362c0,0,15.406,2.613,38.796,2.419c29.25-0.244,44.978-6.811,44.978-6.811
			s-19.679,5.524-44.646,5.759C107.945,179.962,93.625,178.362,93.625,178.362z"/>
	</g>
</g>
</svg>
