<?xml version="1.0" encoding="utf-8"?>
<!-- Generator: Adobe Illustrator 16.0.0, SVG Export Plug-In . SVG Version: 6.00 Build 0)  -->
<!DOCTYPE svg PUBLIC "-//W3C//DTD SVG 1.1//EN" "http://www.w3.org/Graphics/SVG/1.1/DTD/svg11.dtd">
<svg version="1.1" xmlns="http://www.w3.org/2000/svg" xmlns:xlink="http://www.w3.org/1999/xlink" x="0px" y="0px" width="257px"
	 height="298px" viewBox="0 0 257 298" enable-background="new 0 0 257 298" xml:space="preserve">
<g id="Layer_3">
	<rect x="-12.035" y="240" fill="none" width="257.643" height="152"/>
	<text transform="matrix(1 0 0 1 56.6514 285.8633)" font-family="'Amazone'" font-size="72">Thổ</text>
</g>
<g id="Layer_4">
	<g>
		<g>
			<g>
				<polygon fill="#414141" points="45.493,166.574 30.585,135.105 13.052,132.676 11.941,161.894 33.907,186.03 				"/>
			</g>
			<g>
				<polygon fill="#484848" points="13.052,132.676 30.091,135.037 24.911,150.384 				"/>
			</g>
			<g>
				<path fill="#36393B" d="M45.493,166.574l-2.866,10.609c-2.321-8.181-8.822-31.053-11.391-40.704L45.493,166.574z"/>
			</g>
			<g>
				<polygon fill="#36393B" points="11.986,160.729 13.037,133.058 20.358,158.031 				"/>
			</g>
			<g>
				<path fill="#414141" d="M20.358,158.031c0,0,12.458,18.319,16.121,23.681l-2.571,4.318l-21.966-24.136l0.044-1.165
					L20.358,158.031z"/>
			</g>
			<g>
				<path fill="#36393B" d="M24.911,150.384l15.9,29.848l-4.333,1.48c-3.663-5.362-16.121-23.681-16.121-23.681L24.911,150.384z"/>
			</g>
			<g>
				<path fill="#414141" d="M30.091,135.037l0.494,0.068l0.651,1.375c2.568,9.651,9.069,32.523,11.391,40.704l-1.815,3.048
					l-15.9-29.848L30.091,135.037z"/>
			</g>
			<g>
				<polygon fill="#656566" points="13.045,132.84 13.052,132.676 24.719,148.342 30.067,135.034 30.172,135.048 25.422,149.687 
					40.812,180.232 24.911,150.384 				"/>
			</g>
		</g>
		<g>
			<g>
				<polygon fill="#414141" points="203.429,204.58 249.215,119.094 218.167,118.508 172.986,204.005 				"/>
			</g>
			<g>
				<g>
					<polygon fill="#484E53" points="241.918,118.957 197.359,204.466 195.332,204.427 240.052,118.921 					"/>
				</g>
				<g>
					<polygon fill="#414141" points="249.215,119.094 203.429,204.58 197.359,204.466 241.918,118.957 					"/>
				</g>
				<g>
					<path fill="#484848" d="M241.745,120.222l-41.355,84.301l-3.03-0.057c0,0,43.43-84.146,43.441-84.147
						C240.813,120.318,241.745,120.222,241.745,120.222z"/>
				</g>
				<g>
					<path fill="#36393B" d="M240.052,118.921l-44.72,85.506l-7.341-0.139c7.543-14.162,38.704-74.762,44.231-85.515
						L240.052,118.921z"/>
				</g>
				<g>
					<path fill="#36393B" d="M221.983,118.58l7.291,0.138l-44.72,85.506l-2.977-0.056l25.756-50.199l-2.413-0.947
						c0,0-20.523,39.763-26.404,51.088l-2.238-0.042L221.983,118.58z"/>
				</g>
				<g>
					<path fill="#484848" d="M207.334,153.968l-25.756,50.199l-3.062-0.058c5.881-11.325,26.404-51.088,26.404-51.088
						L207.334,153.968z"/>
				</g>
				<g>
					<polygon fill="#414141" points="172.986,204.005 218.167,118.508 221.983,118.58 176.278,204.067 					"/>
				</g>
			</g>
			<g>
				<polygon fill="#414141" points="249.01,119.476 229.642,116.041 218.167,118.508 215.856,122.879 				"/>
			</g>
			<g>
				<polygon fill="#484848" points="218.167,118.508 249.215,119.094 249.01,119.476 215.856,122.879 				"/>
			</g>
		</g>
		<g>
			<g>
				<polygon fill="#414141" points="41.764,201.524 16.813,103.668 51.827,104.33 76.096,202.173 				"/>
			</g>
			<g>
				<g>
					<polygon fill="#484E53" points="25.041,103.824 48.609,201.653 50.895,201.697 27.146,103.863 					"/>
				</g>
				<g>
					<polygon fill="#414141" points="16.813,103.668 41.764,201.524 48.609,201.653 25.041,103.824 					"/>
				</g>
				<g>
					<path fill="#484848" d="M24.845,105.25l20.347,96.339l3.417,0.064c0,0-22.721-96.252-22.734-96.253
						C25.861,105.397,24.845,105.25,24.845,105.25z"/>
				</g>
				<g>
					<path fill="#36393B" d="M27.146,103.863l23.749,97.833l8.279,0.157c-4.086-16.209-20.32-85.524-23.199-97.823L27.146,103.863z"
						/>
				</g>
				<g>
					<path fill="#36393B" d="M47.523,104.249l-8.222-0.155l23.749,97.833l3.357,0.063l-13.384-57.415l2.999-0.959
						c0,0,10.739,45.483,13.837,58.439l2.524,0.047L47.523,104.249z"/>
				</g>
				<g>
					<path fill="#484848" d="M53.023,144.575l13.384,57.415l3.452,0.066c-3.098-12.957-13.837-58.439-13.837-58.439L53.023,144.575z
						"/>
				</g>
				<g>
					<polygon fill="#414141" points="76.096,202.173 51.827,104.33 47.523,104.249 72.384,202.103 					"/>
				</g>
			</g>
			<g>
				<polygon fill="#414141" points="16.925,104.105 39.715,101.074 51.827,104.33 53.068,109.333 				"/>
			</g>
			<g>
				<polygon fill="#484848" points="51.827,104.33 16.813,103.668 16.925,104.105 53.068,109.333 				"/>
			</g>
		</g>
		<g>
			<g>
				<polygon fill="#32383C" points="93.834,97.487 95.542,124.468 96.059,124.727 103.901,100.862 90.158,47.949 90.084,48.26 				
					"/>
			</g>
			<g>
				<polygon fill="#293338" points="100.195,126.796 107.602,128.478 104.488,103.122 103.901,100.862 96.059,124.727 				"/>
			</g>
			<g>
				<path fill="#36393B" d="M94.441,123.917l1.101,0.551l-1.708-26.981l-3.75-49.227L78.199,98.232c0,0,4.735,36.004,4.961,36.833
					l12.428-9.877l-0.045-0.72L94.441,123.917z"/>
			</g>
			<g>
				<polygon fill="#293338" points="90.084,48.26 90.04,47.689 69.421,86.033 69.421,86.033 78.199,98.232 				"/>
			</g>
			<g>
				<path fill="#414141" d="M77.811,95.799c0,0-5.461-7.183-7.887-10.701l-0.503,0.934l8.778,12.199l9.209-38.721L77.811,95.799z"/>
			</g>
			<g>
				<path fill="#293338" d="M83.16,135.064c0,0-3.975-2.966-7.759-5.966l15.072,62.372l2.569-0.535L90.976,162
					C90.976,162,83.386,135.892,83.16,135.064z"/>
			</g>
			<g>
				<path fill="#232F33" d="M107.602,128.478l-7.407-1.681l-4.136-2.069l-0.038,0.116l-0.433,0.344l0.405,6.402l-0.405-6.402
					l-12.428,9.877C83.386,135.892,90.976,162,90.976,162l2.066,28.935l21.676-4.518L107.602,128.478z"/>
			</g>
			<g>
				<path fill="#32383C" d="M78.199,98.232l-8.778-12.199l0.071,18.61l5.91,24.456c3.784,3,7.759,5.966,7.759,5.966
					C82.934,134.236,78.199,98.232,78.199,98.232z"/>
			</g>
			<g>
				<polygon fill="#414141" points="78.199,98.232 83.16,135.064 79.015,94.086 				"/>
			</g>
		</g>
		<g>
			<g>
				<polygon fill="#414141" points="93.857,198.335 70.283,105.88 103.364,106.505 126.294,198.948 				"/>
			</g>
			<g>
				<g>
					<polygon fill="#484E53" points="78.057,106.026 100.324,198.458 102.484,198.498 80.046,106.064 					"/>
				</g>
				<g>
					<polygon fill="#414141" points="70.283,105.88 93.857,198.335 100.324,198.458 78.057,106.026 					"/>
				</g>
				<g>
					<path fill="#484848" d="M77.872,107.375l19.224,91.021l3.229,0.062c0,0-21.467-90.94-21.479-90.942
						C78.832,107.514,77.872,107.375,77.872,107.375z"/>
				</g>
				<g>
					<path fill="#36393B" d="M80.046,106.064l22.438,92.434l7.822,0.148c-3.86-15.314-19.199-80.804-21.918-92.424L80.046,106.064z"
						/>
				</g>
				<g>
					<path fill="#36393B" d="M99.298,106.428l-7.769-0.146l22.438,92.434l3.172,0.06l-12.645-54.247l2.833-0.906
						c0,0,10.146,42.973,13.073,55.214l2.385,0.045L99.298,106.428z"/>
				</g>
				<g>
					<path fill="#484848" d="M104.495,144.529l12.645,54.247l3.261,0.062c-2.927-12.241-13.073-55.214-13.073-55.214
						L104.495,144.529z"/>
				</g>
				<g>
					<polygon fill="#414141" points="126.294,198.948 103.364,106.505 99.298,106.428 122.786,198.882 					"/>
				</g>
			</g>
			<g>
				<polygon fill="#414141" points="70.388,106.292 91.922,103.429 103.364,106.505 104.537,111.232 				"/>
			</g>
			<g>
				<polygon fill="#484848" points="103.364,106.505 70.283,105.88 70.388,106.292 104.537,111.232 				"/>
			</g>
		</g>
		<g>
			<g>
				<polygon fill="#36393B" points="104.566,195.999 109.28,52.191 142.955,75.469 139.721,202.016 				"/>
			</g>
			<g>
				<g>
					<polygon fill="#414141" points="117.193,57.661 111.149,200.549 113.347,202.068 119.217,59.06 					"/>
				</g>
				<g>
					<polygon fill="#32383C" points="109.28,52.191 104.566,195.999 111.149,200.549 117.193,57.661 					"/>
				</g>
				<g>
					<path fill="#293338" d="M116.613,59.152l-8.75,139.125l3.287,2.271c0,0,6.432-140.554,6.419-140.565
						S116.613,59.152,116.613,59.152z"/>
				</g>
				<g>
					<path fill="#32383C" d="M119.217,59.06l-5.87,143.008l10.098-11.302c0.472-21.006,3.69-110.04,4.263-125.836L119.217,59.06z"/>
				</g>
				<g>
					<path fill="#32383C" d="M138.815,72.607l-7.908-5.466l-3.734,126.202l3.229,2.232l2.727-73.708l3.161,0.842
						c0,0-2.028,58.478-2.567,75.16l2.427,1.678L138.815,72.607z"/>
				</g>
				<g>
					<path fill="#484848" d="M133.129,121.867l-2.727,73.708l3.32,2.295c0.539-16.683,2.567-75.16,2.567-75.16L133.129,121.867z"/>
				</g>
				<g>
					<polygon fill="#293338" points="139.721,202.016 142.955,75.469 138.815,72.607 136.149,199.547 					"/>
				</g>
			</g>
			<g>
				<polygon fill="#32383C" points="109.268,52.758 132.132,63.984 142.955,75.469 142.789,81.939 				"/>
			</g>
			<g>
				<polygon fill="#414141" points="142.955,75.469 109.28,52.191 109.268,52.758 142.789,81.939 				"/>
			</g>
		</g>
		<g>
			<g>
				<path fill="#414141" d="M110.484,202.127l-3.402-84.512c-0.133-0.521,0.195-1.185,0.583-1.178l29.375,0.555
					c0.172,0.003,0.313,0.148,0.371,0.381l3.02,85.32L110.484,202.127z"/>
			</g>
			<g>
				<g>
					<path fill="#484E53" d="M114.238,117.74l2.216,84.5l1.994,0.038l-2.566-85.307c-0.057-0.236-0.198-0.382-0.372-0.386
						l-0.685-0.013C114.441,116.565,114.112,117.218,114.238,117.74z"/>
				</g>
				<g>
					<path fill="#414141" d="M107.082,117.615l3.402,84.512l5.97,0.113l-2.409-85.302c-0.057-0.237-0.198-0.384-0.373-0.387
						l-6.008-0.113C107.277,116.43,106.948,117.094,107.082,117.615z"/>
				</g>
				<g>
					<path fill="#484848" d="M114.051,119.071l-0.577,83.113l2.98,0.057c0,0-1.762-84.308-1.774-84.31l0,0
						C114.294,117.875,113.935,118.526,114.051,119.071z"/>
				</g>
				<g>
					<path fill="#36393B" d="M116.077,117.776l2.371,84.502l7.222,0.136c-3.524-13.977,0.652-73.583-2.09-85.293
						c-0.056-0.239-0.198-0.386-0.373-0.39l-6.544-0.124C116.278,116.601,115.95,117.254,116.077,117.776z"/>
				</g>
				<g>
					<path fill="#36393B" d="M133.287,116.922l-6.022-0.114c-0.384-0.007-0.712,0.646-0.585,1.168l2.372,84.502l2.928,0.055
						l6.382-50.433l2.616-0.836c0,0-8.689,40.025-5.987,51.326l2.202,0.042l-3.534-85.334
						C133.599,117.067,133.458,116.925,133.287,116.922z"/>
				</g>
				<g>
					<path fill="#414141" d="M140.43,202.694l-3.02-85.32c-0.058-0.233-0.199-0.378-0.371-0.381l-2.589-0.049
						c-0.387-0.007-0.716,0.656-0.584,1.177l3.325,84.511L140.43,202.694z"/>
				</g>
			</g>
			<g>
				<path fill="#414141" d="M112.555,116.046l14.135-1.88c0.042-0.005,0.083-0.003,0.123,0.007l10.284,2.765
					c0.141,0.038,0.249,0.173,0.298,0.371l0.682,2.746c0.135,0.544-0.229,1.226-0.624,1.169l-25.1-3.631
					C111.76,117.508,111.941,116.128,112.555,116.046z"/>
			</g>
			<g>
				<path fill="#484848" d="M137.41,117.374c-0.058-0.233-0.199-0.378-0.371-0.381l-30.263-0.572l0.011,0.044
					c0.054,0.211,0.178,0.35,0.332,0.373l30.333,4.387c0.396,0.057,0.759-0.625,0.624-1.169L137.41,117.374z"/>
			</g>
		</g>
		<g>
			<polygon fill="#32383C" points="179.086,204.121 219.722,103.005 223.502,82.269 208.148,43.881 181.059,108.721 
				153.097,203.629 			"/>
		</g>
		<g>
			<g>
				<polygon fill="#32383C" points="194.043,100.192 186.772,130.593 186.146,130.991 182.163,106.081 207.991,44.258 
					208.012,44.588 				"/>
			</g>
			<g>
				<polygon fill="#293338" points="181.129,134.171 172.547,137.611 181.059,108.721 182.163,106.081 186.146,130.991 				"/>
			</g>
			<g>
				<path fill="#36393B" d="M188.108,129.747l-1.336,0.847l7.271-30.401l13.969-55.604l3.291,53.123c0,0-12.436,41.09-12.853,42.059
					l-11.872-8.365l0.194-0.812L188.108,129.747z"/>
			</g>
			<g>
				<polygon fill="#293338" points="208.012,44.588 208.174,43.944 223.502,82.269 223.502,82.269 211.303,97.71 				"/>
			</g>
			<g>
				<path fill="#414141" d="M212.219,94.919c0,0,7.51-9.153,10.91-13.584l0.373,0.933L211.303,97.71l-2.55-41.162L212.219,94.919z"
					/>
			</g>
			<g>
				<path fill="#293338" d="M198.45,139.77c0,0,5.017-4.144,9.826-8.285l-29.19,72.636l-2.754-0.052l8.058-32.653
					C184.39,171.415,198.035,140.739,198.45,139.77z"/>
			</g>
			<g>
				<path fill="#232F33" d="M172.547,137.611l8.582-3.44l5.017-3.181l0.02,0.122l0.413,0.292l-1.725,7.213l1.725-7.213l11.872,8.365
					c-0.415,0.97-14.061,31.646-14.061,31.646l-8.058,32.653l-23.235-0.439L172.547,137.611z"/>
			</g>
			<g>
				<path fill="#32383C" d="M211.303,97.71l12.199-15.442l-3.78,20.737l-11.445,28.479c-4.81,4.141-9.826,8.285-9.826,8.285
					C198.867,138.8,211.303,97.71,211.303,97.71z"/>
			</g>
			<g>
				<polygon fill="#414141" points="211.303,97.71 198.45,139.77 211.219,93.267 				"/>
			</g>
		</g>
		<g>
			<g>
				<polygon fill="#32383C" points="67.602,107.81 66.609,135.398 67.075,135.777 76.826,113.511 68.913,57.035 68.812,57.332 				
					"/>
			</g>
			<g>
				<polygon fill="#293338" points="70.798,138.808 77.664,142.193 77.164,115.924 76.826,113.511 67.075,135.777 				"/>
			</g>
			<g>
				<path fill="#484848" d="M65.618,134.591l0.992,0.807l0.993-27.588l1.21-50.479l-16.117,47.659c0,0,1.005,37.375,1.14,38.261
					l12.748-7.118l0.027-0.735L65.618,134.591z"/>
			</g>
			<g>
				<polygon fill="#36393B" points="68.812,57.332 68.827,56.747 45.549,90.689 45.549,90.689 52.695,104.991 				"/>
			</g>
			<g>
				<path fill="#484848" d="M53.834,143.251c0,0-3.484-3.898-6.783-7.786l8.258,66.315l2.49,0.046l0.842-29.639
					C58.641,172.188,53.968,144.138,53.834,143.251z"/>
			</g>
			<g>
				<path fill="#36393B" d="M77.664,142.193l-6.866-3.386l-3.723-3.031l-0.048,0.108l-0.444,0.248l-0.235,6.546l0.235-6.546
					l-12.748,7.118c0.134,0.886,4.807,28.937,4.807,28.937l-0.842,29.639l21.004,0.397L77.664,142.193z"/>
			</g>
			<g>
				<path fill="#414141" d="M52.695,104.991l-7.146-14.302l-1.736,18.776l3.238,26.001c3.299,3.888,6.783,7.786,6.783,7.786
					C53.7,142.365,52.695,104.991,52.695,104.991z"/>
			</g>
			<g>
				<path fill="#656566" d="M46.116,89.862c1.961,4.101,6.447,12.588,6.447,12.588l12.621-34.388L53.87,101.516l-0.035,41.735
					l-1.14-38.261l-7.146-14.302L46.116,89.862z"/>
			</g>
		</g>
		<g>
			<g>
				<polygon fill="#32383C" points="170.251,74.897 164.502,102.889 164.864,103.471 177.76,84.577 180.356,23.166 180.211,23.43 
									"/>
			</g>
			<g>
				<polygon fill="#293338" points="167.768,108.129 173.507,114.451 177.649,87.2 177.76,84.577 164.864,103.471 				"/>
			</g>
			<g>
				<path fill="#36393B" d="M163.729,101.648l0.773,1.24l5.749-27.991l9.96-51.467l-23.215,42.406c0,0-5.622,38.893-5.653,39.86
					l13.006-2.062l0.153-0.747L163.729,101.648z"/>
			</g>
			<g>
				<polygon fill="#293338" points="180.211,23.43 180.327,22.833 152.91,48.162 152.91,48.162 156.996,65.836 				"/>
			</g>
			<g>
				<path fill="#414141" d="M157.318,63.167c0,0-2.65-10.59-3.74-15.622l-0.668,0.617l4.086,17.675l17.989-32.858L157.318,63.167z"
					/>
			</g>
			<g>
				<path fill="#293338" d="M151.343,105.697c0,0-2.53-5.452-4.893-10.817l-4.002,71.682l2.288,1.077l5.97-30.165
					C150.706,137.473,151.312,106.664,151.343,105.697z"/>
			</g>
			<g>
				<path fill="#232F33" d="M173.507,114.451l-5.739-6.321l-2.903-4.659l-0.063,0.093l-0.453,0.072l-1.364,6.642l1.364-6.642
					l-13.006,2.062c-0.031,0.967-0.637,31.776-0.637,31.776l-5.97,30.165l19.304,9.085L173.507,114.451z"/>
			</g>
			<g>
				<path fill="#32383C" d="M156.996,65.836l-4.086-17.675l-4.892,18.612L146.45,94.88c2.362,5.365,4.893,10.817,4.893,10.817
					C151.374,104.729,156.996,65.836,156.996,65.836z"/>
			</g>
			<g>
				<polygon fill="#414141" points="156.996,65.836 151.343,105.697 158.779,62.211 				"/>
			</g>
		</g>
		<g>
			<g>
				<polygon fill="#36393B" points="190.013,204.327 205.189,153.381 193.058,141.189 175.726,130.992 171.412,130.911 
					170.115,134.962 146.489,203.504 				"/>
			</g>
			<g>
				<polygon fill="#32383C" points="181.364,166.065 179.108,180.443 169.65,191.006 168.514,175.698 175.648,140.609 				"/>
			</g>
			<g>
				<polygon fill="#414141" points="195.559,149.757 204.808,152.998 193.058,141.189 205.189,153.381 205.096,153.694 
					186.33,189.322 				"/>
			</g>
			<g>
				<path fill="#414141" d="M158.14,203.724l-11.65-0.22l15.787-45.8l6.237,17.993C168.514,175.698,161.788,193.707,158.14,203.724z
					"/>
			</g>
			<g>
				<polygon fill="#414141" points="179.108,180.443 175.404,204.051 165.287,203.859 169.65,191.006 				"/>
			</g>
			<g>
				<polygon fill="#32383C" points="179.439,180.073 179.108,180.443 181.364,166.065 186.92,146.457 188.678,147.347 
					195.559,149.757 186.33,189.322 185.717,190.487 186.33,189.322 182.863,204.192 175.404,204.051 179.108,180.443 				"/>
			</g>
			<g>
				<path fill="#484848" d="M181.364,166.065l5.556-19.608l1.758,0.89l6.881,2.41l-9.055,38.823
					c-1.553-4.135-4.541-11.877-6.154-16.049L181.364,166.065z"/>
			</g>
			<g>
				<polygon fill="#414141" points="175.63,140.742 171.803,130.919 175.726,130.992 193.058,141.189 204.808,152.998 
					188.678,147.347 				"/>
			</g>
			<g>
				<path fill="#656566" d="M176.792,139.949c-0.13,0.367,14.373,6.792,14.373,6.792l12.762,5.371l0.881,0.886l-16.13-5.651
					l-13.048-6.605l-3.813-9.792C173.757,134.279,176.88,139.696,176.792,139.949z"/>
			</g>
			<g>
				<g>
					<polygon fill="#484848" points="175.624,140.727 168.514,175.698 168.395,175.355 175.08,139.328 					"/>
				</g>
				<g>
					<path fill="#484848" d="M168.395,175.355l0.119,0.343c0,0-6.726,18.009-10.374,28.026l-2.067-0.039
						c3.52-7.676,12.078-27.016,12.078-27.016L168.395,175.355z"/>
				</g>
			</g>
		</g>
		<g>
			<g>
				<polygon fill="#36393B" points="83.269,202.309 82.131,151.055 97.54,139.384 117.576,129.893 121.89,129.975 122.07,134.054 
					126.792,203.132 				"/>
			</g>
			<g>
				<polygon fill="#32383C" points="102.357,164.571 100.661,178.96 107.175,189.826 112.502,174.639 115.019,139.462 				"/>
			</g>
			<g>
				<polygon fill="#414141" points="92.705,147.813 82.615,150.688 97.54,139.384 82.131,151.055 82.138,151.37 91.043,187.521 				
					"/>
			</g>
			<g>
				<path fill="#414141" d="M115.142,202.911l11.65,0.221l-3.156-46.158l-11.135,17.665
					C112.502,174.639,114.257,192.809,115.142,202.911z"/>
			</g>
			<g>
				<polygon fill="#414141" points="100.661,178.96 97.877,202.585 107.995,202.776 107.175,189.826 				"/>
			</g>
			<g>
				<polygon fill="#32383C" points="100.433,178.579 100.661,178.96 102.357,164.571 102.203,144.855 100.209,145.674 
					92.705,147.813 91.043,187.521 91.334,188.703 91.043,187.521 90.418,202.444 97.877,202.585 100.661,178.96 				"/>
			</g>
			<g>
				<path fill="#484848" d="M102.357,164.571l-0.154-19.716l-1.994,0.819l-7.504,2.138l-1.63,38.963
					c2.678-4.055,7.772-11.645,10.52-15.734L102.357,164.571z"/>
			</g>
			<g>
				<polygon fill="#414141" points="115,139.595 121.499,129.968 117.576,129.893 97.54,139.384 82.615,150.688 100.209,145.674 
									"/>
			</g>
			<g>
				<path fill="#656566" d="M114.062,138.764c0.028,0.369-16.16,6.214-16.16,6.214l-14.167,4.862l-1.12,0.848l17.594-5.014
					L115,139.595l6.479-9.597C118.634,133.237,114.042,138.508,114.062,138.764z"/>
			</g>
			<g>
				<g>
					<polygon fill="#484848" points="115.01,139.581 112.502,174.639 112.713,174.303 115.935,138.209 					"/>
				</g>
				<g>
					<path fill="#484848" d="M112.713,174.303l-0.211,0.336c0,0,1.755,18.17,2.64,28.272l2.067,0.039
						c-1.398-7.769-4.613-27.331-4.613-27.331L112.713,174.303z"/>
				</g>
			</g>
		</g>
		<g>
			<path fill="none" stroke="#484848" stroke-miterlimit="10" d="M171.031,114.086"/>
		</g>
		<g>
			<g>
				<polygon fill="#414141" points="155.035,203.666 175.793,122.492 164.432,76.268 133.324,115.166 125.738,203.111 				"/>
			</g>
			<g>
				<polygon fill="#484848" points="164.432,76.268 175.473,121.191 155.496,130.412 				"/>
			</g>
			<g>
				<path fill="#484848" d="M155.035,203.666l-10.634-0.201c6.626-17.311,22.533-57.42,30.484-77.427L155.035,203.666z"/>
			</g>
			<g>
				<polygon fill="#36393B" points="134.565,113.616 164.024,76.776 143.982,130.194 				"/>
			</g>
			<g>
				<path fill="#32383C" d="M143.982,130.194c0,0-9.094,56.472-11.743,73.041l-6.501-0.123l7.586-87.945l1.241-1.55L143.982,130.194
					z"/>
			</g>
			<g>
				<path fill="#36393B" d="M155.496,130.412l-17.148,72.938l-6.108-0.116c2.649-16.568,11.743-73.041,11.743-73.041
					L155.496,130.412z"/>
			</g>
			<g>
				<path fill="#414141" d="M175.473,121.191l0.32,1.301l-0.907,3.546c-7.951,20.007-23.858,60.116-30.484,77.427l-6.054-0.115
					l17.148-72.938L175.473,121.191z"/>
			</g>
			<g>
				<polygon fill="#656566" points="164.256,76.486 164.432,76.268 157.458,127.033 175.458,121.127 175.525,121.404 
					156.622,130.663 138.348,203.35 155.496,130.412 				"/>
			</g>
		</g>
		<g>
			<g>
				<polygon fill="#414141" points="107.308,202.763 108.435,145.018 125.41,112.753 139.777,140.99 128.056,203.155 				"/>
			</g>
			<g>
				<polygon fill="#484848" points="125.41,112.753 108.913,144.109 121.198,151.14 				"/>
			</g>
			<g>
				<path fill="#36393B" d="M107.308,202.763l7.531,0.142c-1.309-12.373-4.733-41.057-6.453-55.365L107.308,202.763z"/>
			</g>
			<g>
				<polygon fill="#36393B" points="139.205,139.864 125.598,113.123 129.353,151.293 				"/>
			</g>
			<g>
				<path fill="#414141" d="M129.353,151.293c0,0-4.553,40.03-5.901,51.775l4.605,0.087l11.721-62.165l-0.572-1.126L129.353,151.293
					z"/>
			</g>
			<g>
				<path fill="#36393B" d="M121.198,151.14l-2.072,51.847l4.325,0.082c1.349-11.745,5.901-51.775,5.901-51.775L121.198,151.14z"/>
			</g>
			<g>
				<path fill="#414141" d="M108.913,144.109l-0.478,0.909l-0.049,2.523c1.72,14.308,5.144,42.992,6.453,55.365l4.288,0.082
					l2.072-51.847L108.913,144.109z"/>
			</g>
			<g>
				<polygon fill="#656566" points="125.491,112.912 125.41,112.753 120.472,148.707 108.936,144.065 108.834,144.258 
					120.355,151.286 119.126,202.987 121.198,151.14 				"/>
			</g>
		</g>
		<g>
			<g>
				<polygon fill="#414141" points="228.056,199.571 237.793,181.019 238.053,167.084 228.562,172.899 221.409,195.166 				"/>
			</g>
			<g>
				<polygon fill="#484848" points="238.053,167.084 237.801,180.626 232.677,180.173 				"/>
			</g>
			<g>
				<path fill="#36393B" d="M228.056,199.571l-3.521,0.232c2.579-3.637,9.786-13.813,12.833-17.974L228.056,199.571z"/>
			</g>
			<g>
				<polygon fill="#36393B" points="228.939,172.667 237.928,167.16 230.064,178.441 				"/>
			</g>
			<g>
				<path fill="#414141" d="M230.064,178.441c0,0-5.555,13.685-7.181,17.703l-1.475-0.978l7.152-22.267l0.378-0.232L230.064,178.441
					z"/>
			</g>
			<g>
				<path fill="#36393B" d="M232.677,180.173l-9.183,18.94l-0.61-2.969c1.626-4.018,7.181-17.703,7.181-17.703L232.677,180.173z"/>
			</g>
			<g>
				<path fill="#414141" d="M237.801,180.626l-0.008,0.393l-0.425,0.811c-3.047,4.161-10.254,14.337-12.833,17.974l-1.041-0.69
					l9.183-18.94L237.801,180.626z"/>
			</g>
			<g>
				<polygon fill="#656566" points="237.999,167.117 238.053,167.084 233.333,179.561 237.801,180.607 237.8,180.69 
					232.918,180.403 223.494,199.113 232.677,180.173 				"/>
			</g>
		</g>
		<g>
			<g>
				<polygon fill="#414141" points="31.983,185.717 24.01,170.454 15.081,169.776 14.897,184.405 26.357,195.791 				"/>
			</g>
			<g>
				<polygon fill="#484848" points="15.081,169.776 23.758,170.435 21.329,178.259 				"/>
			</g>
			<g>
				<path fill="#36393B" d="M31.983,185.717l-1.317,5.387c-1.284-4.015-4.88-15.241-6.309-19.984L31.983,185.717z"/>
			</g>
			<g>
				<polygon fill="#36393B" points="14.904,183.822 15.079,169.967 19.118,182.218 				"/>
			</g>
			<g>
				<path fill="#414141" d="M19.118,182.218c0,0,6.56,8.77,8.488,11.336l-1.249,2.236l-11.46-11.385l0.007-0.583L19.118,182.218z"/>
			</g>
			<g>
				<path fill="#36393B" d="M21.329,178.259l8.456,14.423l-2.18,0.873c-1.928-2.566-8.488-11.336-8.488-11.336L21.329,178.259z"/>
			</g>
			<g>
				<path fill="#414141" d="M23.758,170.435l0.252,0.019l0.348,0.667c1.429,4.743,5.025,15.969,6.309,19.984l-0.881,1.578
					l-8.456-14.423L23.758,170.435z"/>
			</g>
			<g>
				<polygon fill="#656566" points="15.08,169.858 15.081,169.776 21.205,177.245 23.746,170.433 23.8,170.437 21.579,177.895 
					29.785,192.682 21.329,178.259 				"/>
			</g>
		</g>
		<g>
			<g>
				<polygon fill="#414141" points="217.205,204.841 231.329,174.96 232.37,151.03 216.053,160.06 202.983,197.61 				"/>
			</g>
			<g>
				<polygon fill="#484848" points="232.37,151.03 231.358,174.286 222.705,172.984 				"/>
			</g>
			<g>
				<path fill="#36393B" d="M217.205,204.841l-6.664-0.126c4.521-5.99,14.695-21.563,20.033-28.404L217.205,204.841z"/>
			</g>
			<g>
				<polygon fill="#36393B" points="216.703,159.7 232.157,151.149 218.358,169.742 				"/>
			</g>
			<g>
				<path fill="#414141" d="M218.358,169.742c0,0-9.995,22.958-12.921,29.7l-2.454-1.832l13.069-37.55l0.65-0.36L218.358,169.742z"
					/>
			</g>
			<g>
				<path fill="#36393B" d="M222.705,172.984l-14.961,28.178l-2.307-1.72c2.926-6.742,12.921-29.7,12.921-29.7L222.705,172.984z"/>
			</g>
			<g>
				<path fill="#414141" d="M231.358,174.286l-0.029,0.674l-0.755,1.351c-5.338,6.842-16.024,20.567-20.546,26.557l-2.284-1.706
					l14.961-28.178L231.358,174.286z"/>
			</g>
			<g>
				<polygon fill="#656566" points="232.278,151.082 232.37,151.03 223.842,171.998 231.359,174.253 231.354,174.397 
					223.104,173.405 207.744,201.162 222.705,172.984 				"/>
			</g>
		</g>
		<g>
			<g>
				<polygon fill="#414141" points="29.748,201.297 23.884,171.039 29.405,147.194 43.164,156.792 48.228,201.646 				"/>
			</g>
			<g>
				<polygon fill="#484848" points="29.405,147.194 24.04,170.368 33.005,169.398 				"/>
			</g>
			<g>
				<path fill="#36393B" d="M29.748,201.297l6.664,0.126c-2.856-6.129-8.712-22.006-12.146-29.014L29.748,201.297z"/>
			</g>
			<g>
				<polygon fill="#36393B" points="42.615,156.409 29.585,147.319 38.218,166.335 				"/>
			</g>
			<g>
				<path fill="#414141" d="M38.218,166.335c0,0,5.813,28.435,6.876,35.252l3.134,0.059l-5.063-44.855l-0.549-0.382L38.218,166.335z
					"/>
			</g>
			<g>
				<path fill="#36393B" d="M33.005,169.398l7.163,28.596l4.926,3.594c-1.063-6.817-6.876-35.252-6.876-35.252L33.005,169.398z"/>
			</g>
			<g>
				<path fill="#414141" d="M24.04,170.368l-0.156,0.671l0.382,1.371c3.434,7.008,10.305,21.065,13.162,27.194l2.741-1.61
					l-7.163-28.596L24.04,170.368z"/>
			</g>
			<g>
				<polygon fill="#656566" points="29.482,147.248 29.405,147.194 32.145,168.374 24.047,170.334 24.014,170.477 32.493,169.802 
					40.168,197.994 33.005,169.398 				"/>
			</g>
		</g>
		<g>
			<g>
				<polygon fill="#414141" points="212.14,204.745 221.486,168.198 216.37,147.386 202.366,164.899 198.949,204.496 				"/>
			</g>
			<g>
				<polygon fill="#484848" points="216.37,147.386 221.342,167.612 212.348,171.763 				"/>
			</g>
			<g>
				<path fill="#36393B" d="M212.14,204.745l-4.788-0.09c2.984-7.794,10.146-25.853,13.726-34.86L212.14,204.745z"/>
			</g>
			<g>
				<polygon fill="#36393B" points="202.924,164.202 216.187,147.615 207.163,171.666 				"/>
			</g>
			<g>
				<path fill="#414141" d="M207.163,171.666c0,0-4.093,25.426-5.287,32.886l-2.927-0.055l3.417-39.597l0.558-0.698L207.163,171.666
					z"/>
			</g>
			<g>
				<path fill="#36393B" d="M212.348,171.763l-7.721,32.84l-2.751-0.052c1.194-7.46,5.287-32.886,5.287-32.886L212.348,171.763z"/>
			</g>
			<g>
				<path fill="#414141" d="M221.342,167.612l0.145,0.586l-0.409,1.597c-3.579,9.008-10.741,27.066-13.726,34.86l-2.725-0.052
					l7.721-32.84L221.342,167.612z"/>
			</g>
			<g>
				<polygon fill="#656566" points="216.291,147.484 216.37,147.386 213.231,170.242 221.335,167.583 221.365,167.708 
					212.854,171.876 204.627,204.603 212.348,171.763 				"/>
			</g>
		</g>
		<g>
			<g>
				<polygon fill="#414141" points="222.664,204.722 227.275,186.69 224.751,176.422 217.842,185.063 216.156,204.599 				"/>
			</g>
			<g>
				<polygon fill="#484848" points="224.751,176.422 227.204,186.401 222.767,188.449 				"/>
			</g>
			<g>
				<path fill="#36393B" d="M222.664,204.722l-2.941,1.803c1.471-3.846,5.585-14.603,7.351-19.047L222.664,204.722z"/>
			</g>
			<g>
				<polygon fill="#36393B" points="218.117,184.718 224.66,176.535 220.208,188.401 				"/>
			</g>
			<g>
				<path fill="#414141" d="M220.208,188.401c0,0-2.02,12.544-2.608,16.225l-1.443-0.027l1.686-19.536l0.275-0.345L220.208,188.401z
					"/>
			</g>
			<g>
				<path fill="#36393B" d="M222.767,188.449l-4.064,18.057l-1.103-1.88c0.589-3.68,2.608-16.225,2.608-16.225L222.767,188.449z"/>
			</g>
			<g>
				<path fill="#414141" d="M227.204,186.401l0.071,0.29l-0.202,0.788c-1.766,4.444-5.88,15.202-7.351,19.047l-1.021-0.02
					l4.064-18.057L227.204,186.401z"/>
			</g>
			<g>
				<polygon fill="#656566" points="224.712,176.47 224.751,176.422 223.201,187.699 227.2,186.387 227.216,186.449 
					223.017,188.505 218.702,206.506 222.767,188.449 				"/>
			</g>
		</g>
		<g>
			<g>
				<polygon fill="#414141" points="215.383,211.666 218.802,198.297 216.93,190.684 211.807,197.09 				"/>
			</g>
			<g>
				<polygon fill="#484848" points="216.93,190.684 218.748,198.083 215.458,199.601 				"/>
			</g>
			<g>
				<path fill="#36393B" d="M215.383,211.666l-2.183,1.336c1.092-2.851,4.142-10.827,5.451-14.122L215.383,211.666z"/>
			</g>
			<g>
				<polygon fill="#36393B" points="212.011,196.835 216.863,190.768 213.562,199.565 				"/>
			</g>
			<g>
				<path fill="#414141" d="M213.562,199.565c0,0-1.497,9.301-1.934,12.03l0.179-14.504l0.204-0.255L213.562,199.565z"/>
			</g>
			<g>
				<path fill="#36393B" d="M215.458,199.601l-3.014,13.387l-0.816-1.394c0.437-2.729,1.934-12.03,1.934-12.03L215.458,199.601z"/>
			</g>
			<g>
				<path fill="#414141" d="M218.748,198.083l0.054,0.214l-0.15,0.584c-1.31,3.295-4.359,11.271-5.451,14.122l-0.756-0.014
					l3.014-13.387L218.748,198.083z"/>
			</g>
			<g>
				<polygon fill="#656566" points="216.9,190.72 216.93,190.684 215.781,199.045 218.745,198.072 218.757,198.117 215.644,199.643 
					212.444,212.988 215.458,199.601 				"/>
			</g>
		</g>
		<g>
			<g>
				<polygon fill="#414141" points="210.379,216.037 211.493,202.447 208.239,196.302 204.158,204.269 				"/>
			</g>
			<g>
				<polygon fill="#484848" points="208.239,196.302 211.401,202.274 208.32,205.029 				"/>
			</g>
			<g>
				<path fill="#36393B" d="M210.379,216.037l-1.983,2.126c0.605-3.049,2.299-11.578,3.049-15.122L210.379,216.037z"/>
			</g>
			<g>
				<polygon fill="#36393B" points="204.321,203.951 208.187,196.407 206.383,205.788 				"/>
			</g>
			<g>
				<path fill="#414141" d="M206.383,205.788c0,0,0.123,9.086,0.162,11.751l-2.387-13.27l0.163-0.318L206.383,205.788z"/>
			</g>
			<g>
				<path fill="#36393B" d="M208.32,205.029l-0.697,13.437l-1.078-0.927c-0.039-2.665-0.162-11.751-0.162-11.751L208.32,205.029z"/>
			</g>
			<g>
				<path fill="#414141" d="M211.401,202.274l0.092,0.173l-0.049,0.594c-0.75,3.544-2.443,12.073-3.049,15.122l-0.772,0.303
					l0.697-13.437L211.401,202.274z"/>
			</g>
			<g>
				<polygon fill="#656566" points="208.218,196.348 208.239,196.302 208.552,204.388 211.396,202.266 211.416,202.303 
					208.517,204.989 207.623,218.466 208.32,205.029 				"/>
			</g>
		</g>
		<g>
			<g>
				<polygon fill="#414141" points="193.158,216.176 200.565,206.555 202.049,197.738 196.002,199.302 				"/>
			</g>
			<g>
				<polygon fill="#484848" points="202.049,197.738 200.607,206.307 197.688,204.863 				"/>
			</g>
			<g>
				<path fill="#36393B" d="M193.158,216.176l-2.059-0.647c1.84-1.735,6.982-6.591,9.143-8.554L193.158,216.176z"/>
			</g>
			<g>
				<polygon fill="#36393B" points="196.243,199.239 201.969,197.758 196.342,203.17 				"/>
			</g>
			<g>
				<path fill="#414141" d="M196.342,203.17c0,0-4.522,7.463-5.847,9.656l5.507-13.524l0.241-0.063L196.342,203.17z"/>
			</g>
			<g>
				<path fill="#36393B" d="M197.688,204.863l-7.124,9.992l-0.068-2.028c1.324-2.192,5.847-9.656,5.847-9.656L197.688,204.863z"/>
			</g>
			<g>
				<path fill="#414141" d="M200.607,206.307l-0.042,0.249l-0.323,0.42c-2.16,1.963-7.303,6.819-9.143,8.554l-0.536-0.674
					l7.124-9.992L200.607,206.307z"/>
			</g>
			<g>
				<polygon fill="#656566" points="202.015,197.747 202.049,197.738 198.125,204.62 200.609,206.294 200.601,206.348 
					197.805,205.064 190.563,214.854 197.688,204.863 				"/>
			</g>
		</g>
		<g>
			<g>
				<polygon fill="#414141" points="187.619,207.542 186.282,194.749 181.856,190.573 179.152,199.542 				"/>
			</g>
			<g>
				<polygon fill="#484848" points="181.856,190.573 186.158,194.631 183.524,198.448 				"/>
			</g>
			<g>
				<path fill="#36393B" d="M187.619,207.542l-1.632,2.777c0.063-3.024,0.235-11.479,0.354-15.012L187.619,207.542z"/>
			</g>
			<g>
				<polygon fill="#36393B" points="179.26,199.185 181.82,190.691 181.692,199.966 				"/>
			</g>
			<g>
				<path fill="#414141" d="M181.692,199.966c0,0,1.775,8.183,2.298,10.581l-4.838-11.005l0.107-0.357L181.692,199.966z"/>
			</g>
			<g>
				<path fill="#36393B" d="M183.524,198.448l1.732,12.477l-1.267-0.378c-0.522-2.398-2.298-10.581-2.298-10.581L183.524,198.448z"
					/>
			</g>
			<g>
				<path fill="#414141" d="M186.158,194.631l0.124,0.117l0.059,0.559c-0.118,3.534-0.291,11.988-0.354,15.012l-0.73,0.605
					l-1.732-12.477L186.158,194.631z"/>
			</g>
			<g>
				<polygon fill="#656566" points="181.841,190.624 181.856,190.573 183.643,197.768 186.152,194.625 186.179,194.65 
					183.717,198.328 185.257,210.925 183.524,198.448 				"/>
			</g>
		</g>
		<g>
			<g>
				<polygon fill="#414141" points="190.664,213.706 196.894,196.66 195.577,185.691 188.153,192.707 				"/>
			</g>
			<g>
				<polygon fill="#484848" points="195.577,185.691 196.856,196.351 192.452,197.328 				"/>
			</g>
			<g>
				<path fill="#36393B" d="M190.664,213.706l-2.966,1.096c1.79-3.515,6.793-13.35,8.923-17.397L190.664,213.706z"/>
			</g>
			<g>
				<polygon fill="#36393B" points="188.449,192.427 195.48,185.783 190.042,196.652 				"/>
			</g>
			<g>
				<path fill="#414141" d="M190.042,196.652c0,0-3.213,12.15-4.15,15.716l2.262-19.661l0.296-0.28L190.042,196.652z"/>
			</g>
			<g>
				<path fill="#36393B" d="M192.452,197.328l-5.715,17.205l-0.846-2.165c0.938-3.566,4.15-15.716,4.15-15.716L192.452,197.328z"/>
			</g>
			<g>
				<path fill="#414141" d="M196.856,196.351l0.037,0.31l-0.272,0.745c-2.13,4.047-7.133,13.882-8.923,17.397l-0.961-0.269
					l5.715-17.205L196.856,196.351z"/>
			</g>
			<g>
				<polygon fill="#656566" points="195.536,185.73 195.577,185.691 192.942,196.678 196.854,196.336 196.862,196.402 
					192.683,197.446 186.737,214.533 192.452,197.328 				"/>
			</g>
		</g>
		<g>
			<g>
				<g>
					<polygon fill="#414141" points="154.928,208.748 162.335,199.127 163.818,190.311 157.771,191.874 					"/>
				</g>
				<g>
					<polygon fill="#484848" points="163.818,190.311 162.377,198.879 159.456,197.435 					"/>
				</g>
				<g>
					<path fill="#36393B" d="M154.928,208.748l-2.059-0.646c1.84-1.735,6.981-6.591,9.143-8.554L154.928,208.748z"/>
				</g>
				<g>
					<polygon fill="#36393B" points="158.013,191.812 163.739,190.331 158.11,195.743 					"/>
				</g>
				<g>
					<path fill="#414141" d="M158.11,195.743c0,0-4.521,7.463-5.847,9.655l5.508-13.524l0.241-0.062L158.11,195.743z"/>
				</g>
				<g>
					<path fill="#36393B" d="M159.456,197.435l-7.123,9.993l-0.069-2.029c1.325-2.192,5.847-9.655,5.847-9.655L159.456,197.435z"/>
				</g>
				<g>
					<path fill="#414141" d="M162.377,198.879l-0.042,0.248l-0.323,0.42c-2.161,1.963-7.303,6.819-9.143,8.554l-0.536-0.675
						l7.123-9.993L162.377,198.879z"/>
				</g>
				<g>
					<polygon fill="#656566" points="163.784,190.319 163.818,190.311 159.895,197.193 162.38,198.867 162.369,198.92 
						159.574,197.636 152.333,207.427 159.456,197.435 					"/>
				</g>
			</g>
			<g>
				<g>
					<polygon fill="#414141" points="149.389,200.115 148.053,187.321 143.626,183.146 140.921,192.115 					"/>
				</g>
				<g>
					<polygon fill="#484848" points="143.626,183.146 147.927,187.204 145.294,191.021 					"/>
				</g>
				<g>
					<path fill="#36393B" d="M149.389,200.115l-1.632,2.777c0.063-3.023,0.234-11.479,0.354-15.012L149.389,200.115z"/>
				</g>
				<g>
					<polygon fill="#36393B" points="141.029,191.757 143.591,183.263 143.461,192.539 					"/>
				</g>
				<g>
					<path fill="#414141" d="M143.461,192.539c0,0,1.775,8.182,2.3,10.581l-4.84-11.005l0.108-0.358L143.461,192.539z"/>
				</g>
				<g>
					<path fill="#36393B" d="M145.294,191.021l1.732,12.477l-1.266-0.377c-0.524-2.399-2.3-10.581-2.3-10.581L145.294,191.021z"/>
				</g>
				<g>
					<path fill="#414141" d="M147.927,187.204l0.126,0.118l0.058,0.559c-0.119,3.533-0.291,11.988-0.354,15.012l-0.73,0.605
						l-1.732-12.477L147.927,187.204z"/>
				</g>
				<g>
					<polygon fill="#656566" points="143.61,183.196 143.626,183.146 145.412,190.341 147.922,187.198 147.948,187.223 
						145.486,190.9 147.026,203.497 145.294,191.021 					"/>
				</g>
			</g>
			<g>
				<g>
					<polygon fill="#414141" points="152.433,206.278 158.663,189.232 157.347,178.263 149.922,185.28 					"/>
				</g>
				<g>
					<polygon fill="#484848" points="157.347,178.263 158.627,188.924 154.222,189.9 					"/>
				</g>
				<g>
					<path fill="#36393B" d="M152.433,206.278l-2.966,1.096c1.79-3.516,6.793-13.351,8.924-17.398L152.433,206.278z"/>
				</g>
				<g>
					<polygon fill="#36393B" points="150.219,185 157.249,178.355 151.811,189.225 					"/>
				</g>
				<g>
					<path fill="#414141" d="M151.811,189.225c0,0-3.211,12.15-4.15,15.715l2.262-19.661l0.297-0.28L151.811,189.225z"/>
				</g>
				<g>
					<path fill="#36393B" d="M154.222,189.9l-5.716,17.204l-0.846-2.164c0.939-3.565,4.15-15.715,4.15-15.715L154.222,189.9z"/>
				</g>
				<g>
					<path fill="#414141" d="M158.627,188.924l0.036,0.309l-0.272,0.744c-2.131,4.047-7.134,13.882-8.924,17.398l-0.961-0.27
						l5.716-17.204L158.627,188.924z"/>
				</g>
				<g>
					<polygon fill="#656566" points="157.306,178.303 157.347,178.263 154.711,189.251 158.624,188.909 158.632,188.974 
						154.452,190.018 148.506,207.104 154.222,189.9 					"/>
				</g>
			</g>
			<g>
				<g>
					<polygon fill="#414141" points="165.209,209.905 171.439,192.86 170.124,181.891 162.698,188.907 					"/>
				</g>
				<g>
					<polygon fill="#484848" points="170.124,181.891 171.402,192.551 166.998,193.528 					"/>
				</g>
				<g>
					<path fill="#36393B" d="M165.209,209.905l-2.966,1.097c1.79-3.516,6.793-13.35,8.925-17.397L165.209,209.905z"/>
				</g>
				<g>
					<polygon fill="#36393B" points="162.995,188.628 170.025,181.982 164.588,192.853 					"/>
				</g>
				<g>
					<path fill="#414141" d="M164.588,192.853c0,0-3.212,12.15-4.15,15.715l2.261-19.661l0.297-0.279L164.588,192.853z"/>
				</g>
				<g>
					<path fill="#36393B" d="M166.998,193.528l-5.716,17.205l-0.845-2.165c0.938-3.565,4.15-15.715,4.15-15.715L166.998,193.528z"/>
				</g>
				<g>
					<path fill="#414141" d="M171.402,192.551l0.037,0.309l-0.271,0.745c-2.132,4.047-7.135,13.882-8.925,17.397l-0.961-0.27
						l5.716-17.205L171.402,192.551z"/>
				</g>
				<g>
					<polygon fill="#656566" points="170.081,181.931 170.124,181.891 167.487,192.878 171.4,192.536 171.408,192.602 
						167.229,193.646 161.282,210.732 166.998,193.528 					"/>
				</g>
			</g>
		</g>
		<g>
			<g>
				<g>
					<polygon fill="#414141" points="116.905,209.803 123.595,197.334 123.853,187.872 117.405,191.689 					"/>
				</g>
				<g>
					<polygon fill="#484848" points="123.853,187.872 123.603,197.068 120.143,196.688 					"/>
				</g>
				<g>
					<path fill="#36393B" d="M116.905,209.803l-2.381,0.107c1.764-2.435,6.695-9.247,8.778-12.031L116.905,209.803z"/>
				</g>
				<g>
					<polygon fill="#36393B" points="117.662,191.537 123.769,187.922 118.388,195.476 					"/>
				</g>
				<g>
					<path fill="#414141" d="M118.388,195.476c0,0-3.835,9.219-4.957,11.925l3.975-15.711l0.256-0.152L118.388,195.476z"/>
				</g>
				<g>
					<path fill="#36393B" d="M120.143,196.688l-6.318,12.738l-0.394-2.026c1.122-2.707,4.957-11.925,4.957-11.925L120.143,196.688z"
						/>
				</g>
				<g>
					<path fill="#414141" d="M123.603,197.068l-0.007,0.266l-0.293,0.544c-2.083,2.784-7.015,9.597-8.778,12.031l-0.699-0.483
						l6.318-12.738L123.603,197.068z"/>
				</g>
				<g>
					<polygon fill="#656566" points="123.816,187.893 123.853,187.872 120.589,196.281 123.603,197.055 123.601,197.112 
						120.304,196.849 113.825,209.427 120.143,196.688 					"/>
				</g>
			</g>
			<g>
				<g>
					<polygon fill="#414141" points="109.418,203.123 105.93,190.682 100.375,188.098 98.789,198.167 					"/>
				</g>
				<g>
					<polygon fill="#484848" points="100.375,188.098 105.774,190.609 103.457,195.443 					"/>
				</g>
				<g>
					<path fill="#36393B" d="M109.418,203.123l-1.371,3.412c-0.406-3.08-1.542-11.692-1.965-15.309L109.418,203.123z"/>
				</g>
				<g>
					<polygon fill="#36393B" points="98.852,197.765 100.354,188.229 101.667,197.655 					"/>
				</g>
				<g>
					<path fill="#414141" d="M101.667,197.655c0,0,3.25,7.616,4.206,9.848l-7.084-9.336l0.063-0.401L101.667,197.655z"/>
				</g>
				<g>
					<path fill="#36393B" d="M103.457,195.443l3.876,11.974l-1.46,0.086c-0.957-2.231-4.206-9.848-4.206-9.848L103.457,195.443z"/>
				</g>
				<g>
					<path fill="#414141" d="M105.774,190.609l0.156,0.073l0.152,0.543c0.423,3.617,1.559,12.229,1.965,15.309l-0.714,0.882
						l-3.876-11.974L105.774,190.609z"/>
				</g>
				<g>
					<polygon fill="#656566" points="100.366,188.154 100.375,188.098 103.482,194.712 105.767,190.606 105.8,190.622 
						103.651,195.25 107.333,207.417 103.457,195.443 					"/>
				</g>
			</g>
			<g>
				<g>
					<polygon fill="#414141" points="113.755,208.228 117.977,188.689 114.799,178.085 107.681,187.925 					"/>
				</g>
				<g>
					<polygon fill="#484848" points="114.799,178.085 117.888,188.39 113.165,191.007 					"/>
				</g>
				<g>
					<path fill="#36393B" d="M113.755,208.228l-3.111,2.206c1.43-4.217,5.425-16.012,7.148-20.892L113.755,208.228z"/>
				</g>
				<g>
					<polygon fill="#36393B" points="107.964,187.534 114.706,178.214 110.391,191.216 					"/>
				</g>
				<g>
					<path fill="#414141" d="M110.391,191.216c0,0-1.649,13.473-2.128,17.425l-0.582-20.715l0.284-0.392L110.391,191.216z"/>
				</g>
				<g>
					<path fill="#36393B" d="M113.165,191.007l-3.627,19.51l-1.276-1.876c0.479-3.952,2.128-17.425,2.128-17.425L113.165,191.007z"
						/>
				</g>
				<g>
					<path fill="#414141" d="M117.888,188.39l0.089,0.299l-0.185,0.853c-1.723,4.88-5.719,16.675-7.148,20.892l-1.106,0.083
						l3.627-19.51L117.888,188.39z"/>
				</g>
				<g>
					<polygon fill="#656566" points="114.759,178.14 114.799,178.085 113.605,190.169 117.883,188.375 117.902,188.439 
						113.439,191.041 109.538,210.517 113.165,191.007 					"/>
				</g>
			</g>
			<g>
				<g>
					<polygon fill="#414141" points="128.469,207.169 132.69,187.629 129.512,177.026 122.394,186.867 					"/>
				</g>
				<g>
					<polygon fill="#484848" points="129.512,177.026 132.601,187.331 127.878,189.948 					"/>
				</g>
				<g>
					<path fill="#36393B" d="M128.469,207.169l-3.112,2.205c1.43-4.217,5.426-16.012,7.149-20.892L128.469,207.169z"/>
				</g>
				<g>
					<polygon fill="#36393B" points="122.678,186.474 129.418,177.155 125.104,190.157 					"/>
				</g>
				<g>
					<path fill="#414141" d="M125.104,190.157c0,0-1.649,13.473-2.129,17.425l-0.581-20.715l0.284-0.393L125.104,190.157z"/>
				</g>
				<g>
					<path fill="#36393B" d="M127.878,189.948l-3.627,19.509l-1.275-1.875c0.479-3.953,2.129-17.425,2.129-17.425L127.878,189.948z"
						/>
				</g>
				<g>
					<path fill="#414141" d="M132.601,187.331l0.09,0.298l-0.185,0.854c-1.724,4.88-5.72,16.675-7.149,20.892l-1.106,0.083
						l3.627-19.509L132.601,187.331z"/>
				</g>
				<g>
					<polygon fill="#656566" points="129.472,177.081 129.512,177.026 128.318,189.11 132.596,187.316 132.615,187.38 
						128.152,189.982 124.25,209.458 127.878,189.948 					"/>
				</g>
			</g>
		</g>
		<g>
			<g>
				<g>
					<polygon fill="#414141" points="38.939,208.332 45.629,195.864 45.887,186.401 39.438,190.219 					"/>
				</g>
				<g>
					<polygon fill="#484848" points="45.887,186.401 45.637,195.598 42.177,195.218 					"/>
				</g>
				<g>
					<path fill="#36393B" d="M38.939,208.332l-2.381,0.108c1.764-2.435,6.695-9.248,8.779-12.031L38.939,208.332z"/>
				</g>
				<g>
					<polygon fill="#36393B" points="39.696,190.066 45.803,186.451 40.422,194.005 					"/>
				</g>
				<g>
					<path fill="#414141" d="M40.422,194.005c0,0-3.835,9.219-4.957,11.926l3.974-15.712l0.258-0.152L40.422,194.005z"/>
				</g>
				<g>
					<path fill="#36393B" d="M42.177,195.218l-6.317,12.739l-0.395-2.026c1.122-2.707,4.957-11.926,4.957-11.926L42.177,195.218z"/>
				</g>
				<g>
					<path fill="#414141" d="M45.637,195.598l-0.007,0.266l-0.292,0.544c-2.083,2.784-7.015,9.597-8.779,12.031l-0.699-0.483
						l6.317-12.739L45.637,195.598z"/>
				</g>
				<g>
					<polygon fill="#656566" points="45.851,186.423 45.887,186.401 42.623,194.811 45.637,195.585 45.635,195.642 42.338,195.377 
						35.859,207.957 42.177,195.218 					"/>
				</g>
			</g>
			<g>
				<g>
					<polygon fill="#414141" points="31.452,201.652 27.964,189.212 22.41,186.628 20.823,196.696 					"/>
				</g>
				<g>
					<polygon fill="#484848" points="22.41,186.628 27.809,189.139 25.492,193.972 					"/>
				</g>
				<g>
					<path fill="#36393B" d="M31.452,201.652l-1.371,3.412c-0.405-3.08-1.542-11.692-1.964-15.309L31.452,201.652z"/>
				</g>
				<g>
					<polygon fill="#36393B" points="20.886,196.295 22.389,186.759 23.701,196.185 					"/>
				</g>
				<g>
					<path fill="#414141" d="M23.701,196.185c0,0,3.25,7.617,4.206,9.848l-7.083-9.336l0.063-0.401L23.701,196.185z"/>
				</g>
				<g>
					<path fill="#36393B" d="M25.492,193.972l3.876,11.974l-1.461,0.086c-0.956-2.231-4.206-9.848-4.206-9.848L25.492,193.972z"/>
				</g>
				<g>
					<path fill="#414141" d="M27.809,189.139l0.156,0.073l0.153,0.543c0.423,3.617,1.559,12.229,1.964,15.309l-0.714,0.882
						l-3.876-11.974L27.809,189.139z"/>
				</g>
				<g>
					<polygon fill="#656566" points="22.4,186.684 22.41,186.628 25.516,193.242 27.8,189.135 27.834,189.151 25.686,193.78 
						29.368,205.946 25.492,193.972 					"/>
				</g>
			</g>
			<g>
				<g>
					<polygon fill="#414141" points="35.79,206.758 40.011,187.218 36.833,176.615 29.715,186.455 					"/>
				</g>
				<g>
					<polygon fill="#484848" points="36.833,176.615 39.922,186.92 35.2,189.537 					"/>
				</g>
				<g>
					<path fill="#36393B" d="M35.79,206.758l-3.112,2.206c1.43-4.216,5.425-16.012,7.148-20.891L35.79,206.758z"/>
				</g>
				<g>
					<polygon fill="#36393B" points="29.999,186.063 36.74,176.744 32.425,189.745 					"/>
				</g>
				<g>
					<path fill="#414141" d="M32.425,189.745c0,0-1.649,13.473-2.128,17.426l-0.582-20.716l0.284-0.392L32.425,189.745z"/>
				</g>
				<g>
					<path fill="#36393B" d="M35.2,189.537l-3.628,19.51l-1.275-1.875c0.479-3.953,2.128-17.426,2.128-17.426L35.2,189.537z"/>
				</g>
				<g>
					<path fill="#414141" d="M39.922,186.92l0.089,0.298l-0.185,0.854c-1.723,4.879-5.719,16.675-7.148,20.891l-1.106,0.083
						l3.628-19.51L39.922,186.92z"/>
				</g>
				<g>
					<polygon fill="#656566" points="36.793,176.67 36.833,176.615 35.64,188.699 39.917,186.905 39.937,186.969 35.473,189.57 
						31.572,209.046 35.2,189.537 					"/>
				</g>
			</g>
			<g>
				<g>
					<polygon fill="#414141" points="50.502,205.699 54.724,186.159 51.546,175.556 44.428,185.396 					"/>
				</g>
				<g>
					<polygon fill="#484848" points="51.546,175.556 54.634,185.861 49.913,188.478 					"/>
				</g>
				<g>
					<path fill="#36393B" d="M50.502,205.699l-3.111,2.205c1.43-4.216,5.425-16.011,7.148-20.891L50.502,205.699z"/>
				</g>
				<g>
					<polygon fill="#36393B" points="44.712,185.004 51.453,175.685 47.138,188.686 					"/>
				</g>
				<g>
					<path fill="#414141" d="M47.138,188.686c0,0-1.649,13.473-2.128,17.425l-0.582-20.715l0.284-0.393L47.138,188.686z"/>
				</g>
				<g>
					<path fill="#36393B" d="M49.913,188.478l-3.627,19.509l-1.275-1.876c0.479-3.952,2.128-17.425,2.128-17.425L49.913,188.478z"/>
				</g>
				<g>
					<path fill="#414141" d="M54.634,185.861l0.09,0.298l-0.185,0.854c-1.723,4.88-5.719,16.675-7.148,20.891l-1.106,0.083
						l3.627-19.509L54.634,185.861z"/>
				</g>
				<g>
					<polygon fill="#656566" points="51.506,175.61 51.546,175.556 50.353,187.64 54.63,185.846 54.649,185.91 50.187,188.511 
						46.285,207.987 49.913,188.478 					"/>
				</g>
			</g>
		</g>
		<g>
			<g>
				<polygon fill="#414141" points="82.146,202.288 95.172,151.35 88.042,122.343 68.522,146.753 63.762,201.94 				"/>
			</g>
			<g>
				<polygon fill="#484848" points="88.042,122.343 94.972,150.534 82.436,156.319 				"/>
			</g>
			<g>
				<path fill="#36393B" d="M82.146,202.288l-6.673-0.126c4.158-10.862,14.14-36.031,19.13-48.586L82.146,202.288z"/>
			</g>
			<g>
				<polygon fill="#36393B" points="69.301,145.78 87.787,122.662 75.21,156.183 				"/>
			</g>
			<g>
				<path fill="#414141" d="M75.21,156.183c0,0-5.707,35.437-7.368,45.834l-4.081-0.077l4.761-55.188l0.779-0.973L75.21,156.183z"/>
			</g>
			<g>
				<path fill="#36393B" d="M82.436,156.319L71.674,202.09l-3.832-0.072c1.662-10.397,7.368-45.834,7.368-45.834L82.436,156.319z"/>
			</g>
			<g>
				<path fill="#414141" d="M94.972,150.534l0.201,0.816l-0.569,2.225c-4.99,12.555-14.972,37.724-19.13,48.586l-3.799-0.071
					l10.761-45.771L94.972,150.534z"/>
			</g>
			<g>
				<polygon fill="#656566" points="87.933,122.48 88.042,122.343 83.667,154.2 94.961,150.494 95.004,150.667 83.143,156.477 
					71.674,202.09 82.436,156.319 				"/>
			</g>
		</g>
		<g>
			<g>
				<g>
					<polygon fill="#414141" points="72.8,206.031 79.49,193.563 79.749,184.101 73.3,187.918 					"/>
				</g>
				<g>
					<polygon fill="#484848" points="79.749,184.101 79.498,193.297 76.038,192.917 					"/>
				</g>
				<g>
					<path fill="#36393B" d="M72.8,206.031l-2.38,0.108c1.764-2.435,6.694-9.247,8.778-12.031L72.8,206.031z"/>
				</g>
				<g>
					<polygon fill="#36393B" points="73.557,187.766 79.664,184.15 74.283,191.704 					"/>
				</g>
				<g>
					<path fill="#414141" d="M74.283,191.704c0,0-3.835,9.219-4.958,11.926l3.975-15.712l0.257-0.152L74.283,191.704z"/>
				</g>
				<g>
					<path fill="#36393B" d="M76.038,192.917l-6.318,12.739l-0.395-2.025c1.123-2.707,4.958-11.926,4.958-11.926L76.038,192.917z"/>
				</g>
				<g>
					<path fill="#414141" d="M79.498,193.297l-0.008,0.266l-0.292,0.544c-2.084,2.784-7.015,9.597-8.778,12.031l-0.7-0.483
						l6.318-12.739L79.498,193.297z"/>
				</g>
				<g>
					<polygon fill="#656566" points="79.712,184.122 79.749,184.101 76.485,192.51 79.498,193.284 79.497,193.341 76.2,193.077 
						69.72,205.656 76.038,192.917 					"/>
				</g>
			</g>
			<g>
				<g>
					<polygon fill="#414141" points="65.313,199.352 61.826,186.911 56.271,184.327 54.685,194.396 					"/>
				</g>
				<g>
					<polygon fill="#484848" points="56.271,184.327 61.669,186.838 59.353,191.671 					"/>
				</g>
				<g>
					<path fill="#36393B" d="M65.313,199.352l-1.371,3.412c-0.405-3.08-1.541-11.692-1.964-15.309L65.313,199.352z"/>
				</g>
				<g>
					<polygon fill="#36393B" points="54.748,193.995 56.25,184.458 57.563,193.884 					"/>
				</g>
				<g>
					<path fill="#414141" d="M57.563,193.884c0,0,3.25,7.617,4.206,9.848l-7.084-9.336l0.063-0.401L57.563,193.884z"/>
				</g>
				<g>
					<path fill="#36393B" d="M59.353,191.671l3.875,11.974l-1.46,0.086c-0.957-2.231-4.206-9.848-4.206-9.848L59.353,191.671z"/>
				</g>
				<g>
					<path fill="#414141" d="M61.669,186.838l0.157,0.073l0.152,0.543c0.423,3.617,1.559,12.229,1.964,15.309l-0.714,0.882
						l-3.875-11.974L61.669,186.838z"/>
				</g>
				<g>
					<polygon fill="#656566" points="56.262,184.383 56.271,184.327 59.377,190.941 61.662,186.834 61.695,186.85 59.547,191.479 
						63.229,203.645 59.353,191.671 					"/>
				</g>
			</g>
			<g>
				<g>
					<polygon fill="#414141" points="69.651,204.457 73.873,184.917 70.694,174.313 63.576,184.154 					"/>
				</g>
				<g>
					<polygon fill="#484848" points="70.694,174.313 73.783,184.619 69.061,187.236 					"/>
				</g>
				<g>
					<path fill="#36393B" d="M69.651,204.457l-3.111,2.206c1.43-4.216,5.425-16.012,7.148-20.891L69.651,204.457z"/>
				</g>
				<g>
					<polygon fill="#36393B" points="63.86,183.762 70.602,174.442 66.286,187.444 					"/>
				</g>
				<g>
					<path fill="#414141" d="M66.286,187.444c0,0-1.649,13.473-2.128,17.426l-0.582-20.716l0.284-0.393L66.286,187.444z"/>
				</g>
				<g>
					<path fill="#36393B" d="M69.061,187.236l-3.628,19.51l-1.275-1.875c0.479-3.953,2.128-17.426,2.128-17.426L69.061,187.236z"/>
				</g>
				<g>
					<path fill="#414141" d="M73.783,184.619l0.09,0.298l-0.185,0.854c-1.723,4.879-5.719,16.675-7.148,20.891l-1.106,0.083
						l3.628-19.51L73.783,184.619z"/>
				</g>
				<g>
					<polygon fill="#656566" points="70.654,174.369 70.694,174.313 69.5,186.398 73.779,184.604 73.797,184.668 69.335,187.27 
						65.433,206.746 69.061,187.236 					"/>
				</g>
			</g>
			<g>
				<g>
					<polygon fill="#414141" points="84.364,203.397 88.585,183.859 85.407,173.255 78.289,183.095 					"/>
				</g>
				<g>
					<polygon fill="#484848" points="85.407,173.255 88.496,183.56 83.774,186.177 					"/>
				</g>
				<g>
					<path fill="#36393B" d="M84.364,203.397l-3.111,2.206c1.43-4.216,5.425-16.011,7.149-20.891L84.364,203.397z"/>
				</g>
				<g>
					<polygon fill="#36393B" points="78.573,182.703 85.314,173.384 80.999,186.386 					"/>
				</g>
				<g>
					<path fill="#414141" d="M80.999,186.386c0,0-1.649,13.473-2.128,17.425l-0.582-20.716l0.284-0.392L80.999,186.386z"/>
				</g>
				<g>
					<path fill="#36393B" d="M83.774,186.177l-3.628,19.509l-1.275-1.875c0.479-3.953,2.128-17.425,2.128-17.425L83.774,186.177z"/>
				</g>
				<g>
					<path fill="#414141" d="M88.496,183.56l0.089,0.299l-0.184,0.853c-1.724,4.88-5.719,16.675-7.149,20.891l-1.106,0.083
						l3.628-19.509L88.496,183.56z"/>
				</g>
				<g>
					<polygon fill="#656566" points="85.367,173.31 85.407,173.255 84.214,185.339 88.492,183.545 88.511,183.609 84.047,186.21 
						80.146,205.686 83.774,186.177 					"/>
				</g>
			</g>
		</g>
	</g>
</g>
</svg>
