<?xml version="1.0" encoding="utf-8"?>
<!-- Generator: Adobe Illustrator 16.0.0, SVG Export Plug-In . SVG Version: 6.00 Build 0)  -->
<!DOCTYPE svg PUBLIC "-//W3C//DTD SVG 1.1//EN" "http://www.w3.org/Graphics/SVG/1.1/DTD/svg11.dtd">
<svg version="1.1" id="Layer_1" xmlns="http://www.w3.org/2000/svg" xmlns:xlink="http://www.w3.org/1999/xlink" x="0px" y="0px"
	 width="40.702px" height="83.562px" viewBox="0 0 40.702 83.562" enable-background="new 0 0 40.702 83.562" xml:space="preserve">
<path fill="#4252A4" d="M39.348,22.661L29.159,12.353c-1.041-1.053-2.543-1.657-4.123-1.657l-4.663-0.002l-4.663-0.002
	c-1.58,0-3.083,0.603-4.124,1.654l-10.2,10.301c-0.877,0.886-1.36,2.022-1.361,3.201L0,78.691c-0.001,2.683,2.452,4.858,5.48,4.859
	l29.714,0.011c3.028,0.001,5.484-2.172,5.486-4.854l0.023-52.845C40.707,24.685,40.222,23.547,39.348,22.661z M20.368,21.487
	c-1.931,0-3.494-1.387-3.494-3.096c0.001-1.71,1.566-3.096,3.497-3.095c1.929,0.001,3.495,1.388,3.493,3.097
	C23.864,20.104,22.297,21.488,20.368,21.487z"/>
<g>
	<path fill="#2791D0" d="M40.705,25.862c0.002-1.178-0.482-2.315-1.356-3.201l-5.566-5.631L0.023,31.057L0.016,44.865L40.705,27.96
		V25.862z"/>
	<polygon fill="#2791D0" points="40.702,34.353 0.013,51.258 0.009,59.952 40.698,43.048 	"/>
</g>
<path fill="#F0EFEF" d="M34.617,81.708l-1.73-0.001v-0.384l1.73,0.002V81.708z M31.153,81.707l-1.73-0.001v-0.384l1.73,0.001V81.707
	z M27.691,81.706l-1.732-0.001v-0.384l1.732,0.001V81.706z M24.227,81.704h-1.731V81.32h1.731V81.704z M20.763,81.703l-1.731-0.001
	v-0.384l1.731,0.001V81.703z M17.3,81.702l-1.731-0.001v-0.384l1.731,0.001V81.702z M13.837,81.7h-1.732v-0.384h1.732V81.7z
	 M10.373,81.699l-1.731-0.001v-0.384l1.731,0.001V81.699z M6.91,81.697H5.482c-0.622,0-1.23-0.151-1.759-0.438l0.225-0.327
	c0.461,0.249,0.992,0.381,1.534,0.381l1.428,0.001V81.697z M36.4,81.514l-0.153-0.358c0.504-0.171,0.947-0.461,1.282-0.84
	l0.34,0.236C37.487,80.985,36.978,81.317,36.4,81.514z M2.476,80.079c-0.25-0.425-0.383-0.904-0.383-1.387v-0.185h0.433v0.185
	c0,0.426,0.112,0.833,0.334,1.209L2.476,80.079z M38.565,79.056l-0.431-0.045c0.014-0.1,0.021-0.202,0.021-0.305V77.5h0.434v1.206
	C38.588,78.824,38.58,78.94,38.565,79.056z M2.526,76.974H2.093l0.001-1.534h0.433L2.526,76.974z M38.588,75.966h-0.432v-1.534
	h0.434L38.588,75.966z M2.528,73.905H2.095l0.001-1.533h0.433L2.528,73.905z M38.59,72.897h-0.434l0.001-1.533h0.434L38.59,72.897z
	 M2.529,70.838H2.096l0.001-1.534H2.53L2.529,70.838z M38.591,69.83h-0.434l0.002-1.534h0.432V69.83z M2.531,67.77H2.098l0-1.534
	h0.433L2.531,67.77z M38.593,66.762h-0.432v-1.533h0.432V66.762z M2.532,64.702H2.099L2.1,63.168h0.433L2.532,64.702z
	 M38.595,63.694h-0.434l0.002-1.534h0.432V63.694z M2.534,61.634H2.101L2.102,60.1h0.433L2.534,61.634z M38.597,60.626h-0.434
	l0.001-1.534h0.433V60.626z M2.535,58.565H2.102l0.001-1.533h0.433L2.535,58.565z M38.598,57.559h-0.434l0.002-1.534h0.432V57.559z
	 M2.537,55.498H2.104l0-1.534h0.433L2.537,55.498z M38.598,54.49h-0.432l0.002-1.534H38.6L38.598,54.49z M2.538,52.43H2.105
	l0.001-1.533h0.433L2.538,52.43z M38.6,51.423h-0.432v-1.534h0.434L38.6,51.423z M2.54,49.362H2.106l0.001-1.534H2.54L2.54,49.362z
	 M38.602,48.354h-0.433V46.82h0.433V48.354z M2.541,46.294H2.108l0.001-1.534h0.433L2.541,46.294z M38.603,45.286h-0.432v-1.533
	h0.434L38.603,45.286z M2.542,43.227H2.109l0.001-1.534h0.433L2.542,43.227z M38.605,42.219h-0.434l0.002-1.534h0.432V42.219z
	 M2.544,40.158H2.111l0-1.534h0.433L2.544,40.158z M38.607,39.15h-0.434l0.002-1.534h0.432V39.15z M2.545,37.091H2.112l0-1.534
	h0.433L2.545,37.091z M38.609,36.083h-0.434l0.001-1.534h0.433V36.083z M2.547,34.022H2.114l0.001-1.534h0.433L2.547,34.022z
	 M38.61,33.015h-0.434l0.002-1.534h0.432V33.015z M2.548,30.955H2.115l0.001-1.534h0.433L2.548,30.955z M38.612,29.947h-0.434
	v-1.534h0.434V29.947z M2.55,27.887H2.117l0-1.534H2.55L2.55,27.887z M38.614,26.879H38.18v-1.018c0-0.16-0.017-0.321-0.051-0.479
	l0.427-0.07c0.037,0.181,0.058,0.365,0.058,0.549V26.879z M2.747,24.911l-0.404-0.138c0.144-0.332,0.351-0.637,0.616-0.905
	l0.401-0.405l0.325,0.253l-0.401,0.405C3.054,24.355,2.873,24.621,2.747,24.911z M37.426,24.114l-1.14-1.154l0.326-0.253
	l1.141,1.154L37.426,24.114z M4.829,22.563L4.503,22.31l1.142-1.153l0.325,0.253L4.829,22.563z M35.146,21.806l-1.142-1.153
	l0.326-0.253l1.141,1.153L35.146,21.806z M7.112,20.256l-0.325-0.252l1.142-1.153l0.325,0.252L7.112,20.256z M32.864,19.498
	l-1.142-1.154l0.327-0.253l1.142,1.154L32.864,19.498z M9.396,17.95l-0.325-0.253l1.142-1.153l0.325,0.253L9.396,17.95z
	 M30.583,17.189l-1.141-1.154l0.326-0.252l1.141,1.153L30.583,17.189z M11.68,15.644l-0.325-0.253l1.142-1.153l0.325,0.253
	L11.68,15.644z M28.302,14.882l-1.043-1.056c-0.032-0.031-0.063-0.062-0.094-0.091l0.313-0.266c0.035,0.034,0.072,0.069,0.107,0.104
	l1.043,1.055L28.302,14.882z M13.985,13.419l-0.252-0.312c0.504-0.32,1.098-0.512,1.717-0.554l0.033,0.383
	C14.942,12.973,14.425,13.14,13.985,13.419z M25.791,13.02c-0.246-0.058-0.501-0.087-0.757-0.087l-0.909-0.001v-0.383h0.909
	c0.294,0,0.586,0.034,0.869,0.101L25.791,13.02z M22.393,12.931h-1.732v-0.384l1.732,0.001V12.931z M18.929,12.93l-1.732-0.001
	v-0.383l1.732,0.001V12.93z"/>
<path fill="#A31E26" d="M14.629,0c0.072,0.984,0.208,1.92,0.354,2.762c0.471,2.705,1.126,5.354,1.861,7.933l-0.894,0.001
	c-0.719-2.54-1.359-5.149-1.823-7.816c-0.141-0.807-0.271-1.697-0.348-2.633"/>
<path fill="#A31E26" d="M31.663,0.072c-1.427,6.64-5.371,12.669-8.523,16.649c-0.139,0.173-0.406,0.215-0.604,0.094
	s-0.244-0.36-0.107-0.534c4.287-5.411,7.22-11.123,8.355-16.237"/>
<g>
	<g>
		<g>
			<path fill="#FFFFFF" d="M5.778,55.634c0.633,0.345,1.559,0.632,2.533,0.632c1.445,0,2.289-0.675,2.289-1.652
				c0-0.906-0.584-1.423-2.062-1.927c-1.786-0.561-2.89-1.38-2.89-2.745c0-1.509,1.413-2.63,3.54-2.63
				c1.12,0,1.932,0.229,2.419,0.474l-0.39,1.021c-0.357-0.172-1.088-0.46-2.078-0.46c-1.494,0-2.062,0.791-2.062,1.452
				c0,0.905,0.666,1.352,2.175,1.868c1.851,0.633,2.793,1.424,2.793,2.847c0,1.495-1.25,2.788-3.832,2.788
				c-1.055,0-2.208-0.272-2.792-0.618L5.778,55.634z"/>
			<path fill="#FFFFFF" d="M15.388,47.47v4.053h5.293V47.47h1.428v9.688h-1.428v-4.542h-5.293v4.542h-1.413V47.47H15.388z"/>
			<path fill="#FFFFFF" d="M25.972,47.47v9.688H24.56V47.47H25.972z"/>
			<path fill="#FFFFFF" d="M28.439,47.584c0.682-0.101,1.574-0.187,2.711-0.187c1.396,0,2.42,0.287,3.068,0.805
				c0.602,0.46,0.959,1.164,0.959,2.027c0,0.876-0.293,1.566-0.846,2.069c-0.746,0.704-1.963,1.063-3.344,1.063
				c-0.422,0-0.813-0.014-1.137-0.086v3.881h-1.412V47.584z M29.851,52.256c0.309,0.072,0.699,0.101,1.17,0.101
				c1.703,0,2.742-0.733,2.742-2.07c0-1.279-1.021-1.896-2.58-1.896c-0.617,0-1.088,0.043-1.332,0.101V52.256z"/>
		</g>
	</g>
	<g>
		<g>
			<path fill="#FFFFFF" d="M6.809,34.492h5.484v0.977H8.123v2.998h3.852v0.964H8.123v4.081H6.809V34.492z"/>
			<path fill="#FFFFFF" d="M14.165,34.613c0.665-0.121,1.617-0.188,2.523-0.188c1.405,0,2.311,0.228,2.946,0.736
				c0.513,0.401,0.8,1.017,0.8,1.713c0,1.191-0.845,1.98-1.918,2.302v0.04c0.786,0.241,1.254,0.884,1.496,1.82
				c0.332,1.258,0.574,2.128,0.785,2.476h-1.36c-0.166-0.254-0.393-1.03-0.68-2.154c-0.302-1.245-0.846-1.713-2.039-1.753h-1.239
				v3.907h-1.314V34.613z M15.479,38.721h1.344c1.405,0,2.296-0.683,2.296-1.713c0-1.164-0.952-1.672-2.342-1.686
				c-0.634,0-1.087,0.053-1.299,0.107V38.721z"/>
			<path fill="#FFFFFF" d="M27.564,39.283h-3.959v3.252h4.412v0.977h-5.727v-9.02h5.5v0.977h-4.186v2.851h3.959V39.283z"/>
			<path fill="#FFFFFF" d="M34.994,39.283h-3.957v3.252h4.41v0.977h-5.725v-9.02h5.498v0.977h-4.184v2.851h3.957V39.283z"/>
		</g>
	</g>
	<g>
		<g>
			<path fill="#FFFFFF" d="M6.991,65.237H5.603v-0.444h3.381v0.444H7.588v3.598H6.991V65.237z"/>
			<path fill="#FFFFFF" d="M11.957,67.359c0,1.074-0.84,1.542-1.633,1.542c-0.887,0-1.572-0.576-1.572-1.493
				c0-0.972,0.718-1.542,1.626-1.542C11.32,65.866,11.957,66.473,11.957,67.359z M9.355,67.39c0,0.636,0.414,1.115,0.996,1.115
				c0.569,0,0.996-0.474,0.996-1.127c0-0.492-0.277-1.115-0.982-1.115C9.66,66.263,9.355,66.838,9.355,67.39z"/>
			<path fill="#FFFFFF" d="M14.523,68.835l-0.047-0.366h-0.02c-0.183,0.229-0.535,0.433-1.003,0.433
				c-0.664,0-1.002-0.414-1.002-0.834c0-0.701,0.705-1.085,1.971-1.079v-0.061c0-0.239-0.074-0.671-0.745-0.671
				c-0.305,0-0.623,0.083-0.854,0.216l-0.136-0.349c0.271-0.155,0.664-0.258,1.077-0.258c1.003,0,1.247,0.606,1.247,1.188v1.086
				c0,0.252,0.014,0.497,0.054,0.695H14.523z M13.514,64.68l0.589,0.857h-0.42l-0.827-0.857H13.514z M14.436,67.354
				c-0.65-0.012-1.389,0.09-1.389,0.654c0,0.342,0.257,0.503,0.562,0.503c0.427,0,0.698-0.239,0.793-0.485
				c0.02-0.054,0.034-0.114,0.034-0.168V67.354z"/>
			<path fill="#FFFFFF" d="M15.973,66.718c0-0.3-0.007-0.545-0.027-0.785h0.529l0.034,0.479h0.014
				c0.163-0.275,0.542-0.546,1.084-0.546c0.454,0,1.158,0.24,1.158,1.235v1.733h-0.596v-1.673c0-0.468-0.196-0.857-0.759-0.857
				c-0.393,0-0.698,0.245-0.799,0.539C16.583,66.91,16.569,67,16.569,67.09v1.745h-0.596V66.718z"/>
			<path fill="#FFFFFF" d="M23.404,68.385H23.39c-0.176,0.288-0.542,0.517-1.07,0.517c-0.766,0-1.389-0.588-1.389-1.47
				c0-1.085,0.793-1.565,1.483-1.565c0.509,0,0.847,0.223,1.009,0.504h0.014l0.021-0.438h0.563C24.007,66.179,24,66.431,24,66.73
				v3.292h-0.596V68.385z M23.404,67.107c0-0.071-0.007-0.155-0.027-0.222c-0.088-0.323-0.406-0.6-0.854-0.6
				c-0.617,0-0.989,0.462-0.989,1.115c0,0.576,0.312,1.08,0.969,1.08c0.386,0,0.718-0.21,0.854-0.576
				c0.026-0.071,0.047-0.174,0.047-0.252V67.107z"/>
			<path fill="#FFFFFF" d="M27.726,68.043c0,0.3,0.006,0.564,0.027,0.792h-0.529l-0.033-0.474h-0.014
				c-0.156,0.233-0.502,0.54-1.084,0.54c-0.516,0-1.131-0.252-1.131-1.271v-1.697h0.596v1.607c0,0.552,0.189,0.923,0.73,0.923
				c0.4,0,0.678-0.245,0.787-0.479c0.033-0.078,0.055-0.174,0.055-0.27v-1.781h0.596V68.043z"/>
			<path fill="#FFFFFF" d="M31.681,67.359c0,1.074-0.84,1.542-1.633,1.542c-0.887,0-1.57-0.576-1.57-1.493
				c0-0.972,0.717-1.542,1.625-1.542C31.044,65.866,31.681,66.473,31.681,67.359z M29.08,67.39c0,0.636,0.414,1.115,0.996,1.115
				c0.57,0,0.996-0.474,0.996-1.127c0-0.492-0.277-1.115-0.982-1.115S29.08,66.838,29.08,67.39z M30.328,64.68l0.582,0.857h-0.455
				l-0.344-0.564h-0.014l-0.346,0.564h-0.434l0.568-0.857H30.328z M31.736,64.188l-0.67,0.792H30.72l0.461-0.792H31.736z"/>
			<path fill="#FFFFFF" d="M34.771,68.727c-0.156,0.072-0.502,0.168-0.941,0.168c-0.99,0-1.633-0.594-1.633-1.48
				c0-0.894,0.689-1.541,1.76-1.541c0.354,0,0.664,0.077,0.828,0.149l-0.137,0.408c-0.143-0.072-0.365-0.139-0.691-0.139
				c-0.752,0-1.158,0.492-1.158,1.098c0,0.672,0.488,1.086,1.139,1.086c0.338,0,0.563-0.078,0.732-0.145L34.771,68.727z"/>
		</g>
	</g>
</g>
</svg>
