<?xml version="1.0" encoding="utf-8"?>
<!-- Generator: Adobe Illustrator 16.0.0, SVG Export Plug-In . SVG Version: 6.00 Build 0)  -->
<!DOCTYPE svg PUBLIC "-//W3C//DTD SVG 1.1//EN" "http://www.w3.org/Graphics/SVG/1.1/DTD/svg11.dtd">
<svg version="1.1" id="Layer_1" xmlns="http://www.w3.org/2000/svg" xmlns:xlink="http://www.w3.org/1999/xlink" x="0px" y="0px"
	 width="159px" height="49.435px" viewBox="0 0 159 49.435" enable-background="new 0 0 159 49.435" xml:space="preserve">
<path fill="#3FBFB8" d="M133.123,49.435H27.543c-14.232,0-25.876-11.122-25.876-24.718l0,0C1.667,11.123,13.311,0,27.543,0h105.58
	C147.354,0,159,11.123,159,24.717l0,0C159,38.313,147.354,49.435,133.123,49.435z"/>
<ellipse fill="#FFFFFF" cx="28.244" cy="24.717" rx="19.756" ry="18.996"/>
<g>
	<path fill="#FFFFFF" d="M56.19,20.903h-3.275v-1.11h7.972v1.11h-3.291v9H56.19V20.903z"/>
	<path fill="#FFFFFF" d="M63.471,19.793v4.229h5.208v-4.229h1.406v10.109h-1.406v-4.74h-5.208v4.74h-1.39V19.793H63.471z"/>
	<path fill="#FFFFFF" d="M78.069,25.163h-4.186v3.646h4.665v1.095h-6.055V19.793h5.815v1.095h-4.426v3.195h4.186V25.163z
		 M75.913,17.543l1.677,1.71h-1.182l-1.007-1.035h-0.032l-1.022,1.035h-1.15l1.646-1.71H75.913z"/>
	<path fill="#FFFFFF" d="M89.424,25.463c-0.079-1.41-0.176-3.105-0.159-4.365h-0.048c-0.367,1.185-0.815,2.445-1.358,3.84
		l-1.901,4.905h-1.054l-1.741-4.815c-0.512-1.425-0.943-2.729-1.246-3.93h-0.032c-0.032,1.26-0.112,2.955-0.208,4.47l-0.287,4.335
		h-1.326l0.751-10.109h1.773l1.837,4.89c0.447,1.245,0.814,2.354,1.086,3.405h0.048c0.272-1.021,0.655-2.131,1.135-3.405l1.917-4.89
		h1.773l0.671,10.109h-1.357L89.424,25.463z"/>
	<path fill="#FFFFFF" d="M98.364,29.903l-3.515-10.109h1.502l1.678,4.979c0.463,1.365,0.862,2.595,1.15,3.78h0.032
		c0.303-1.17,0.75-2.445,1.229-3.766l1.821-4.994h1.486l-3.851,10.109H98.364z"/>
	<path fill="#FFFFFF" d="M105.742,26.723l-1.118,3.18h-1.438l3.658-10.109h1.678l3.675,10.109h-1.486l-1.15-3.18H105.742z
		 M107.052,17.499l1.47,1.74h-1.135l-2.028-1.74H107.052z M109.273,25.703l-1.055-2.91c-0.239-0.66-0.399-1.26-0.559-1.845h-0.032
		c-0.16,0.6-0.336,1.215-0.543,1.83l-1.055,2.924H109.273z"/>
	<path fill="#FFFFFF" d="M122.737,24.743c0,3.48-2.252,5.325-5,5.325c-2.844,0-4.841-2.07-4.841-5.13c0-3.21,2.125-5.31,5-5.31
		C120.836,19.628,122.737,21.743,122.737,24.743z M114.381,24.908c0,2.16,1.246,4.095,3.436,4.095c2.204,0,3.45-1.904,3.45-4.199
		c0-2.01-1.118-4.11-3.435-4.11C115.532,20.693,114.381,22.688,114.381,24.908z"/>
	<path fill="#FFFFFF" d="M136.12,29.453c-0.623,0.21-1.854,0.556-3.308,0.556c-1.629,0-2.972-0.391-4.025-1.335
		c-0.927-0.841-1.502-2.19-1.502-3.766c0.016-3.015,2.221-5.219,5.831-5.219c1.246,0,2.221,0.255,2.684,0.465l-0.335,1.065
		c-0.575-0.24-1.294-0.435-2.381-0.435c-2.62,0-4.329,1.53-4.329,4.065c0,2.564,1.646,4.08,4.153,4.08
		c0.911,0,1.534-0.12,1.854-0.271v-3.015h-2.188v-1.05h3.547V29.453z"/>
	<path fill="#FFFFFF" d="M139.63,19.793v10.109h-1.391V19.793H139.63z"/>
	<path fill="#FFFFFF" d="M151.258,24.743c0,3.48-2.252,5.325-5,5.325c-2.844,0-4.841-2.07-4.841-5.13c0-3.21,2.125-5.31,5-5.31
		C149.358,19.628,151.258,21.743,151.258,24.743z M142.903,24.908c0,2.16,1.246,4.095,3.436,4.095c2.204,0,3.45-1.904,3.45-4.199
		c0-2.01-1.118-4.11-3.435-4.11C144.053,20.693,142.903,22.688,142.903,24.908z M145.97,19.073c0.271-0.645,0.847-0.765,0.847-1.26
		c0-0.285-0.224-0.465-0.543-0.465s-0.606,0.27-0.782,0.525l-0.544-0.3c0.304-0.54,0.783-1.005,1.582-1.005
		c0.751,0,1.326,0.465,1.326,1.08c0,0.765-0.703,0.93-1.135,1.62L145.97,19.073z"/>
</g>
<g>
	<path fill="#3FBFB7" d="M46.417,25.321 M10.486,25.321 M35.211,23.069h-4.514v-4.532c0-1.233-0.996-2.23-2.224-2.23h-0.044
		c-1.229,0-2.223,0.997-2.223,2.23v4.532h-4.514c-1.229,0-2.224,0.997-2.224,2.23v0.043c0,1.233,0.995,2.233,2.224,2.233h4.514
		v4.528c0,1.232,0.994,2.231,2.223,2.231h0.044c1.229,0,2.224-0.999,2.224-2.231v-4.528h4.514c1.228,0,2.223-1,2.223-2.233v-0.043
		C37.434,24.066,36.438,23.069,35.211,23.069z"/>
</g>
</svg>
