<?xml version="1.0" encoding="utf-8"?>
<!-- Generator: Adobe Illustrator 16.0.0, SVG Export Plug-In . SVG Version: 6.00 Build 0)  -->
<!DOCTYPE svg PUBLIC "-//W3C//DTD SVG 1.1//EN" "http://www.w3.org/Graphics/SVG/1.1/DTD/svg11.dtd">
<svg version="1.1" id="Layer_1" xmlns="http://www.w3.org/2000/svg" xmlns:xlink="http://www.w3.org/1999/xlink" x="0px" y="0px"
	 width="150.75px" height="48.75px" viewBox="0 0 150.75 48.75" enable-background="new 0 0 150.75 48.75" xml:space="preserve">
<g>
	<path fill="#9FC750" d="M146.951,25.324c-0.754-5.1-10.795-20.48-13.6-20.832c-2.119-0.265-57.029-1.15-95.341-1.15
		c-25.165,0-31.819,0.387-32.971,0.711c0.002,0-0.387,0.207-0.783,2.123C2.446,14.929,3.885,41.606,5.353,44
		c1.555,0.79,16.987,1.699,55.64,1.699c36.748,0,70.822-0.863,72.919-1.848C138.191,41.843,147.633,29.936,146.951,25.324z"/>
	<path fill="#78993D" d="M148.309,25.07c-0.723-4.876-10.824-21.619-14.805-22.117c-2.414-0.302-59.135-1.16-95.494-1.16
		c-20.315,0-31.521,0.255-33.305,0.757c-0.88,0.248-1.305,1.419-1.548,2.28C0.937,12.679,2.29,42.36,4.351,45.07
		c0.346,0.455,0.925,1.217,18.19,1.731c9.793,0.292,23.09,0.446,38.451,0.446c27.929,0,70.589-0.625,73.447-1.967
		C138.775,43.246,149.15,30.763,148.309,25.07z M5.353,44C3.885,41.606,2.446,14.929,4.256,6.176C4.653,4.26,5.042,4.053,5.04,4.053
		c1.151-0.324,7.806-0.711,32.971-0.711c38.312,0,93.222,0.885,95.341,1.15c2.805,0.351,12.846,15.731,13.6,20.832
		c0.682,4.611-8.76,16.519-13.039,18.527c-2.098,0.984-36.172,1.848-72.919,1.848C22.34,45.699,6.908,44.79,5.353,44z"/>
	<path fill="#93B946" d="M145.973,29.509c-3.449,2.517-8.236,5.267-14.146,6.813c-12.83,3.356-94.859,3.872-113.648-3.356
		C9.874,29.77,5.599,23.901,3.414,18.347C3.349,29.232,4.344,42.354,5.353,44c1.555,0.79,16.987,1.699,55.64,1.699
		c36.748,0,70.822-0.863,72.919-1.848C137.195,42.31,143.518,34.938,145.973,29.509z"/>
	<path fill="#C5D662" d="M118.357,9.488c-0.473-1.857-2.5-2.458-4.195-2.749c-3.291-0.564-6.611-1.13-9.936-0.917
		c-1.996,0.128-3.967,0.537-5.93,0.956C97.723,6.9,97.135,7.03,96.643,7.384s-0.871,0.989-0.795,1.641
		c0.131,1.078,1.287,1.509,2.24,1.692c2.705,0.521,5.43,0.914,8.164,1.175C110.428,12.291,114.973,12.27,118.357,9.488z"/>
	<path fill="#C5D662" d="M127.846,6.121c-1.574-0.201-3.172-0.168-4.738,0.096c-1.125,0.19-2.502,0.864-2.453,2.146
		c0.045,1.207,1.324,1.789,2.385,1.957c2.014,0.318,4.08,0.201,6.055-0.344c0.473-0.13,0.973-0.31,1.268-0.746
		c0.461-0.682,0.191-1.734-0.389-2.289C129.393,6.388,128.602,6.217,127.846,6.121z"/>
</g>
<g>
	<path fill="#FFFFFF" d="M44.761,30.074c0.104,0.229,0.173,0.412,0.205,0.551c0.032,0.137,0.013,0.242-0.057,0.314
		c-0.07,0.072-0.196,0.117-0.38,0.137c-0.183,0.021-0.438,0.03-0.764,0.03c-0.273,0-0.488-0.007-0.646-0.02
		c-0.157-0.014-0.28-0.034-0.371-0.063c-0.09-0.03-0.155-0.07-0.196-0.123s-0.075-0.119-0.104-0.197l-2.12-4.592l-2.112,4.592
		c-0.035,0.078-0.073,0.145-0.113,0.197c-0.041,0.053-0.106,0.093-0.196,0.123c-0.091,0.029-0.216,0.05-0.375,0.063
		c-0.16,0.013-0.371,0.02-0.633,0.02c-0.303,0-0.537-0.01-0.703-0.03c-0.165-0.02-0.277-0.064-0.336-0.137
		c-0.058-0.072-0.069-0.178-0.034-0.314c0.034-0.139,0.107-0.321,0.218-0.551l2.705-5.556l-2.513-5.221
		c-0.105-0.236-0.177-0.424-0.214-0.565c-0.038-0.141-0.023-0.246,0.043-0.315c0.067-0.069,0.19-0.111,0.371-0.127
		c0.181-0.017,0.437-0.025,0.768-0.025c0.273,0,0.49,0.007,0.65,0.02c0.16,0.014,0.287,0.035,0.38,0.064
		c0.093,0.03,0.158,0.071,0.196,0.123c0.038,0.053,0.074,0.118,0.109,0.197l1.98,4.208l1.929-4.208
		c0.035-0.079,0.071-0.144,0.109-0.197c0.037-0.052,0.099-0.093,0.183-0.123c0.085-0.029,0.201-0.05,0.35-0.064
		c0.148-0.013,0.354-0.02,0.615-0.02c0.291,0,0.521,0.008,0.689,0.025c0.168,0.016,0.285,0.061,0.349,0.132
		c0.064,0.072,0.08,0.177,0.048,0.315c-0.031,0.138-0.097,0.324-0.196,0.561l-2.513,5.191L44.761,30.074z"/>
	<path fill="#FFFFFF" d="M53.252,30.035c0,0.189-0.008,0.349-0.021,0.477c-0.015,0.127-0.037,0.23-0.065,0.31
		c-0.029,0.079-0.065,0.136-0.109,0.172s-0.092,0.054-0.145,0.054H47.24c-0.192,0-0.354-0.063-0.484-0.191
		c-0.131-0.127-0.196-0.336-0.196-0.624V19.14c0-0.288,0.065-0.497,0.196-0.624c0.131-0.128,0.292-0.192,0.484-0.192h5.638
		c0.052,0,0.099,0.017,0.14,0.049c0.04,0.033,0.075,0.09,0.104,0.172s0.051,0.187,0.065,0.314c0.015,0.128,0.021,0.29,0.021,0.487
		c0,0.184-0.007,0.339-0.021,0.467s-0.036,0.231-0.065,0.31s-0.064,0.136-0.104,0.172c-0.041,0.036-0.088,0.054-0.14,0.054h-4.032
		v3.107h3.412c0.053,0,0.101,0.019,0.145,0.054c0.043,0.036,0.08,0.092,0.108,0.167c0.029,0.076,0.051,0.177,0.065,0.305
		c0.015,0.128,0.022,0.284,0.022,0.466c0,0.191-0.008,0.348-0.022,0.473s-0.036,0.225-0.065,0.3
		c-0.028,0.075-0.065,0.13-0.108,0.162c-0.044,0.033-0.092,0.05-0.145,0.05h-3.412v3.588h4.066c0.053,0,0.101,0.019,0.145,0.055
		s0.08,0.094,0.109,0.172c0.028,0.078,0.051,0.182,0.065,0.31C53.245,29.686,53.252,29.845,53.252,30.035z"/>
	<path fill="#FFFFFF" d="M68.437,30.693c0,0.065-0.017,0.125-0.049,0.178c-0.031,0.052-0.09,0.094-0.174,0.127
		c-0.085,0.033-0.196,0.059-0.336,0.078c-0.14,0.021-0.317,0.03-0.532,0.03c-0.21,0-0.385-0.01-0.524-0.03
		c-0.14-0.02-0.25-0.045-0.331-0.078c-0.082-0.033-0.14-0.075-0.175-0.127c-0.035-0.053-0.052-0.112-0.052-0.178V20.34h-0.018
		l-3.272,10.344c-0.023,0.086-0.062,0.156-0.114,0.211c-0.052,0.057-0.123,0.101-0.213,0.133c-0.091,0.033-0.205,0.055-0.345,0.064
		s-0.309,0.015-0.507,0.015c-0.197,0-0.366-0.009-0.506-0.024c-0.14-0.017-0.255-0.043-0.345-0.079s-0.161-0.08-0.214-0.132
		c-0.053-0.053-0.087-0.115-0.104-0.188L57.467,20.34H57.45v10.354c0,0.065-0.016,0.125-0.048,0.178
		c-0.032,0.052-0.092,0.094-0.179,0.127c-0.088,0.033-0.199,0.059-0.336,0.078c-0.137,0.021-0.313,0.03-0.528,0.03
		c-0.209,0-0.384-0.01-0.523-0.03c-0.14-0.02-0.252-0.045-0.336-0.078c-0.085-0.033-0.143-0.075-0.175-0.127
		c-0.032-0.053-0.048-0.112-0.048-0.178V19.356c0-0.334,0.078-0.59,0.235-0.767c0.157-0.177,0.367-0.266,0.629-0.266h1.501
		c0.268,0,0.497,0.024,0.689,0.074c0.191,0.049,0.357,0.131,0.497,0.246c0.14,0.115,0.256,0.266,0.349,0.453
		c0.094,0.187,0.175,0.418,0.245,0.693l2.443,7.581H61.9l2.531-7.561c0.075-0.275,0.158-0.508,0.249-0.698
		c0.09-0.19,0.194-0.344,0.313-0.462c0.119-0.118,0.261-0.202,0.424-0.251c0.162-0.049,0.352-0.074,0.567-0.074h1.544
		c0.157,0,0.293,0.023,0.406,0.069s0.206,0.113,0.279,0.202c0.072,0.088,0.128,0.197,0.166,0.324
		c0.037,0.128,0.057,0.274,0.057,0.438V30.693z"/>
	<path fill="#FFFFFF" d="M82.451,19.386c0,0.19-0.008,0.353-0.021,0.487s-0.037,0.242-0.064,0.324
		c-0.029,0.082-0.066,0.143-0.109,0.182c-0.045,0.039-0.092,0.059-0.145,0.059h-2.828v10.255c0,0.065-0.018,0.125-0.057,0.178
		c-0.037,0.052-0.1,0.094-0.188,0.127c-0.086,0.033-0.205,0.059-0.354,0.078c-0.148,0.021-0.332,0.03-0.553,0.03
		c-0.223,0-0.406-0.01-0.555-0.03c-0.148-0.02-0.266-0.045-0.354-0.078s-0.15-0.075-0.188-0.127
		c-0.039-0.053-0.057-0.112-0.057-0.178V20.438h-2.828c-0.059,0-0.108-0.02-0.148-0.059c-0.041-0.04-0.076-0.1-0.104-0.182
		c-0.029-0.082-0.052-0.19-0.065-0.324c-0.015-0.134-0.022-0.297-0.022-0.487c0-0.197,0.008-0.364,0.022-0.501
		c0.014-0.138,0.036-0.248,0.065-0.33c0.028-0.082,0.063-0.141,0.104-0.177c0.04-0.036,0.09-0.054,0.148-0.054h7.958
		c0.053,0,0.1,0.018,0.145,0.054c0.043,0.036,0.08,0.095,0.109,0.177c0.027,0.082,0.051,0.192,0.064,0.33
		S82.451,19.189,82.451,19.386z"/>
	<path fill="#FFFFFF" d="M92.6,30.693c0,0.065-0.018,0.125-0.057,0.178c-0.037,0.052-0.1,0.094-0.188,0.127
		c-0.086,0.033-0.203,0.059-0.348,0.078c-0.146,0.021-0.33,0.03-0.551,0.03c-0.227,0-0.414-0.01-0.563-0.03
		c-0.148-0.02-0.266-0.045-0.35-0.078s-0.145-0.075-0.184-0.127c-0.037-0.053-0.057-0.112-0.057-0.178v-5.143h-4.223v5.143
		c0,0.065-0.018,0.125-0.053,0.178c-0.035,0.052-0.096,0.094-0.184,0.127c-0.086,0.033-0.203,0.059-0.35,0.078
		c-0.145,0.021-0.33,0.03-0.557,0.03c-0.223,0-0.406-0.01-0.555-0.03c-0.148-0.02-0.266-0.045-0.354-0.078s-0.15-0.075-0.188-0.127
		c-0.039-0.053-0.057-0.112-0.057-0.178V18.678c0-0.065,0.018-0.125,0.057-0.177c0.037-0.052,0.1-0.095,0.188-0.127
		s0.205-0.059,0.354-0.079c0.148-0.02,0.332-0.03,0.555-0.03c0.227,0,0.412,0.01,0.557,0.03c0.146,0.02,0.264,0.046,0.35,0.079
		c0.088,0.033,0.148,0.075,0.184,0.127c0.035,0.053,0.053,0.112,0.053,0.177v4.67h4.223v-4.67c0-0.065,0.02-0.125,0.057-0.177
		c0.039-0.052,0.1-0.095,0.184-0.127s0.201-0.059,0.35-0.079c0.148-0.02,0.336-0.03,0.563-0.03c0.221,0,0.404,0.01,0.551,0.03
		c0.145,0.02,0.262,0.046,0.348,0.079c0.088,0.033,0.15,0.075,0.188,0.127c0.039,0.053,0.057,0.112,0.057,0.177V30.693z"/>
	<path fill="#FFFFFF" d="M101.754,30.035c0,0.189-0.008,0.349-0.021,0.477c-0.014,0.127-0.037,0.23-0.064,0.31
		c-0.029,0.079-0.066,0.136-0.109,0.172c-0.045,0.036-0.092,0.054-0.145,0.054h-5.672c-0.193,0-0.354-0.063-0.484-0.191
		c-0.131-0.127-0.197-0.336-0.197-0.624V19.14c0-0.288,0.066-0.497,0.197-0.624c0.131-0.128,0.291-0.192,0.484-0.192h5.637
		c0.053,0,0.1,0.017,0.141,0.049c0.039,0.033,0.074,0.09,0.104,0.172s0.051,0.187,0.066,0.314c0.014,0.128,0.021,0.29,0.021,0.487
		c0,0.184-0.008,0.339-0.021,0.467c-0.016,0.128-0.037,0.231-0.066,0.31s-0.064,0.136-0.104,0.172
		c-0.041,0.036-0.088,0.054-0.141,0.054h-4.031v3.107h3.412c0.053,0,0.1,0.019,0.145,0.054c0.043,0.036,0.08,0.092,0.107,0.167
		c0.029,0.076,0.051,0.177,0.066,0.305c0.014,0.128,0.021,0.284,0.021,0.466c0,0.191-0.008,0.348-0.021,0.473
		c-0.016,0.125-0.037,0.225-0.066,0.3c-0.027,0.075-0.064,0.13-0.107,0.162c-0.045,0.033-0.092,0.05-0.145,0.05h-3.412v3.588h4.066
		c0.053,0,0.1,0.019,0.145,0.055c0.043,0.036,0.08,0.094,0.109,0.172c0.027,0.078,0.051,0.182,0.064,0.31
		S101.754,29.845,101.754,30.035z M98.43,14.44c0.186,0,0.344,0.003,0.471,0.01c0.129,0.007,0.236,0.024,0.324,0.054
		c0.086,0.029,0.164,0.07,0.234,0.123c0.07,0.052,0.143,0.125,0.219,0.216l1.729,2.104c0.074,0.092,0.119,0.169,0.135,0.231
		c0.014,0.063-0.004,0.111-0.053,0.147s-0.135,0.061-0.258,0.074c-0.121,0.013-0.285,0.02-0.488,0.02
		c-0.238,0-0.434-0.005-0.584-0.015c-0.152-0.01-0.273-0.026-0.363-0.049s-0.16-0.054-0.209-0.094
		c-0.049-0.039-0.098-0.088-0.145-0.147l-1.029-1.347l-1.064,1.318c-0.053,0.072-0.104,0.128-0.152,0.167
		c-0.051,0.04-0.119,0.072-0.211,0.098c-0.09,0.026-0.207,0.044-0.354,0.054c-0.145,0.01-0.34,0.015-0.584,0.015
		c-0.197,0-0.355-0.008-0.471-0.024c-0.117-0.016-0.199-0.042-0.248-0.079c-0.051-0.036-0.07-0.083-0.059-0.143
		s0.053-0.134,0.123-0.226l1.701-2.104c0.064-0.085,0.135-0.154,0.211-0.207c0.074-0.053,0.164-0.094,0.266-0.123
		s0.223-0.049,0.361-0.059C98.072,14.445,98.238,14.44,98.43,14.44z"/>
	<path fill="#FFFFFF" d="M116.939,30.693c0,0.065-0.018,0.125-0.049,0.178c-0.031,0.052-0.09,0.094-0.174,0.127
		c-0.086,0.033-0.197,0.059-0.336,0.078c-0.141,0.021-0.318,0.03-0.533,0.03c-0.209,0-0.385-0.01-0.523-0.03
		c-0.141-0.02-0.25-0.045-0.332-0.078s-0.139-0.075-0.174-0.127c-0.035-0.053-0.053-0.112-0.053-0.178V20.34h-0.018l-3.271,10.344
		c-0.023,0.086-0.063,0.156-0.115,0.211c-0.051,0.057-0.123,0.101-0.213,0.133c-0.09,0.033-0.205,0.055-0.344,0.064
		c-0.141,0.01-0.309,0.015-0.508,0.015c-0.197,0-0.365-0.009-0.506-0.024c-0.139-0.017-0.254-0.043-0.344-0.079
		s-0.162-0.08-0.215-0.132c-0.053-0.053-0.086-0.115-0.104-0.188l-3.16-10.344h-0.018v10.354c0,0.065-0.016,0.125-0.047,0.178
		c-0.033,0.052-0.092,0.094-0.18,0.127s-0.199,0.059-0.336,0.078c-0.137,0.021-0.313,0.03-0.527,0.03
		c-0.209,0-0.385-0.01-0.523-0.03c-0.141-0.02-0.252-0.045-0.336-0.078c-0.086-0.033-0.143-0.075-0.176-0.127
		c-0.031-0.053-0.047-0.112-0.047-0.178V19.356c0-0.334,0.078-0.59,0.234-0.767c0.158-0.177,0.367-0.266,0.629-0.266h1.502
		c0.268,0,0.496,0.024,0.689,0.074c0.191,0.049,0.357,0.131,0.496,0.246c0.141,0.115,0.256,0.266,0.35,0.453
		c0.094,0.187,0.174,0.418,0.244,0.693l2.443,7.581h0.035l2.531-7.561c0.074-0.275,0.158-0.508,0.248-0.698s0.195-0.344,0.314-0.462
		c0.119-0.118,0.26-0.202,0.424-0.251c0.162-0.049,0.352-0.074,0.566-0.074h1.545c0.156,0,0.293,0.023,0.406,0.069
		s0.205,0.113,0.279,0.202c0.072,0.088,0.127,0.197,0.166,0.324c0.037,0.128,0.057,0.274,0.057,0.438V30.693z"/>
</g>
<path fill="#FFFFFF" d="M126.588,19.582c-1.781-1.739-3.516-3.598-5.434-5.122c-0.43-0.342-0.865,0.4-0.535,0.82
	c1.162,1.471,2.477,2.758,3.752,4.085c0.639,0.665,1.277,1.33,1.918,1.995c0.748,0.78,2.25,1.542,1.498,2.658
	c-2.166,3.222-4.354,6.436-6.447,9.725c-0.502,0.789,0.623,1.813,1.152,1.055c1.449-2.078,2.844-4.213,4.258-6.324
	c0.797-1.189,3.053-3.447,3.053-5.088C129.803,21.803,127.447,20.42,126.588,19.582z"/>
<path fill="#FFFFFF" d="M134.279,19.582c-1.783-1.739-3.516-3.598-5.436-5.122c-0.43-0.342-0.863,0.4-0.533,0.82
	c1.16,1.471,2.477,2.758,3.752,4.085c0.639,0.665,1.277,1.33,1.916,1.995c0.75,0.78,2.25,1.542,1.5,2.658
	c-2.168,3.222-4.354,6.436-6.449,9.725c-0.502,0.789,0.625,1.813,1.152,1.055c1.451-2.078,2.844-4.213,4.26-6.324
	c0.797-1.189,3.053-3.447,3.053-5.088C137.494,21.803,135.139,20.42,134.279,19.582z"/>
<g>
	<path fill="#FDFDFE" d="M26.353,26.14c0.155-0.129,0.352-0.214,0.531-0.302c0.335-0.185,0.661-0.381,0.983-0.592
		c0.413-0.224,0.787-0.521,1.152-0.818c0.327-0.27,0.613-0.566,0.889-0.883c0.325-0.373,0.536-0.803,0.758-1.224
		c0.199-0.415,0.32-0.835,0.418-1.264c0.063-0.236,0.016-0.453-0.003-0.663c0.018-0.11-0.08-0.15-0.117-0.22
		c-0.023-0.024-0.049-0.031-0.075-0.05c-0.028-0.009,0.049,0.024,0.074,0.037c0.044-0.013,0.083-0.044,0.126-0.066
		c-0.229,0.181-0.408,0.429-0.59,0.656c-0.312,0.425-0.641,0.84-0.958,1.265c-0.317,0.406-0.635,0.812-0.959,1.213
		c-0.292,0.464-0.649,0.843-1.065,1.16c-0.347,0.441-0.735,0.851-1.123,1.261c-0.111,0.116-0.252-0.008-0.141-0.124
		c0.381-0.405,0.764-0.807,1.106-1.241c0.191-0.455,0.464-0.899,0.826-1.31c0.313-0.412,0.646-0.806,0.973-1.209
		c0.321-0.408,0.621-0.825,0.878-1.268c0.175-0.283,0.355-0.568,0.54-0.847c0.172-0.189,0.263-0.33,0.529-0.357
		c0.114,0.032,0.268,0.012,0.344,0.11c0.079,0.071,0.177,0.124,0.235,0.22c0.078,0.163,0.161,0.323,0.198,0.509
		c-0.01,0.325,0.006,0.646-0.142,0.978c-0.157,0.463-0.33,0.925-0.568,1.368c-0.227,0.485-0.456,0.976-0.783,1.419
		c-0.323,0.348-0.66,0.672-1.053,0.942c-0.396,0.301-0.799,0.602-1.205,0.893c-0.338,0.197-0.675,0.396-1.006,0.607
		c-0.205,0.123-0.403,0.263-0.633,0.301C26.09,26.706,26.015,26.41,26.353,26.14L26.353,26.14z"/>
	<path fill="#FDFDFE" d="M25.49,24.633c-0.019-0.183,0.011-0.376,0.001-0.563c0-0.211-0.054-0.407-0.105-0.602
		c-0.061-0.176-0.141-0.342-0.218-0.51c-0.083-0.176-0.222-0.301-0.362-0.426c-0.213-0.154-0.458-0.257-0.697-0.374
		c-0.336-0.119-0.656-0.262-1.009-0.35c-0.36-0.127-0.766-0.146-1.163-0.177c-0.414-0.029-0.843,0.052-1.262,0.074
		c-0.379,0.036-0.758,0.085-1.138,0.152c-0.25,0.034-0.496,0.105-0.743,0.16c-0.125,0.046-0.251,0.065-0.377,0.098
		c-0.053,0.03-0.104,0.062-0.156,0.091c-0.11-0.076-0.104-0.005-0.206,0.052c-0.043,0.117-0.049,0.235-0.049,0.354
		c0.021,0.195,0.071,0.379,0.122,0.564c0.061,0.23,0.186,0.43,0.311,0.625c0.162,0.226,0.337,0.446,0.524,0.649
		c0.242,0.246,0.517,0.463,0.798,0.667c0.318,0.212,0.66,0.386,0.995,0.57c0.36,0.149,0.718,0.296,1.099,0.409
		c0.368,0.078,0.719,0.194,1.1,0.237c0.414,0.048,0.85,0.054,1.282,0.001c0.3-0.049,0.577-0.009,0.877-0.092
		c0.073-0.022,0.083,0.077,0.01,0.097c-0.303,0.083-0.595,0.253-0.908,0.267c-0.46,0.04-0.92,0.099-1.366,0.052
		c-0.389-0.067-0.778-0.14-1.131-0.286c-0.382-0.129-0.77-0.26-1.114-0.453c-0.359-0.165-0.687-0.379-0.997-0.613
		c-0.302-0.204-0.597-0.411-0.845-0.674c-0.196-0.214-0.388-0.429-0.534-0.683c-0.125-0.216-0.253-0.428-0.34-0.666
		c-0.063-0.194-0.125-0.388-0.15-0.598c-0.03-0.158-0.077-0.306-0.024-0.485c0.032-0.17,0.063-0.337,0.126-0.506
		c0.128-0.106,0.248-0.216,0.41-0.262c0.174-0.075,0.343-0.136,0.522-0.144c0.269-0.05,0.535-0.075,0.802-0.102
		c0.389-0.028,0.777-0.054,1.166-0.073c0.446-0.04,0.888-0.024,1.327-0.02c0.438,0.017,0.861,0.08,1.284,0.154
		c0.363,0.105,0.734,0.201,1.073,0.354c0.3,0.099,0.591,0.217,0.847,0.385c0.213,0.164,0.41,0.334,0.526,0.586
		c0.11,0.207,0.209,0.415,0.238,0.663c0.026,0.238,0.043,0.484,0.024,0.734c-0.016,0.193,0.005,0.388-0.036,0.575
		C25.938,24.913,25.529,24.985,25.49,24.633L25.49,24.633z"/>
	<path fill="#FDFDFE" d="M28.392,22.035c0.123-0.115,0.213-0.26,0.306-0.404c0.227-0.416,0.261-0.865,0.288-1.298
		c0.005-0.696-0.142-1.353-0.315-1.992c-0.186-0.655-0.435-1.276-0.698-1.891c-0.218-0.498-0.478-0.971-0.748-1.437
		c-0.213-0.367-0.458-0.71-0.744-1.02c-0.205-0.239-0.457-0.432-0.705-0.624c-0.201-0.14-0.417-0.258-0.634-0.373
		c-0.116-0.082-0.256-0.103-0.401-0.123c-0.049-0.011-0.103-0.003-0.154-0.004c0.065-0.178-0.137,0.158-0.161,0.204
		c-0.13,0.378-0.162,0.755-0.173,1.133c0.005,0.599,0.118,1.166,0.224,1.735c0.132,0.723,0.31,1.429,0.512,2.122
		c0.228,0.752,0.504,1.48,0.813,2.188c0.303,0.669,0.648,1.313,1.057,1.912c0.14,0.27,0.347,0.482,0.554,0.697
		c0.046,0.047-0.036,0.123-0.082,0.075c-0.212-0.217-0.415-0.439-0.615-0.668c-0.413-0.607-0.77-1.252-1.027-1.956
		c-0.282-0.728-0.58-1.447-0.8-2.205c-0.205-0.697-0.4-1.398-0.519-2.129c-0.101-0.578-0.214-1.151-0.311-1.729
		c-0.056-0.392-0.086-0.792-0.019-1.207c0.035-0.31,0.057-0.622,0.378-0.83c0.212-0.069,0.392-0.104,0.6-0.068
		c0.198,0.065,0.388,0.144,0.559,0.253c0.218,0.153,0.433,0.306,0.639,0.473c0.265,0.223,0.515,0.459,0.725,0.731
		c0.275,0.355,0.534,0.723,0.736,1.129c0.243,0.496,0.445,1.016,0.642,1.535c0.251,0.636,0.491,1.272,0.68,1.936
		c0.19,0.665,0.358,1.341,0.431,2.046c0.05,0.51,0.053,1.019-0.131,1.55c-0.087,0.223-0.17,0.468-0.332,0.655
		C28.58,22.905,27.955,22.445,28.392,22.035L28.392,22.035z"/>
	<path fill="#FDFDFE" d="M29.944,20.26c0.113-0.2,0.182-0.426,0.25-0.64c0.147-0.523,0.223-1.052,0.291-1.576
		c0.06-0.569,0.066-1.132,0.046-1.689c-0.034-0.518-0.07-1.032-0.127-1.544c-0.043-0.458-0.091-0.911-0.242-1.336
		c-0.025-0.064-0.05-0.13-0.077-0.194c-0.023-0.064,0.074-0.114,0.098-0.051c0.026,0.065,0.053,0.132,0.078,0.197
		c0.152,0.427,0.332,0.849,0.409,1.306c0.083,0.511,0.14,1.034,0.134,1.566c0.008,0.573,0.03,1.143-0.026,1.723
		c-0.042,0.533-0.127,1.069-0.17,1.601c-0.019,0.258-0.024,0.515-0.077,0.773C30.443,20.837,29.714,20.672,29.944,20.26
		L29.944,20.26z"/>
	<path fill="#FDFDFE" d="M28.484,10.454c-0.077-0.05-0.119-0.186-0.161-0.284c-0.075-0.156-0.183-0.286-0.3-0.408
		c-0.081-0.113-0.193-0.197-0.296-0.288c-0.025-0.041-0.116-0.069-0.134-0.079c0.16-0.038-0.003-0.005,0.028,0.054
		c-0.1,0.337-0.076,0.669-0.048,0.991c0.047,0.599,0.068,1.207,0.089,1.814c0.02,0.665,0.029,1.334,0.055,1.997
		c0.025,0.662,0.076,1.318,0.157,1.968c0.009,0.067-0.096,0.098-0.104,0.027c-0.08-0.649-0.133-1.309-0.158-1.973
		c-0.026-0.664-0.035-1.333-0.054-1.998c-0.021-0.606-0.041-1.21-0.088-1.81c-0.03-0.345-0.106-0.678-0.116-1.028
		c0.032-0.229,0.085-0.367,0.346-0.411c0.122,0.036,0.234,0.06,0.309,0.173c0.097,0.113,0.188,0.23,0.285,0.343
		c0.092,0.156,0.189,0.303,0.294,0.449c0.07,0.092,0.173,0.194,0.18,0.306C28.778,10.501,28.647,10.559,28.484,10.454L28.484,10.454
		z"/>
	<path fill="#FDFDFE" d="M31.206,17.354c-0.06-0.275,0.012-0.564,0.05-0.854c0.09-0.669,0.025-1.317,0.049-1.979
		c0.061-0.822,0.088-1.64,0.083-2.452c-0.024-0.884-0.016-1.784-0.178-2.632c-0.126-0.673-0.349-1.303-0.608-1.915
		c-0.188-0.503-0.423-0.98-0.651-1.463c-0.188-0.343-0.392-0.674-0.629-0.982c-0.104-0.183-0.285-0.278-0.455-0.382
		c-0.067-0.027-0.138,0.005-0.209,0.015c-0.021-0.012-0.071,0.086-0.101,0.124c-0.307,0.46-0.435,0.904-0.472,1.405
		c-0.01,0.492-0.011,0.24,0.003,0.756c0.003,0.07-0.103,0.09-0.104,0.02C27.969,6.495,27.971,6.75,27.98,6.25
		c0.038-0.529-0.036-1.031,0.031-1.558c0.114-0.348,0.303-0.595,0.677-0.691c0.231-0.007,0.442,0.008,0.616,0.141
		c0.187,0.191,0.34,0.392,0.451,0.642c0.172,0.367,0.332,0.737,0.476,1.12c0.219,0.492,0.415,0.997,0.632,1.489
		c0.219,0.643,0.391,1.31,0.483,2.004c0.109,0.871,0.284,1.725,0.31,2.62c0.038,0.812,0.024,1.633,0.001,2.454
		c-0.019,0.661-0.094,1.331-0.036,1.978c0.015,0.287,0.058,0.564-0.035,0.864C31.505,17.573,31.262,17.597,31.206,17.354
		L31.206,17.354z"/>
	<path fill="#FDFDFE" d="M24.764,27.091c-0.243,0.115-0.481,0.234-0.722,0.358c-0.644,0.33-1.301,0.613-1.963,0.887
		c-0.896,0.438-1.821,0.746-2.761,0.948c-1.011,0.198-1.999,0.169-2.971,0.093c-0.801-0.066-1.575-0.213-2.341-0.374
		c-0.438-0.107-0.831-0.295-1.236-0.463c-0.188-0.065-0.371-0.143-0.556-0.217c-0.092-0.027-0.182-0.055-0.277-0.077
		c-0.221-0.158-0.131-0.344,0.09-0.525c0.268-0.111,0.542-0.184,0.805-0.307c0.519-0.19,1.022-0.444,1.525-0.686
		c0.751-0.297,1.521-0.51,2.291-0.666c0.755-0.195,1.508-0.307,2.26-0.362c0.404,0.013,0.794,0.068,1.197,0.088
		c0.072,0.003,0.049,0.105-0.024,0.103c-0.4-0.021-0.792,0.017-1.204,0.082c-0.737,0.054-1.479,0.15-2.22,0.276
		c-0.753,0.178-1.512,0.33-2.24,0.668c-0.514,0.221-1.002,0.504-1.489,0.791c-0.238,0.109-0.475,0.235-0.685,0.399
		c0.028-0.085,0.145-0.245-0.001-0.32c0.065,0.034,0.147,0.094,0.225,0.123c0.176,0.102,0.348,0.21,0.495,0.35
		c0.338,0.241,0.722,0.42,1.123,0.568c0.715,0.265,1.495,0.379,2.288,0.446c0.96,0.075,1.937,0.106,2.938-0.089
		c0.93-0.201,1.849-0.499,2.73-0.947c0.618-0.352,1.242-0.706,1.806-1.146c0.188-0.137,0.398-0.269,0.542-0.445
		C24.705,26.266,25.201,26.88,24.764,27.091L24.764,27.091z"/>
	<path fill="#FDFDFE" d="M24.263,27.48c-0.092,0.169-0.229,0.319-0.366,0.463c-0.342,0.345-0.686,0.687-1.052,1.007
		c-0.607,0.525-1.223,1.039-1.83,1.569c-0.76,0.674-1.569,1.287-2.37,1.91c-0.899,0.688-1.833,1.316-2.796,1.893
		c-0.967,0.578-1.968,1.064-2.978,1.536c-0.831,0.396-1.679,0.721-2.536,1.021c-0.563,0.18-1.126,0.382-1.695,0.536
		c-0.314,0.1-0.632,0.152-0.947,0.205c-0.232,0.037-0.443,0.014-0.651-0.04c-0.161-0.047-0.292-0.137-0.423-0.226
		c-0.093-0.057-0.16-0.134-0.226-0.217c-0.105-0.133-0.087-0.274-0.071-0.448c0.099-0.203,0.276-0.319,0.452-0.457
		c0.238-0.222,0.498-0.423,0.745-0.635c0.41-0.314,0.815-0.637,1.237-0.936c0.496-0.352,0.998-0.694,1.494-1.046
		c0.513-0.374,1.069-0.66,1.624-0.948c0.593-0.296,1.185-0.59,1.774-0.893c0.57-0.299,1.167-0.485,1.752-0.732
		c0.074-0.03,0.098,0.062,0.027,0.094c-0.586,0.246-1.106,0.604-1.674,0.9c-0.589,0.306-1.176,0.608-1.766,0.911
		c-0.539,0.282-1.064,0.593-1.579,0.929c-0.504,0.329-0.988,0.687-1.466,1.056c-0.396,0.305-0.797,0.602-1.149,0.959
		c-0.229,0.218-0.428,0.458-0.635,0.69c-0.016,0.024-0.218,0.319-0.099,0.179c-0.001-0.031,0.01-0.145-0.01-0.147
		c0.012,0.01,0.091,0.063,0.117,0.102c0.065,0.047,0.123,0.098,0.207,0.116c0.117,0.016,0.231,0.036,0.357,0.017
		c0.292-0.036,0.583-0.085,0.875-0.125c0.553-0.095,1.107-0.181,1.658-0.335c0.846-0.221,1.69-0.476,2.516-0.816
		c1.002-0.438,1.984-0.944,2.932-1.515c0.94-0.586,1.86-1.211,2.735-1.897c0.792-0.615,1.544-1.28,2.276-1.966
		c0.584-0.539,1.158-1.09,1.713-1.659c0.329-0.34,0.669-0.669,1-1.014c0.138-0.135,0.279-0.281,0.453-0.361
		C24.259,26.989,24.455,27.122,24.263,27.48L24.263,27.48z"/>
	<path fill="#FDFDFE" d="M21.681,20.725c-0.059-0.188-0.052-0.398-0.031-0.606c-0.011-0.417-0.022-0.834-0.018-1.254
		c-0.01-0.434-0.005-0.868,0.039-1.31c0.035-0.355,0.164-0.683,0.397-0.994c0.264-0.306,0.615-0.416,0.977-0.462
		c0.419-0.102,0.748,0.049,1.116,0.116c0.054,0.016,0.107,0.028,0.162,0.041c0.067,0.019,0.024,0.116-0.042,0.1
		c-0.053-0.014-0.104-0.026-0.156-0.039c-0.335-0.063-0.721,0.028-1.073,0.046c-0.275,0.072-0.544,0.151-0.768,0.356
		c-0.213,0.254-0.367,0.516-0.414,0.829c-0.079,0.432-0.105,0.864-0.092,1.287c0.026,0.408,0.046,0.818,0.11,1.217
		c0.053,0.147,0.087,0.305,0.171,0.435C22.202,20.708,21.765,20.981,21.681,20.725L21.681,20.725z"/>
	<path fill="#FDFDFE" d="M21.562,19.04c-0.076-0.016-0.173,0.005-0.257,0.013c-0.152-0.005-0.306,0.032-0.459,0.059
		c-0.152,0.041-0.293,0.12-0.435,0.198c-0.153,0.095-0.289,0.212-0.427,0.326c-0.127,0.114-0.223,0.251-0.321,0.387
		c-0.083,0.13-0.114,0.271-0.157,0.412c-0.035,0.163-0.035,0.322-0.032,0.483c0.003,0.148,0.04,0.286,0.063,0.431
		c0.004,0.021,0.009,0.042,0.013,0.066c0.012,0.066-0.07,0.105-0.099,0.043c-0.011-0.017-0.022-0.038-0.031-0.057
		c-0.063-0.139-0.128-0.281-0.143-0.441c-0.006-0.173-0.012-0.347,0.015-0.528c0.032-0.178,0.063-0.349,0.182-0.511
		c0.11-0.155,0.235-0.299,0.374-0.431c0.148-0.133,0.303-0.257,0.477-0.354c0.163-0.098,0.325-0.189,0.507-0.224
		c0.164-0.034,0.327-0.07,0.489-0.096c0.109-0.011,0.213-0.022,0.316-0.01C21.802,18.824,21.72,19.072,21.562,19.04L21.562,19.04z"
		/>
	<path fill="#FDFDFE" d="M18.25,25.645c-0.061-0.08-0.151-0.132-0.233-0.189c-0.227-0.141-0.443-0.289-0.665-0.434
		c-0.292-0.219-0.607-0.408-0.901-0.618c-0.28-0.229-0.549-0.462-0.798-0.723c-0.225-0.236-0.367-0.532-0.526-0.816
		c-0.112-0.202-0.231-0.402-0.327-0.614c-0.086-0.16-0.062-0.31,0.008-0.489c0.143-0.23,0.329-0.27,0.567-0.292
		c0.343,0.009,0.688,0.013,1.032,0.018c0.4-0.002,0.784,0.06,1.162,0.133c0.07,0.014,0.031,0.113-0.038,0.1
		c-0.373-0.07-0.75-0.132-1.144-0.13c-0.336-0.006-0.67-0.015-1.013,0.058c-0.125,0.05-0.249,0.071-0.342,0.182
		c-0.025,0.114-0.069,0.216-0.033,0.326c0.063,0.223,0.128,0.443,0.231,0.646c0.139,0.287,0.323,0.546,0.53,0.784
		c0.231,0.261,0.486,0.51,0.786,0.699c0.292,0.211,0.587,0.425,0.924,0.571c0.238,0.118,0.486,0.206,0.747,0.279
		c0.122,0.035,0.239,0.075,0.353,0.121C18.86,25.37,18.427,25.886,18.25,25.645L18.25,25.645z"/>
	<path fill="#FDFDFE" d="M14.193,26.732c-0.112-0.041-0.206-0.117-0.302-0.183c-0.208-0.137-0.415-0.278-0.609-0.433
		c-0.286-0.228-0.576-0.448-0.88-0.653c-0.256-0.188-0.532-0.355-0.779-0.558c-0.201-0.15-0.399-0.306-0.596-0.463
		c-0.113-0.084-0.225-0.168-0.329-0.261c-0.125-0.158-0.074-0.262,0.043-0.443c0.167-0.078,0.334-0.061,0.499-0.06
		c0.277,0,0.547,0.031,0.82,0.055c0.357,0.01,0.702,0.06,1.048,0.116c0.379,0.063,0.751,0.14,1.128,0.216
		c0.347,0.054,0.678,0.146,1.01,0.238c0.286,0.125,0.58,0.231,0.859,0.369c0.251,0.116,0.489,0.258,0.729,0.39
		c0.163,0.128,0.324,0.258,0.491,0.378c0.055,0.039-0.005,0.121-0.065,0.09c-0.187-0.095-0.378-0.182-0.573-0.262
		c-0.234-0.139-0.476-0.267-0.711-0.402c-0.266-0.139-0.521-0.296-0.826-0.367c-0.314-0.114-0.646-0.197-0.976-0.276
		c-0.368-0.083-0.741-0.157-1.123-0.208c-0.342-0.045-0.684-0.092-1.034-0.11c-0.264-0.006-0.53-0.002-0.804,0.049
		c-0.04,0.008-0.287,0.042-0.222,0.072c0.006-0.015,0.088-0.223,0.061-0.153c0.077,0.099,0.146,0.206,0.241,0.29
		c0.179,0.171,0.353,0.344,0.541,0.504c0.25,0.191,0.484,0.402,0.746,0.58c0.286,0.22,0.578,0.436,0.901,0.604
		c0.223,0.106,0.444,0.213,0.677,0.304c0.111,0.046,0.227,0.084,0.326,0.147C14.75,26.47,14.499,26.841,14.193,26.732L14.193,26.732
		z"/>
	<path fill="#FDFDFE" d="M14.158,26.816c-0.156-0.021-0.3-0.083-0.446-0.133c-0.313-0.122-0.639-0.215-0.953-0.333
		c-0.372-0.122-0.76-0.204-1.122-0.343c-0.385-0.14-0.746-0.319-1.097-0.514c-0.316-0.184-0.657-0.329-0.983-0.497
		c-0.29-0.118-0.541-0.292-0.801-0.452c-0.213-0.151-0.408-0.325-0.614-0.488c-0.138-0.128-0.302-0.223-0.436-0.354
		c-0.117-0.1-0.229-0.203-0.34-0.31c-0.079-0.062-0.143-0.138-0.214-0.207c-0.093-0.104-0.124-0.247-0.169-0.378
		c-0.035-0.09-0.068-0.176-0.101-0.263c-0.057-0.11-0.013-0.223,0.011-0.349c0.069-0.178,0.216-0.28,0.374-0.386
		c0.246-0.097,0.497-0.125,0.746-0.157c0.363-0.052,0.724-0.07,1.084-0.105c0.444-0.011,0.885-0.004,1.323,0.014
		c0.456,0.01,0.899,0.072,1.342,0.129c0.414,0.062,0.792,0.201,1.154,0.366c0.193,0.067,0.377,0.145,0.563,0.223
		c0.063,0.026,0.008,0.122-0.055,0.095c-0.183-0.078-0.368-0.155-0.558-0.221c-0.388-0.097-0.768-0.209-1.162-0.289
		c-0.431-0.088-0.868-0.104-1.325-0.093c-0.435,0.011-0.866-0.009-1.308,0.034c-0.347,0.017-0.694,0.077-1.041,0.168
		c-0.197,0.07-0.397,0.134-0.576,0.257c-0.037,0.017-0.07,0.017-0.089,0.04c0,0.021-0.007,0.043-0.002,0.063
		c0.021,0.088,0.04,0.176,0.067,0.265c0.031,0.081,0.055,0.162,0.118,0.225c0.066,0.075,0.144,0.145,0.194,0.232
		c0.094,0.112,0.184,0.228,0.286,0.333c0.136,0.126,0.231,0.283,0.368,0.412c0.172,0.182,0.359,0.35,0.563,0.497
		c0.24,0.175,0.487,0.339,0.738,0.497c0.315,0.185,0.615,0.386,0.938,0.56c0.351,0.184,0.688,0.391,1.071,0.52
		c0.371,0.118,0.732,0.25,1.113,0.345c0.333,0.071,0.652,0.17,0.997,0.2c0.158,0.011,0.32,0.014,0.47,0.035
		C14.54,26.486,14.413,26.851,14.158,26.816L14.158,26.816z"/>
	<path fill="#FDFDFE" d="M14.8,23.303c-0.17-0.066-0.317-0.169-0.468-0.263c-0.289-0.159-0.577-0.318-0.88-0.454
		c-0.366-0.157-0.692-0.372-1.007-0.6c-0.311-0.235-0.623-0.471-0.934-0.705c-0.24-0.173-0.465-0.363-0.688-0.558
		c-0.172-0.167-0.346-0.333-0.513-0.506c-0.131-0.118-0.25-0.246-0.365-0.379c-0.094-0.096-0.138-0.225-0.197-0.342
		c-0.044-0.169-0.011-0.265,0.11-0.415c0.219-0.143,0.466-0.194,0.705-0.246c0.385-0.053,0.77-0.121,1.153-0.165
		c0.422-0.049,0.831-0.019,1.234,0.027c0.258,0.027,0.514,0.058,0.765,0.105c0.07,0.015,0.038,0.109-0.032,0.103
		c-0.258-0.029-0.512-0.067-0.765-0.107c-0.395-0.044-0.794-0.074-1.209-0.025c-0.375,0.043-0.758,0.084-1.13,0.213
		c-0.193,0.067-0.395,0.104-0.552,0.249c-0.014,0.046-0.12,0.092-0.042,0.147c0.039,0.109,0.077,0.218,0.145,0.313
		c0.096,0.142,0.201,0.278,0.297,0.42c0.15,0.186,0.295,0.371,0.479,0.524c0.217,0.195,0.439,0.386,0.677,0.558
		c0.311,0.233,0.622,0.466,0.932,0.702c0.311,0.225,0.629,0.44,0.994,0.586c0.31,0.13,0.637,0.226,0.947,0.357
		c0.16,0.056,0.322,0.107,0.48,0.17C15.125,23.088,14.989,23.376,14.8,23.303L14.8,23.303z"/>
	<path fill="#FDFDFE" d="M14.896,23.063c-0.067-0.126-0.163-0.231-0.253-0.342c-0.143-0.184-0.309-0.349-0.47-0.517
		c-0.167-0.173-0.323-0.356-0.478-0.542c-0.108-0.139-0.24-0.25-0.375-0.359c-0.106-0.099-0.206-0.2-0.307-0.298
		c-0.105-0.073-0.157-0.182-0.217-0.288c-0.06-0.085-0.034-0.188-0.035-0.289c0.008-0.156,0.106-0.216,0.212-0.321
		c0.201-0.13,0.416-0.171,0.634-0.205c0.289-0.031,0.57-0.019,0.842,0.025c0.329,0.066,0.641,0.169,0.957,0.267
		c0.31,0.102,0.617,0.211,0.92,0.32c0.26,0.086,0.497,0.202,0.736,0.32c0.031,0.018,0.061,0.033,0.092,0.05
		c0.059,0.031-0.003,0.123-0.063,0.093c-0.03-0.019-0.06-0.033-0.091-0.051c-0.235-0.116-0.478-0.221-0.726-0.314
		c-0.304-0.111-0.608-0.218-0.917-0.32c-0.311-0.096-0.618-0.197-0.943-0.264c-0.258-0.042-0.527-0.067-0.805-0.008
		c-0.181,0.058-0.37,0.098-0.532,0.225c-0.041,0.058-0.107,0.094-0.108,0.168c-0.001,0.068-0.014,0.137,0.001,0.203
		c0.059,0.087,0.115,0.177,0.182,0.259c0.097,0.101,0.196,0.201,0.299,0.299c0.113,0.138,0.223,0.275,0.331,0.418
		c0.155,0.182,0.308,0.365,0.476,0.537c0.159,0.168,0.317,0.341,0.502,0.481c0.106,0.088,0.209,0.186,0.343,0.239
		C15.269,22.919,14.978,23.22,14.896,23.063L14.896,23.063z"/>
	<path fill="#FDFDFE" d="M14.456,20.022c-0.06-0.108-0.133-0.208-0.205-0.308c-0.127-0.146-0.209-0.326-0.292-0.504
		c-0.101-0.192-0.168-0.406-0.227-0.622c-0.045-0.213-0.003-0.423,0.06-0.645c0.054-0.19,0.154-0.371,0.242-0.554
		c0.094-0.201,0.244-0.336,0.418-0.471c0.268-0.135,0.539-0.136,0.811-0.151c0.358-0.018,0.66,0.127,0.956,0.263
		c0.061,0.028,0.001,0.122-0.06,0.095c-0.282-0.133-0.58-0.197-0.919-0.186c-0.229,0.028-0.461,0.054-0.678,0.182
		c-0.135,0.104-0.248,0.187-0.314,0.35c-0.093,0.163-0.173,0.33-0.238,0.502c-0.048,0.182-0.087,0.359-0.047,0.531
		c0.048,0.205,0.1,0.405,0.199,0.586c0.094,0.151,0.186,0.308,0.304,0.442c0.079,0.079,0.153,0.169,0.258,0.221
		C14.931,19.853,14.566,20.218,14.456,20.022L14.456,20.022z"/>
	<path fill="#FDFDFE" d="M17.231,18.593c-0.05-0.095-0.114-0.18-0.169-0.274c-0.126-0.178-0.242-0.361-0.352-0.554
		c-0.115-0.227-0.217-0.462-0.321-0.694c-0.104-0.191-0.179-0.396-0.243-0.608c-0.057-0.164-0.084-0.336-0.093-0.517
		c-0.014-0.149,0.032-0.305,0.071-0.458c0.03-0.17,0.118-0.289,0.241-0.422c0.179-0.163,0.383-0.238,0.596-0.312
		c0.297-0.042,0.585-0.023,0.864,0.031c0.348,0.051,0.654,0.195,0.975,0.304c0.35,0.09,0.664,0.243,0.977,0.396
		c0.279,0.151,0.518,0.35,0.796,0.502c0.06,0.033-0.003,0.124-0.063,0.091c-0.274-0.151-0.578-0.249-0.872-0.369
		c-0.312-0.141-0.636-0.261-0.957-0.385c-0.307-0.106-0.628-0.188-0.952-0.261c-0.244-0.036-0.491-0.07-0.752-0.016
		c-0.163,0.026-0.321,0.046-0.459,0.164c-0.072,0.095-0.16,0.183-0.196,0.295c-0.031,0.137-0.069,0.27-0.076,0.404
		c0.008,0.164,0.007,0.334,0.053,0.488c0.056,0.209,0.113,0.416,0.193,0.611c0.099,0.234,0.193,0.473,0.327,0.684
		c0.116,0.18,0.229,0.365,0.368,0.529c0.075,0.072,0.138,0.155,0.225,0.215C17.53,18.518,17.299,18.72,17.231,18.593L17.231,18.593z
		"/>
	<path fill="#FDFDFE" d="M16.648,13.646c0.026-0.231-0.027-0.449-0.052-0.671c-0.032-0.328-0.034-0.662-0.03-0.996
		c-0.003-0.275,0.019-0.554,0.044-0.834c-0.004-0.174,0.043-0.345,0.094-0.519c0.08-0.185,0.189-0.209,0.36-0.274
		c0.184-0.011,0.37-0.012,0.55-0.013c0.297,0.05,0.593,0.102,0.872,0.192c0.3,0.095,0.599,0.188,0.878,0.321
		c0.247,0.106,0.48,0.232,0.711,0.364c0.164,0.075,0.275,0.214,0.385,0.341c0.042,0.05-0.006,0.108-0.07,0.088
		c-0.162-0.053-0.335-0.106-0.48-0.198c-0.231-0.122-0.458-0.25-0.687-0.375c-0.27-0.125-0.54-0.257-0.831-0.346
		c-0.271-0.077-0.536-0.174-0.833-0.18c-0.16-0.021-0.311-0.052-0.483-0.002c-0.074,0.036-0.159,0.044-0.216,0.124
		c-0.065,0.154-0.128,0.307-0.145,0.468c-0.028,0.277-0.05,0.552-0.046,0.824c-0.002,0.33,0,0.66,0.031,0.983
		c0.023,0.226,0.038,0.457,0.122,0.658C16.867,13.706,16.636,13.766,16.648,13.646L16.648,13.646z"/>
	<path fill="#FDFDFE" d="M20.169,15.915c-0.03-0.136-0.016-0.282-0.021-0.426c-0.016-0.313,0.007-0.631,0.01-0.944
		c0.012-0.375,0.068-0.754,0.095-1.13c0.023-0.325,0.072-0.65,0.132-0.977c0.041-0.235,0.089-0.474,0.136-0.708
		c0.019-0.158,0.087-0.31,0.147-0.458c0.167-0.222,0.317-0.174,0.475-0.052c0.184,0.093,0.336,0.22,0.487,0.354
		c0.221,0.187,0.422,0.395,0.622,0.603c0.139,0.144,0.281,0.287,0.421,0.431c0.047,0.047-0.036,0.125-0.081,0.076
		c-0.14-0.144-0.283-0.286-0.422-0.431c-0.198-0.205-0.393-0.413-0.617-0.59c-0.162-0.095-0.324-0.209-0.508-0.256
		c-0.052,0.06-0.101,0.072-0.018,0.02c-0.048,0.107-0.101,0.214-0.122,0.329c-0.072,0.232-0.141,0.462-0.206,0.694
		c-0.071,0.313-0.142,0.626-0.171,0.941c-0.041,0.37-0.036,0.736-0.047,1.104c-0.011,0.304,0.033,0.592,0.095,0.877
		c0.024,0.128,0.065,0.25,0.074,0.382C20.671,16.079,20.237,16.227,20.169,15.915L20.169,15.915z"/>
	<path fill="#FDFDFE" d="M22.139,16.232c-0.001-0.14-0.001-0.278,0.013-0.42c-0.01-0.166,0.04-0.327,0.098-0.493
		c0.025-0.072,0.11-0.063,0.1,0.01c-0.018,0.151-0.036,0.307-0.051,0.459c0.016,0.121,0.021,0.247,0.091,0.342
		C22.484,16.263,22.141,16.405,22.139,16.232L22.139,16.232z"/>
	<path fill="#FDFDFE" d="M23.447,14.912c-0.07-0.027-0.15-0.026-0.227-0.037c-0.164,0.013-0.318,0.076-0.475,0.132
		c-0.028,0.026-0.055,0.052-0.08,0.078c-0.06,0.055-0.126-0.014-0.067-0.067c0.031-0.029,0.062-0.059,0.092-0.087
		c0.166-0.16,0.32-0.29,0.556-0.318c0.125-0.015,0.245-0.031,0.352,0.022C23.773,14.723,23.628,14.989,23.447,14.912L23.447,14.912z
		"/>
	<path fill="#FDFDFE" d="M22.928,13.217c-0.034,0.172,0.037,0.334,0.097,0.479c0.175,0.38,0.429,0.716,0.675,1.047
		c0.13,0.175,0.279,0.335,0.429,0.493c0.046,0.049-0.038,0.125-0.083,0.075c-0.15-0.16-0.303-0.32-0.435-0.5
		c-0.25-0.337-0.474-0.69-0.717-1.032c-0.114-0.169-0.253-0.324-0.314-0.525C22.513,13.039,22.974,12.977,22.928,13.217
		L22.928,13.217z"/>
	<path fill="#FDFDFE" d="M23.185,12.918c0.034,0.076,0.099,0.123,0.154,0.18c0.045,0.05-0.014,0.114-0.075,0.086
		c-0.067-0.032-0.113-0.09-0.203-0.075C22.909,13.133,23.132,12.792,23.185,12.918L23.185,12.918z"/>
	<path fill="#FDFDFE" d="M23.773,12.985c-0.102-0.101-0.198-0.188-0.28-0.307c-0.117-0.162-0.194-0.354-0.273-0.541
		c-0.083-0.155-0.12-0.326-0.147-0.506c-0.016-0.154,0.008-0.294,0.069-0.447c0.228-0.238,0.383-0.134,0.615-0.05
		c0.311,0.161,0.642,0.286,0.955,0.443c0.066,0.035,0.135,0.071,0.201,0.107c0.06,0.031-0.003,0.124-0.063,0.092
		c-0.068-0.034-0.133-0.07-0.199-0.106c-0.302-0.152-0.604-0.319-0.976-0.326c-0.067,0.002-0.327,0.08-0.203-0.019
		c-0.017,0.059-0.072,0.147-0.048,0.223c0.013,0.15,0.021,0.305,0.077,0.44c0.076,0.176,0.153,0.348,0.241,0.514
		c0.072,0.11,0.111,0.24,0.198,0.337C24.023,12.938,23.865,13.075,23.773,12.985L23.773,12.985z"/>
	<path fill="#FDFDFE" d="M20.309,10.507c-0.009-0.233,0.006-0.478-0.011-0.715c-0.029-0.4-0.067-0.8-0.104-1.198
		c-0.031-0.286-0.038-0.578-0.049-0.868c-0.015-0.213,0.042-0.399,0.15-0.6c0.195-0.193,0.393-0.192,0.623-0.175
		c0.287,0.006,0.517,0.132,0.74,0.266c0.32,0.184,0.625,0.387,0.906,0.619c0.3,0.229,0.55,0.509,0.811,0.779
		c0.11,0.11,0.195,0.244,0.292,0.367c0.041,0.052-0.047,0.123-0.087,0.072C23.482,8.932,23.37,8.825,23.276,8.7
		c-0.233-0.287-0.502-0.543-0.789-0.777C22.2,7.707,21.922,7.479,21.598,7.31c-0.229-0.092-0.471-0.135-0.724-0.172
		c-0.146,0.012-0.283-0.004-0.416,0.095c-0.107,0.154-0.183,0.29-0.184,0.474c-0.02,0.292-0.01,0.578,0.022,0.861
		c0.04,0.398,0.078,0.798,0.105,1.199c0.018,0.233,0.061,0.458,0.103,0.677C20.531,10.571,20.313,10.643,20.309,10.507
		L20.309,10.507z"/>
	<path fill="#FDFDFE" d="M23.542,9.365c0.076-0.195,0.085-0.396,0.109-0.592c0.017-0.204,0.008-0.404,0.016-0.607
		c0-0.138,0.036-0.28,0.07-0.42c0.131-0.186,0.249-0.232,0.445-0.245c0.232,0.047,0.415,0.159,0.597,0.288
		c0.273,0.246,0.533,0.509,0.765,0.795c0.282,0.341,0.512,0.719,0.748,1.093c0.226,0.445,0.422,0.906,0.579,1.388
		c0.117,0.482,0.338,0.921,0.409,1.421c-0.027,0.244-0.009,0.458,0.057,0.676c0.02,0.066-0.082,0.11-0.102,0.045
		c-0.065-0.218-0.164-0.396-0.314-0.563c-0.213-0.433-0.27-0.939-0.453-1.39c-0.162-0.45-0.302-0.917-0.588-1.296
		c-0.22-0.362-0.47-0.702-0.738-1.028c-0.227-0.252-0.454-0.503-0.749-0.684c-0.136-0.091-0.266-0.188-0.387-0.293
		c0-0.021,0.023-0.091,0.005-0.109c-0.05,0.092-0.117,0.199-0.132,0.315c-0.053,0.201-0.104,0.402-0.123,0.604
		c-0.015,0.188-0.058,0.389,0.018,0.553C23.835,9.45,23.481,9.521,23.542,9.365L23.542,9.365z"/>
	<path fill="#FDFDFE" d="M13.846,17.324c-0.063-0.204-0.087-0.425-0.132-0.638c-0.097-0.447-0.229-0.883-0.354-1.318
		c-0.111-0.383-0.244-0.754-0.349-1.141c-0.089-0.243-0.163-0.493-0.218-0.749c-0.044-0.204-0.02-0.396,0.05-0.607
		c0.147-0.303,0.385-0.345,0.674-0.387c0.333,0.005,0.665,0.016,0.978,0.084c0.365,0.071,0.726,0.16,1.079,0.262
		c0.314,0.095,0.613,0.222,0.913,0.344c0.064,0.024,0.011,0.12-0.054,0.096c-0.297-0.121-0.593-0.247-0.905-0.342
		c-0.347-0.099-0.7-0.16-1.085-0.134c-0.311,0.035-0.617,0.014-0.931,0.087c-0.083,0.027-0.17,0.05-0.252,0.081
		c-0.022,0.129-0.053,0.253-0.028,0.377c0.034,0.251,0.066,0.505,0.12,0.753c0.097,0.387,0.176,0.779,0.282,1.163
		c0.111,0.432,0.211,0.878,0.428,1.255c0.097,0.167,0.202,0.329,0.315,0.481C14.598,17.289,13.958,17.688,13.846,17.324
		L13.846,17.324z"/>
	<path fill="#FDFDFE" d="M10.297,18.785c0.041-0.159,0.049-0.32,0.063-0.478c-0.014-0.247-0.039-0.49-0.057-0.734
		c-0.008-0.071-0.007-0.145-0.01-0.217c-0.003-0.071,0.102-0.092,0.105-0.023c0.003,0.072,0.002,0.144,0.011,0.216
		c0.016,0.243,0.033,0.487,0.068,0.728c0.042,0.141,0.079,0.287,0.15,0.415C10.729,18.875,10.235,19.015,10.297,18.785
		L10.297,18.785z"/>
	<path fill="#FDFDFE" d="M11.204,15.684c0.138-0.094,0.29-0.114,0.442-0.158c0.208-0.046,0.413-0.101,0.619-0.152
		c0.183-0.056,0.359-0.067,0.538-0.069c0.141,0.013,0.272,0.021,0.415,0.011c0.094-0.009,0.187-0.002,0.278,0.001
		c0.005,0.037,0.008,0.074,0.012,0.11c0.01,0.079,0.014,0.037-0.021,0.117c-0.017,0.036-0.032,0.074-0.049,0.112
		c-0.096,0.003-0.196,0.008-0.293,0.003c-0.134-0.025-0.269-0.034-0.411-0.039c-0.15,0.004-0.304,0.007-0.46,0.033
		c-0.199,0.031-0.398,0.065-0.594,0.147c-0.131,0.039-0.261,0.086-0.389,0.132C11.091,16.002,11.022,15.808,11.204,15.684
		L11.204,15.684z"/>
	<path fill="#FDFDFE" d="M17.061,10.331c0.067-0.146,0.089-0.3,0.121-0.449c0.075-0.26,0.09-0.519,0.123-0.778
		c0.006-0.189,0.031-0.38,0.061-0.571c0.039-0.208,0.16-0.313,0.328-0.443c0.246-0.104,0.499-0.079,0.741-0.082
		c0.308,0.013,0.605,0.064,0.907,0.102c0.223,0.038,0.445,0.071,0.654,0.143c0.082,0.034,0.117,0.118,0.162,0.189
		c0.032,0.057,0.015,0.08-0.06,0.095c-0.084,0.016-0.171,0.037-0.25,0.023c-0.207-0.051-0.4-0.129-0.609-0.176
		c-0.275-0.069-0.552-0.127-0.852-0.123c-0.188,0.003-0.37-0.001-0.562,0.098c-0.065,0.062-0.144,0.083-0.156,0.191
		c-0.05,0.182-0.098,0.361-0.134,0.542c-0.042,0.259-0.095,0.519-0.082,0.772c-0.002,0.15-0.011,0.302,0.013,0.446
		C17.51,10.576,16.939,10.603,17.061,10.331L17.061,10.331z"/>
	<path fill="#FDFDFE" d="M7.64,21.691c-0.073-0.119-0.15-0.235-0.217-0.354c-0.1-0.171-0.203-0.338-0.315-0.5
		c-0.098-0.132-0.132-0.285-0.146-0.455c0.037-0.253,0.185-0.359,0.386-0.5c0.242-0.124,0.481-0.2,0.734-0.258
		c0.288-0.033,0.572-0.057,0.856-0.067c0.202-0.024,0.383,0.008,0.567,0.049c0.069,0.016,0.048,0.095-0.026,0.103
		c-0.192,0.017-0.38,0.023-0.565,0c-0.272,0.004-0.548-0.007-0.827,0.061c-0.222,0.053-0.447,0.079-0.618,0.267
		c-0.063,0.1-0.145,0.184-0.159,0.296c0.018,0.111,0.008,0.233,0.077,0.331c0.073,0.18,0.166,0.345,0.274,0.502
		c0.084,0.115,0.158,0.238,0.23,0.358C7.986,21.677,7.736,21.843,7.64,21.691L7.64,21.691z"/>
	<path fill="#FDFDFE" d="M18.067,19.784c0.146,0.034,0.248,0.13,0.352,0.226c0.205,0.16,0.363,0.31,0.41,0.581
		c0.035,0.031,0.072,0.063,0.108,0.094c0.05,0.043-0.028,0.126-0.078,0.082c-0.037-0.031-0.073-0.063-0.108-0.095
		c-0.279-0.016-0.448-0.146-0.646-0.304c-0.117-0.087-0.24-0.168-0.285-0.314C17.755,19.842,17.845,19.731,18.067,19.784
		L18.067,19.784z"/>
	<path fill="#FDFDFE" d="M18.761,18.879c0.122,0.124,0.234,0.299,0.358,0.441c0.16,0.164,0.25,0.371,0.418,0.525
		c0.05,0.045-0.027,0.124-0.078,0.08c-0.175-0.15-0.4-0.227-0.568-0.391c-0.137-0.122-0.297-0.243-0.428-0.349
		C18.265,19.028,18.584,18.697,18.761,18.879L18.761,18.879z"/>
	<path fill="#FDFDFE" d="M19.104,17.436c0.138,0.127,0.219,0.294,0.313,0.459c0.223,0.277,0.291,0.632,0.419,0.962
		c0.024,0.064-0.034,0.112-0.089,0.071c-0.287-0.201-0.598-0.363-0.802-0.657c-0.116-0.11-0.244-0.212-0.359-0.323
		C18.278,17.649,18.79,17.14,19.104,17.436L19.104,17.436z"/>
	<path fill="#FDFDFE" d="M20.28,17.574c0.08,0.14,0.15,0.288,0.234,0.428c0.104,0.159,0.16,0.342,0.251,0.508
		c0.032,0.057-0.047,0.116-0.09,0.068c-0.126-0.145-0.275-0.261-0.375-0.426c-0.088-0.133-0.184-0.257-0.284-0.375
		C19.888,17.627,20.181,17.402,20.28,17.574L20.28,17.574z"/>
	<path fill="#FDFDFE" d="M20.875,16.517c0.108,0.204,0.177,0.449,0.264,0.671c0.115,0.301,0.162,0.613,0.319,0.893
		c0.032,0.057-0.062,0.117-0.095,0.061c-0.156-0.276-0.383-0.472-0.581-0.715c-0.144-0.173-0.314-0.327-0.473-0.478
		C20.003,16.661,20.678,16.14,20.875,16.517L20.875,16.517z"/>
	<path fill="#FDFDFE" d="M32.701,17.945c0.363-0.257,0.662-0.579,0.953-0.909c0.74-0.781,1.322-1.675,1.894-2.561
		c0.646-0.988,1.239-2,1.79-3.027c0.349-0.715,0.614-1.449,0.868-2.183c0.162-0.47,0.329-0.937,0.468-1.41
		c0.104-0.341,0.165-0.685,0.207-1.028c0.03-0.189,0.027-0.366,0.01-0.546c-0.014-0.033-0.047-0.055-0.071-0.084
		c0.048-0.031-0.284,0.124-0.337,0.152c-0.521,0.332-0.982,0.756-1.428,1.184c-0.623,0.579-1.19,1.212-1.762,1.837
		c-0.544,0.614-1.094,1.229-1.632,1.848c-0.074,0.084-0.18,0.004-0.106-0.081c0.541-0.622,1.09-1.238,1.637-1.853
		c0.575-0.628,1.16-1.246,1.745-1.864c0.447-0.466,0.87-0.95,1.32-1.41c0.291-0.233,0.546-0.478,0.904-0.416
		c0.171,0.126,0.297,0.233,0.315,0.469c0.039,0.241,0.089,0.485,0.038,0.743C39.43,7.182,39.339,7.56,39.204,7.93
		c-0.183,0.481-0.348,0.967-0.585,1.433c-0.354,0.723-0.744,1.432-1.15,2.133c-0.554,1.031-1.15,2.047-1.798,3.04
		c-0.579,0.894-1.158,1.788-1.709,2.697c-0.268,0.396-0.506,0.802-0.771,1.197C32.87,18.911,32.223,18.28,32.701,17.945
		L32.701,17.945z"/>
</g>
</svg>
